<svg width="717" height="70" viewBox="0 0 717 70" fill="none" xmlns="http://www.w3.org/2000/svg">
<path d="M656.102 68V67L658.202 66.2C660.335 65.3333 661.402 63.6333 661.402 61.1V8.9C661.402 6.23333 660.335 4.53333 658.202 3.8L656.102 3V2L682.502 2C689.568 2 695.635 3.33333 700.702 6C705.835 8.6 709.768 12.3667 712.502 17.3C715.302 22.1667 716.702 28.0333 716.702 34.9C716.702 41.9 715.202 47.8667 712.202 52.8C709.202 57.7333 705.002 61.5 699.602 64.1C694.268 66.7 687.968 68 680.702 68H656.102ZM676.402 66H680.702C685.502 66 689.368 65.0667 692.302 63.2C695.235 61.2667 697.368 58.0667 698.702 53.6C700.102 49.0667 700.802 42.8667 700.802 35C700.802 27.1333 700.102 20.9667 698.702 16.5C697.368 11.9667 695.268 8.76667 692.402 6.9C689.535 4.96667 685.768 4 681.102 4H676.402V66Z" fill="#5E5E5E" fill-opacity="0.4" style="mix-blend-mode:plus-lighter"/>
<path d="M588.305 68V67L590.405 66.3C591.738 65.8333 592.605 65.2333 593.005 64.5C593.405 63.7 593.605 62.6 593.605 61.2V8.9C593.605 7.56667 593.405 6.53333 593.005 5.8C592.671 5 591.871 4.36667 590.605 3.9L588.305 3V2L616.905 2C624.771 2 630.805 3.5 635.005 6.5C639.205 9.43333 641.305 13.5333 641.305 18.8C641.305 21.7333 640.205 24.6667 638.005 27.6C635.805 30.5333 632.338 32.8 627.605 34.4L641.505 62C642.105 63.1333 642.771 64.0667 643.505 64.8C644.305 65.4667 645.338 66.0667 646.605 66.6L647.905 67.1V68H630.005L615.205 36.5H608.405V61.2C608.405 62.4667 608.605 63.5 609.005 64.3C609.405 65.1 610.238 65.7 611.505 66.1L613.905 67V68H588.305ZM608.405 34.5H613.205C618.005 34.5 621.471 33.2333 623.605 30.7C625.738 28.1 626.805 24.2667 626.805 19.2C626.805 14.0667 625.805 10.2667 623.805 7.8C621.805 5.26666 618.438 4 613.705 4H608.405V34.5Z" fill="#5E5E5E" fill-opacity="0.4" style="mix-blend-mode:plus-lighter"/>
<path d="M553.284 69.4996C548.818 69.4996 545.151 68.9996 542.284 67.9996C539.484 66.9996 536.718 65.8329 533.984 64.4996L535.084 51.4996H536.084L540.484 59.5996C543.418 64.8663 547.484 67.4996 552.684 67.4996C555.751 67.4996 558.218 66.2329 560.084 63.6996C562.018 61.0996 562.984 56.7663 562.984 50.6996C562.984 45.4329 562.184 41.6663 560.584 39.3996C558.984 37.0663 556.251 35.8996 552.384 35.8996H546.384V33.8996H551.684C555.218 33.8996 557.751 32.8329 559.284 30.6996C560.884 28.5663 561.684 24.8663 561.684 19.5996C561.684 14.4663 560.918 10.8329 559.384 8.69961C557.851 6.49961 555.818 5.39961 553.284 5.39961C550.751 5.39961 548.618 6.13294 546.884 7.59961C545.218 9.06628 543.851 10.7996 542.784 12.7996L538.284 21.1996L537.284 21.0996L538.284 6.39961C540.418 5.46628 542.784 4.69961 545.384 4.09961C548.051 3.43294 551.018 3.09961 554.284 3.09961C561.284 3.09961 566.584 4.63294 570.184 7.69961C573.851 10.6996 575.684 14.4663 575.684 18.9996C575.684 22.2663 574.284 25.3996 571.484 28.3996C568.684 31.3329 564.284 33.3663 558.284 34.4996C565.084 35.0996 570.018 36.9329 573.084 39.9996C576.151 43.0663 577.684 46.7663 577.684 51.0996C577.684 54.5663 576.684 57.6996 574.684 60.4996C572.751 63.2996 569.951 65.4996 566.284 67.0996C562.684 68.6996 558.351 69.4996 553.284 69.4996Z" fill="#5E5E5E" fill-opacity="0.4" style="mix-blend-mode:plus-lighter"/>
<path d="M449.889 68V67L453.989 66C456.722 65.4 458.089 63.7333 458.089 61V4L449.589 4C447.122 4 445.356 4.66667 444.289 6C443.222 7.26667 442.089 9.03333 440.889 11.3L437.289 18.3H436.289L436.789 2L494.489 2L494.889 18.3H493.889L490.289 11.3C489.156 9.03333 488.056 7.26667 486.989 6C485.922 4.66667 484.156 4 481.689 4L473.189 4V61C473.189 63.7333 474.556 65.4 477.289 66L481.389 67V68H449.889Z" fill="#5E5E5E" fill-opacity="0.4" style="mix-blend-mode:plus-lighter"/>
<path d="M376.023 68V67L378.323 66.1C379.457 65.6333 380.223 65.0333 380.623 64.3C381.09 63.5 381.323 62.4333 381.323 61.1V8.9C381.323 7.56667 381.123 6.53333 380.723 5.8C380.39 5 379.59 4.36667 378.323 3.9L376.023 3V2L423.923 2L424.523 17.4H423.523L419.223 8C418.623 6.8 417.99 5.83333 417.323 5.1C416.657 4.36666 415.657 4 414.323 4H396.323V32.9H407.023C408.357 32.9 409.357 32.5667 410.023 31.9C410.757 31.1667 411.39 30.2 411.923 29L413.923 25H414.923V43H413.923L411.923 38.8C411.323 37.6 410.69 36.6667 410.023 36C409.357 35.2667 408.357 34.9 407.023 34.9H396.323V66H416.523C417.857 66 418.89 65.6667 419.623 65C420.357 64.2667 420.957 63.2667 421.423 62L425.523 52.6H426.523L425.923 68H376.023Z" fill="#5E5E5E" fill-opacity="0.4" style="mix-blend-mode:plus-lighter"/>
<path d="M340.572 69.7992C333.772 69.7992 327.772 68.3992 322.572 65.5992C317.439 62.7325 313.405 58.6992 310.472 53.4992C307.605 48.2326 306.172 42.0326 306.172 34.8992C306.172 27.9659 307.605 21.8992 310.472 16.6992C313.339 11.4992 317.472 7.46589 322.872 4.59922C328.339 1.66589 334.939 0.199219 342.672 0.199219C346.205 0.199219 349.472 0.59922 352.472 1.39922C355.539 2.19922 358.439 3.36588 361.172 4.89922L361.572 18.8992H360.572L354.972 8.49922C354.105 6.83255 353.305 5.63255 352.572 4.89922C351.839 4.16589 350.905 3.59922 349.772 3.19922C348.705 2.86589 347.705 2.63255 346.772 2.49922C345.905 2.29922 344.739 2.19922 343.272 2.19922C339.139 2.19922 335.472 3.29922 332.272 5.49922C329.139 7.69922 326.705 11.1992 324.972 15.9992C323.239 20.7992 322.372 27.0992 322.372 34.8992C322.372 42.6326 323.172 48.9326 324.772 53.7992C326.439 58.6659 328.772 62.2326 331.772 64.4992C334.772 66.6992 338.239 67.7992 342.172 67.7992C342.772 67.7992 343.339 67.7659 343.872 67.6992C344.472 67.5659 345.039 67.4326 345.572 67.2992C346.839 67.0992 347.672 66.5659 348.072 65.6992C348.472 64.8325 348.672 63.7992 348.672 62.5992V42.7992C348.672 40.1992 347.339 38.5992 344.672 37.9992L340.072 36.7992V35.7992H368.272V36.7992L366.872 37.1992C364.339 37.9992 363.072 39.6659 363.072 42.1992V63.8992C359.605 65.8326 356.072 67.2992 352.472 68.2992C348.939 69.2992 344.972 69.7992 340.572 69.7992Z" fill="#5E5E5E" fill-opacity="0.4" style="mix-blend-mode:plus-lighter"/>
<path d="M226.075 21.3996L226.775 7.19961C228.775 6.06628 231.242 5.09961 234.175 4.29961C237.175 3.49961 240.542 3.09961 244.275 3.09961C249.608 3.09961 253.908 3.86628 257.175 5.39961C260.442 6.86628 262.842 8.89961 264.375 11.4996C265.908 14.0996 266.675 17.0329 266.675 20.2996C266.675 24.8996 264.442 29.3996 259.975 33.7996C255.508 38.1329 249.408 42.9329 241.675 48.1996C240.208 49.2663 238.475 50.5663 236.475 52.0996C234.475 53.6329 232.608 55.1329 230.875 56.5996H268.375V67.9996H224.375V59.5996C226.775 57.2663 229.108 54.9663 231.375 52.6996C233.708 50.3663 235.908 48.1663 237.975 46.0996C242.775 41.1663 246.342 36.7996 248.675 32.9996C251.075 29.1329 252.275 24.9996 252.275 20.5996C252.275 15.9996 251.442 12.2996 249.775 9.49961C248.108 6.63295 245.608 5.19961 242.275 5.19961C240.208 5.19961 238.275 5.73295 236.475 6.79961C234.742 7.79961 233.208 9.56628 231.875 12.0996L227.075 21.3996H226.075Z" fill="#5E5E5E" fill-opacity="0.4" style="mix-blend-mode:plus-lighter"/>
<path d="M146.762 68V67L149.762 66.2C152.096 65.5333 153.262 63.8667 153.262 61.2V42.2L136.762 8.6C136.162 7.26667 135.596 6.26667 135.062 5.6C134.596 4.93333 133.863 4.36667 132.863 3.9L131.062 3V2L157.863 2V3L156.062 3.7C154.596 4.3 153.796 5.13333 153.662 6.2C153.529 7.2 153.796 8.46666 154.462 10L166.262 36.2L179.462 9C179.996 7.93333 180.196 6.83333 180.062 5.7C179.996 4.56666 179.296 3.83333 177.962 3.5L176.562 3V2L188.562 2V3L186.662 3.7C185.396 4.16667 184.463 4.83333 183.862 5.7C183.262 6.5 182.662 7.53333 182.062 8.8L168.363 37.6V61.2C168.363 62.5333 168.596 63.6333 169.062 64.5C169.596 65.3 170.496 65.8667 171.762 66.2L174.863 67V68H146.762Z" fill="#5E5E5E" fill-opacity="0.4" style="mix-blend-mode:plus-lighter"/>
<path d="M94.2203 69.8C89.1536 69.8 84.6536 68.9 80.7203 67.1C76.8536 65.3 73.8203 62.4667 71.6203 58.6C69.487 54.6667 68.4203 49.5 68.4203 43.1V8.6C68.4203 6.06667 67.1203 4.4 64.5203 3.6L62.3203 3V2L90.0203 2V3L87.1203 3.8C84.6536 4.4 83.4203 6.06667 83.4203 8.8V45.7C83.4203 51.9 84.7203 56.5 87.3203 59.5C89.9203 62.4333 93.6536 63.9 98.5203 63.9C103.587 63.9 107.587 62.3333 110.52 59.2C113.52 56.0667 115.02 51.6333 115.02 45.9V9.2C115.02 7.86667 114.787 6.7 114.32 5.7C113.92 4.63333 113.054 3.93333 111.72 3.6L109.22 3V2L123.22 2V3L120.52 3.7C119.254 3.96666 118.42 4.6 118.02 5.6C117.62 6.6 117.42 7.76666 117.42 9.1V45.7C117.42 50.5667 116.454 54.8333 114.52 58.5C112.587 62.1 109.887 64.9 106.42 66.9C102.954 68.8333 98.887 69.8 94.2203 69.8Z" fill="#5E5E5E" fill-opacity="0.4" style="mix-blend-mode:plus-lighter"/>
<path d="M0.203125 68L0.203125 67L2.00313 66.3C3.33646 65.7667 4.23646 65.1 4.70312 64.3C5.23646 63.5 5.50312 62.4333 5.50312 61.1L5.50312 8.9C5.50312 7.5 5.23646 6.4 4.70312 5.6C4.23646 4.8 3.33646 4.16667 2.00313 3.7L0.203125 3L0.203125 2L28.9031 2C37.0365 2 42.9031 3.5 46.5031 6.5C50.1031 9.43333 51.9031 13.1667 51.9031 17.7C51.9031 21.1 50.5698 24.2 47.9031 27C45.3031 29.7333 40.8031 31.6667 34.4031 32.8C41.7365 33.6 47.1031 35.5333 50.5031 38.6C53.9031 41.6 55.6031 45.2667 55.6031 49.6C55.6031 51.7333 55.1365 53.9 54.2031 56.1C53.2698 58.2333 51.6698 60.2 49.4031 62C47.2031 63.8 44.1698 65.2667 40.3031 66.4C36.4365 67.4667 31.5365 68 25.6031 68H0.203125ZM20.3031 32.7H24.6031C29.0698 32.7 32.2698 31.6667 34.2031 29.6C36.2031 27.5333 37.2031 23.9333 37.2031 18.8C37.2031 13.4667 36.3031 9.66667 34.5031 7.4C32.7031 5.13333 29.7698 4 25.7031 4H20.3031V32.7ZM20.3031 66H25.3031C30.3031 66 34.0031 64.6667 36.4031 62C38.8698 59.3333 40.1031 55.1667 40.1031 49.5C40.1031 44.1667 38.9365 40.3667 36.6031 38.1C34.2698 35.8333 30.4365 34.7 25.1031 34.7H20.3031V66Z" fill="#5E5E5E" fill-opacity="0.7" style="mix-blend-mode:plus-lighter"/>
</svg>
