<svg width="725" height="78" viewBox="0 0 725 78" fill="none" xmlns="http://www.w3.org/2000/svg">
<path d="M661.401 12.9004C661.401 12.078 661.235 11.7866 661.213 11.751C661.203 11.7348 661.198 11.7278 661.181 11.7148C661.159 11.6982 661.08 11.6445 660.901 11.583L660.839 11.5615L656.102 9.75684V2L686.501 2C694.067 2 700.804 3.4282 706.564 6.45996C712.351 9.40343 716.85 13.7022 719.969 19.3057L720.266 19.833C723.281 25.3133 724.701 31.7207 724.701 38.9004C724.701 46.4771 723.073 53.1973 719.619 58.8779C716.202 64.4976 711.405 68.7822 705.337 71.7041L705.336 71.7031C699.352 74.6164 692.434 76 684.701 76H656.102V68.2432L660.719 66.4834C661.105 66.3224 661.19 66.1865 661.213 66.1494C661.254 66.0841 661.401 65.81 661.401 65.0996V12.9004ZM700.802 39C700.802 31.303 700.109 25.6012 698.885 21.6963L698.874 21.6621L698.864 21.6289C697.698 17.6625 696.028 15.4299 694.219 14.252L694.191 14.2344L694.165 14.2158C692.154 12.8593 689.243 12 685.102 12H684.401V66H684.701C689.002 66 692.038 65.1613 694.128 63.8398C696.039 62.5685 697.721 60.2995 698.868 56.4561L698.874 56.4375L698.88 56.4199C700.11 52.4375 700.802 46.6928 700.802 39ZM704.793 40.4551C704.711 47.6348 704.014 53.3496 702.701 57.5996C701.368 62.0662 699.235 65.2668 696.302 67.2002C693.368 69.0669 689.501 70 684.701 70H680.401V8H685.102C689.768 8.00003 693.535 8.96708 696.401 10.9004C699.268 12.7671 701.368 15.9668 702.701 20.5C704.101 24.9667 704.802 31.1333 704.802 39L704.793 40.4551ZM665.401 65.0996C665.401 67.6329 664.335 69.3335 662.201 70.2002L660.102 71V72H684.701C691.968 72 698.268 70.6996 703.602 68.0996C709.001 65.4996 713.201 61.733 716.201 56.7998C719.107 52.0205 720.607 46.2716 720.697 39.5527L720.701 38.9004C720.701 32.0337 719.301 26.1665 716.501 21.2998C713.853 16.5207 710.079 12.8364 705.179 10.2471L704.701 10C699.635 7.33339 693.568 6 686.501 6L660.102 6V7L662.201 7.7998C664.335 8.53314 665.401 10.2337 665.401 12.9004V65.0996Z" fill="#FFEDEB"/>
<path d="M626.805 23.2002C626.805 18.4578 625.858 15.7507 624.697 14.3193L624.681 14.2988L624.665 14.2783C623.727 13.0904 621.805 12 617.704 12H616.404V34.5H617.204C621.351 34.5 623.443 33.4153 624.528 32.1396C625.833 30.5356 626.805 27.7704 626.805 23.2002ZM621.904 76H588.305V68.1172L593.097 66.5186C593.271 66.457 593.411 66.399 593.52 66.3486C593.567 66.0855 593.604 65.7103 593.604 65.2002V12.9004C593.604 12.4248 593.568 12.0951 593.527 11.8848C593.518 11.8368 593.506 11.7989 593.498 11.7686C593.428 11.7354 593.337 11.6957 593.222 11.6533L593.185 11.6396L593.146 11.625L588.305 9.73047V2L620.904 2C629.175 2 636.148 3.5603 641.294 7.2207C646.6 10.9269 649.305 16.2702 649.305 22.7998C649.305 26.7951 647.792 30.55 645.204 34C643.181 36.6971 640.43 38.8174 637.117 40.4531L649.048 64.1445C649.452 64.9048 649.847 65.4508 650.205 65.8379C650.619 66.1554 651.232 66.5199 652.113 66.8945L655.904 68.3525V76H631.464L616.664 44.5H616.404V65.2002C616.404 65.6764 616.448 66.0007 616.492 66.209C616.494 66.2098 616.496 66.2111 616.498 66.2119L616.709 66.2861L616.81 66.3174L616.909 66.3545L621.904 68.2275V76ZM630.792 24.1357C630.667 28.7411 629.604 32.2627 627.604 34.7002L627.4 34.9336C625.253 37.3111 621.854 38.5 617.204 38.5H612.404V8H617.704C622.437 8 625.805 9.26649 627.805 11.7998C629.805 14.2665 630.805 18.0669 630.805 23.2002L630.792 24.1357ZM597.604 65.2002L597.595 65.7109C597.551 66.8702 597.355 67.8 597.005 68.5C596.605 69.2333 595.738 69.8331 594.404 70.2998L592.305 71V72H617.904V71L615.505 70.0996C614.238 69.6996 613.405 69.0998 613.005 68.2998C612.655 67.5998 612.458 66.7213 612.414 65.6641L612.404 65.2002V40.5H619.204L634.005 72H651.904V71.0996L650.604 70.5996C649.338 70.0663 648.305 69.4664 647.505 68.7998C646.863 68.1582 646.272 67.3638 645.732 66.416L645.505 66L631.604 38.4004C636.19 36.8504 639.587 34.6744 641.795 31.873L642.005 31.5996C644.067 28.8496 645.163 26.0996 645.292 23.3496L645.305 22.7998C645.305 17.6979 643.334 13.6906 639.393 10.7783L639.005 10.5C634.805 7.5 628.771 6 620.904 6L592.305 6V7L594.604 7.90039C595.871 8.36705 596.672 8.99985 597.005 9.7998C597.405 10.5331 597.604 11.5671 597.604 12.9004V65.2002Z" fill="#FFEDEB"/>
<path d="M579.683 23C579.683 18.6084 577.962 14.9361 574.521 11.9834L574.183 11.7002C570.583 8.63359 565.283 7.09967 558.283 7.09961C555.017 7.09961 552.049 7.43296 549.383 8.09961C546.783 8.69959 544.416 9.46709 542.283 10.4004L541.283 25.0996L542.283 25.2002L546.783 16.7998C547.85 14.7999 549.216 13.0662 550.883 11.5996C552.616 10.133 554.75 9.40039 557.283 9.40039C559.816 9.4005 561.85 10.5003 563.383 12.7002C564.916 14.8335 565.683 18.4666 565.683 23.5996C565.683 28.8662 564.883 32.5669 563.283 34.7002C561.75 36.8335 559.216 37.9004 555.683 37.9004H550.383V39.9004H556.383C560.249 39.9004 562.983 41.0671 564.583 43.4004C566.183 45.6671 566.982 49.4338 566.982 54.7002L566.972 55.8174C566.858 61.3017 565.895 65.2627 564.083 67.7002C562.216 70.2335 559.749 71.5 556.683 71.5C551.483 71.4999 547.416 68.8662 544.482 63.5996L540.083 55.5H539.083L537.982 68.5C540.716 69.8333 543.483 71 546.283 72C549.15 72.9999 552.817 73.5 557.283 73.5C562.35 73.5 566.683 72.6996 570.283 71.0996C573.95 69.4996 576.749 67.2998 578.683 64.5C580.683 61.7 581.683 58.5663 581.683 55.0996C581.683 50.9019 580.244 47.2981 577.366 44.2891L577.083 44C574.016 40.9334 569.083 39.1 562.283 38.5C568.096 37.402 572.407 35.4592 575.216 32.6719L575.482 32.4004C578.195 29.4941 579.594 26.4622 579.679 23.3057L579.683 23ZM583.683 23C583.683 27.5215 581.714 31.5863 578.407 35.1289L578.376 35.1621C577.444 36.1389 576.395 37.0138 575.243 37.7978C577.003 38.7139 578.569 39.83 579.911 41.1719C583.727 44.9879 585.683 49.7046 585.683 55.0996C585.683 59.3717 584.437 63.3005 581.974 66.7715L581.975 66.7725C579.549 70.2861 576.111 72.9218 571.883 74.7666L571.882 74.7646C567.652 76.6394 562.745 77.5 557.283 77.5C552.559 77.5 548.404 76.9762 544.965 75.7764L544.937 75.7666C541.995 74.7158 539.093 73.4913 536.229 72.0947L533.766 70.8936L535.407 51.5H542.462L547.978 61.6533L548.2 62.0439C550.519 65.9941 553.301 67.4999 556.683 67.5C558.44 67.5 559.726 66.8688 560.862 65.3271L560.868 65.3203L560.873 65.3135C562.009 63.7862 562.982 60.5541 562.982 54.7002C562.982 49.6277 562.172 46.9207 561.315 45.707L561.299 45.6846L561.284 45.6621C560.686 44.7897 559.459 43.9004 556.383 43.9004H546.383V33.9004H555.683C558.412 33.9004 559.497 33.1138 560.035 32.3652L560.059 32.332L560.083 32.2998C560.857 31.2673 561.683 28.7107 561.683 23.5996C561.683 18.6312 560.895 16.0923 560.135 15.0342L560.102 14.9873C559.265 13.7863 558.42 13.4005 557.283 13.4004C555.597 13.4004 554.417 13.8594 553.495 14.6289C552.21 15.766 551.152 17.1095 550.312 18.6826L550.309 18.6885L544.546 29.4463L537.029 28.6943L538.457 7.70801L540.68 6.73535C542.771 5.82032 545.028 5.06305 547.44 4.4541L548.483 4.20215C551.501 3.45496 554.776 3.09961 558.283 3.09961C565.757 3.09967 572.118 4.722 576.715 8.60449C581.262 12.3247 583.683 17.2061 583.683 23Z" fill="#FFEDEB"/>
<path d="M477.189 8L485.689 8C488.156 8.00007 489.923 8.66673 490.989 10C492.056 11.2666 493.156 13.0333 494.289 15.2998L497.889 22.2998H498.889L498.489 6L440.789 6L440.289 22.2998H441.289L444.889 15.2998C446.089 13.0331 447.222 11.2667 448.289 10C449.356 8.6667 451.122 8.00004 453.589 8H462.089V65L462.085 65.2529C462.002 67.8363 460.637 69.4187 457.989 70L453.889 71V72H485.389V71L481.289 70C478.641 69.4187 477.276 67.8364 477.193 65.2529L477.189 65V8ZM481.189 65C481.189 65.3535 481.234 65.561 481.266 65.6631C481.281 65.7127 481.294 65.74 481.3 65.751C481.303 65.7567 481.305 65.7605 481.306 65.7617C481.306 65.7629 481.307 65.7633 481.308 65.7637C481.308 65.7642 481.309 65.7657 481.311 65.7676C481.313 65.77 481.318 65.7748 481.326 65.7812C481.342 65.7938 481.374 65.8182 481.431 65.8496C481.547 65.914 481.769 66.01 482.146 66.0928L482.192 66.1025L482.237 66.1143L489.389 67.8584V76H449.889V67.8584L457.041 66.1143L457.086 66.1025L457.132 66.0928C457.509 66.01 457.731 65.914 457.848 65.8496C457.905 65.8181 457.937 65.7938 457.952 65.7812C457.96 65.7749 457.964 65.77 457.967 65.7676L457.973 65.7617C457.973 65.7605 457.975 65.7567 457.979 65.751C457.984 65.74 457.997 65.7126 458.013 65.6631C458.044 65.561 458.089 65.3534 458.089 65V12H453.589C451.775 12 451.427 12.4804 451.412 12.499L451.381 12.5381L451.349 12.5762C450.536 13.5412 449.555 15.0356 448.424 17.1719L443.729 26.2998H436.164L436.91 2L502.393 2L502.988 26.2998L495.448 26.2998L490.731 17.1289L490.722 17.1094L490.711 17.0889C489.653 14.9724 488.716 13.5101 487.93 12.5762L487.897 12.5381L487.865 12.499C487.85 12.4801 487.502 12.0001 485.689 12H481.189V65Z" fill="#FFEDEB"/>
<path d="M381.323 12.9004C381.323 12.4248 381.287 12.0951 381.246 11.8848C381.237 11.8368 381.225 11.7989 381.217 11.7686C381.146 11.7354 381.055 11.6957 380.94 11.6533L380.903 11.6396L380.865 11.625L376.023 9.73047V2L431.771 2L432.682 25.4004H424.954L419.623 13.7461C419.225 12.9554 418.859 12.3951 418.549 12.0098C418.492 12.0045 418.417 12 418.323 12L404.323 12V32.9004H411.023C411.175 32.9004 411.288 32.8901 411.369 32.8799C411.64 32.5608 411.953 32.0827 412.268 31.375L412.305 31.292L412.346 31.2109L415.451 25H422.923V51H415.397L412.33 44.5596C411.9 43.7052 411.533 43.1953 411.273 42.9121C411.213 42.9058 411.131 42.9004 411.023 42.9004H404.323V66H420.523C420.743 66 420.888 65.9783 420.976 65.9619C421.177 65.7004 421.426 65.2802 421.67 64.6172L421.71 64.5078L426.904 52.5996H434.682L433.771 76H376.023V68.2695L380.814 66.3945C381 66.3174 381.121 66.2509 381.195 66.2061C381.241 66.0675 381.323 65.7336 381.323 65.0996V12.9004ZM385.323 65.0996C385.323 66.4329 385.09 67.4998 384.623 68.2998C384.223 69.0331 383.456 69.6329 382.323 70.0996L380.023 71V72H429.923L430.523 56.5996H429.523L425.423 66L425.242 66.4629C424.805 67.5128 424.265 68.3584 423.623 69C422.89 69.6666 421.857 70 420.523 70H400.323V38.9004H411.023C412.357 38.9004 413.357 39.2667 414.023 40C414.69 40.6666 415.323 41.6 415.923 42.7998L417.923 47H418.923V29H417.923L415.923 33C415.39 34.1999 414.757 35.1671 414.023 35.9004C413.357 36.567 412.357 36.9004 411.023 36.9004H400.323V8H418.323C419.656 8 420.657 8.36642 421.323 9.09961C421.99 9.83294 422.624 10.8 423.224 12L427.523 21.4004H428.523L427.923 6L380.023 6V7L382.323 7.90039C383.59 8.36705 384.39 8.99985 384.724 9.7998C385.124 10.5331 385.323 11.5671 385.323 12.9004V65.0996Z" fill="#FFEDEB"/>
<path d="M326.372 38.8994C326.372 31.3431 327.185 25.194 328.812 20.4531L328.972 19.999C330.705 15.1992 333.138 11.699 336.271 9.49902C339.471 7.29909 343.138 6.19929 347.271 6.19922C348.738 6.19922 349.905 6.29908 350.771 6.49902C351.705 6.63234 352.705 6.86593 353.771 7.19922C354.905 7.59922 355.839 8.16608 356.572 8.89941C357.305 9.63277 358.105 10.8327 358.972 12.499L364.572 22.8994H365.572L365.172 8.89941C362.439 7.36608 359.538 6.19941 356.472 5.39941C353.472 4.59943 350.205 4.19922 346.672 4.19922C338.939 4.19922 332.339 5.66541 326.872 8.59863L326.369 8.87109C321.215 11.7188 317.249 15.6618 314.472 20.6992L314.207 21.1895C311.517 26.2793 310.172 32.1829 310.172 38.8994L310.176 39.5654C310.263 46.4191 311.695 52.3971 314.472 57.499C317.405 62.699 321.439 66.732 326.572 69.5986C331.772 72.3986 337.772 73.7988 344.572 73.7988C348.972 73.7988 352.938 73.2988 356.472 72.2988C360.072 71.2988 363.606 69.8327 367.072 67.8994V46.1992C367.072 43.6659 368.339 41.9992 370.872 41.1992L372.271 40.7988V39.7988H344.072V40.7988L348.672 41.999C351.338 42.599 352.672 44.1989 352.672 46.7988V66.5986C352.672 67.7986 352.472 68.8325 352.072 69.6992C351.672 70.5658 350.839 71.0988 349.572 71.2988C349.039 71.4321 348.472 71.5659 347.872 71.6992C347.339 71.7659 346.772 71.7988 346.172 71.7988C342.239 71.7988 338.771 70.699 335.771 68.499C332.772 66.2323 330.438 62.6654 328.771 57.7988C327.272 53.2363 326.475 47.414 326.381 40.332L326.372 38.8994ZM330.372 38.8994C330.372 46.3993 331.153 52.2327 332.57 56.5459C334.064 60.8896 336.01 63.6558 338.163 65.291C340.431 66.946 343.049 67.7988 346.172 67.7988C346.554 67.7988 346.898 67.779 347.207 67.7471C347.701 67.6359 348.165 67.527 348.602 67.418L348.61 67.415C348.646 67.1983 348.672 66.9293 348.672 66.5986V46.7988C348.672 46.488 348.632 46.3177 348.609 46.2471C348.603 46.2276 348.597 46.2149 348.594 46.207C348.539 46.1625 348.332 46.0224 347.794 45.9014L347.728 45.8867L347.662 45.8691L340.072 43.8896V35.7988H376.271V43.8164L373.371 44.6455L372.056 45.0195C371.382 45.2356 371.219 45.4524 371.206 45.4697C371.198 45.479 371.072 45.6351 371.072 46.1992V70.248L369.021 71.3926C365.294 73.4709 361.466 75.0632 357.542 76.1533L357.541 76.1523C353.597 77.2663 349.262 77.7988 344.572 77.7988C337.211 77.7988 330.541 76.2794 324.676 73.1211L324.648 73.1064L324.622 73.0918C318.837 69.8609 314.277 65.2937 310.988 59.4639L310.973 59.4375L310.959 59.4111C307.718 53.4559 306.172 46.5741 306.172 38.8994C306.172 31.4046 307.725 24.6513 310.969 18.7676C314.219 12.871 318.923 8.29348 324.98 5.07422C331.155 1.76108 338.438 0.199219 346.672 0.199219C350.498 0.199219 354.108 0.6313 357.48 1.52832C360.662 2.35828 363.691 3.54754 366.558 5.0957L367.129 5.41016L369.105 6.51953L369.687 26.8994H362.183L355.423 14.3447C354.618 12.7971 354.042 12.0268 353.743 11.7275C353.502 11.4862 353.123 11.2212 352.499 10.9932C351.634 10.7266 350.872 10.5541 350.206 10.459L350.038 10.4346L349.872 10.3965C349.428 10.2941 348.603 10.1992 347.271 10.1992C343.9 10.1993 341.04 11.0795 338.555 12.7832C336.292 14.3775 334.276 17.087 332.734 21.3574C331.219 25.555 330.372 31.344 330.372 38.8994Z" fill="#FFEDEB"/>
<path d="M272.373 60.5996H234.873C236.606 59.133 238.473 57.6328 240.473 56.0996C242.473 54.5663 244.206 53.2668 245.673 52.2002C253.406 46.9335 259.506 42.1331 263.973 37.7998C268.439 33.3998 270.673 28.8998 270.673 24.2998C270.673 21.2373 269.999 18.4678 268.651 15.9912L268.373 15.5C266.936 13.0625 264.736 11.123 261.775 9.68164L261.173 9.40039C257.906 7.86706 253.606 7.09961 248.272 7.09961C244.539 7.09964 241.173 7.49984 238.173 8.2998C235.24 9.09981 232.772 10.0669 230.772 11.2002L230.073 25.4004H231.073L235.873 16.0996C237.206 13.5665 238.739 11.7998 240.473 10.7998C242.273 9.73321 244.206 9.20026 246.272 9.20019C249.606 9.20019 252.106 10.6334 253.772 13.5C255.439 16.2999 256.272 19.9998 256.272 24.5996C256.272 28.9996 255.073 33.1333 252.673 37C250.34 40.8 246.773 45.1663 241.973 50.0996C239.906 52.1663 237.706 54.3669 235.373 56.7002C233.106 58.9668 230.773 61.2664 228.373 63.5996V72H272.373V60.5996ZM274.673 24.2998C274.673 30.3136 271.725 35.7781 266.78 40.6494L266.77 40.6602L266.758 40.6709C262.077 45.2122 255.791 50.1443 247.978 55.4687C247.497 55.8186 246.986 56.1964 246.444 56.5996H276.373V76H224.373V64.5996H223.953L224.373 64.2441V61.9102L225.585 60.7324C227.972 58.4116 230.291 56.1239 232.544 53.8711L232.571 53.8437C232.576 53.8394 232.581 53.8354 232.585 53.8311L235.957 50.459C235.961 50.4547 235.965 50.4496 235.97 50.4453C235.981 50.4339 235.985 50.4314 235.996 50.4199L236.725 49.6914C236.729 49.6872 236.733 49.682 236.737 49.6777L236.788 49.627C236.792 49.6229 236.797 49.6193 236.801 49.6152L237.532 48.8838C237.536 48.8797 237.54 48.8752 237.544 48.8711C237.548 48.867 237.553 48.8634 237.557 48.8594L237.757 48.6592C237.761 48.6551 237.764 48.6506 237.769 48.6465C237.773 48.6424 237.777 48.6388 237.781 48.6348L237.98 48.4355C237.985 48.4315 237.988 48.4269 237.992 48.4228C237.996 48.4188 238.001 48.4152 238.005 48.4111L238.363 48.0527C238.367 48.0487 238.371 48.0441 238.375 48.04C238.379 48.036 238.384 48.0324 238.388 48.0283L238.719 47.6973C238.723 47.6932 238.726 47.6886 238.73 47.6846C238.735 47.6805 238.739 47.6769 238.743 47.6728C238.747 47.6688 238.751 47.6642 238.755 47.6602C238.759 47.6561 238.764 47.6525 238.768 47.6484C238.772 47.6444 238.775 47.6398 238.779 47.6357C238.783 47.6317 238.788 47.6281 238.792 47.624L239.108 47.3076C243.799 42.486 247.146 38.3584 249.265 34.9072L249.27 34.8984L249.274 34.8906C251.295 31.6345 252.272 28.2277 252.272 24.5996C252.272 20.4385 251.513 17.523 250.336 15.5459L250.314 15.5107C249.369 13.8838 248.19 13.2002 246.272 13.2002C244.933 13.2003 243.702 13.5356 242.512 14.2412L242.492 14.2529L242.472 14.2646C241.621 14.7554 240.547 15.8146 239.427 17.9336L233.51 29.4004H225.871L226.886 8.80469L228.801 7.71973C231.166 6.37946 233.962 5.30264 237.12 4.44141L237.131 4.4375L237.143 4.43457C240.538 3.5291 244.259 3.09964 248.272 3.09961C253.907 3.09961 258.831 3.89837 262.811 5.75098C266.688 7.49191 269.791 10.0298 271.818 13.4678C273.744 16.7336 274.673 20.3793 274.673 24.2998Z" fill="#FFEDEB"/>
<path d="M172.362 41.5996L186.062 12.7998C186.662 11.5333 187.262 10.5001 187.862 9.70019C188.462 8.83353 189.396 8.16686 190.663 7.70019L192.562 7V6H180.562V7L181.963 7.5C183.296 7.83335 183.996 8.56691 184.062 9.70019C184.196 10.8334 183.996 11.9334 183.463 13L170.263 40.2002L158.463 14C157.838 12.5625 157.564 11.3594 157.643 10.3906L157.663 10.2002C157.796 9.13359 158.596 8.30019 160.062 7.70019L161.862 7V6L135.062 6V7L136.862 7.90039C137.862 8.36698 138.596 8.9331 139.062 9.59961C139.596 10.2662 140.163 11.2664 140.763 12.5996L157.263 46.2002V65.2002L157.249 65.6885C157.112 68.0712 155.95 69.5752 153.763 70.2002L150.763 71V72H178.862V71L175.763 70.2002C174.496 69.8669 173.596 69.3 173.062 68.5C172.654 67.7418 172.425 66.8049 172.374 65.6894L172.362 65.2002V41.5996ZM176.362 65.2002C176.362 65.6701 176.407 66.0018 176.458 66.2275C176.536 66.2577 176.638 66.2937 176.771 66.3291L182.862 67.9014V76H146.763V67.9268L152.67 66.3516C152.911 66.2821 153.031 66.2143 153.075 66.1846C153.098 66.1697 153.107 66.1607 153.108 66.1592C153.109 66.1581 153.109 66.1577 153.11 66.1562C153.112 66.1543 153.12 66.1431 153.132 66.1172C153.144 66.0907 153.162 66.0443 153.182 65.9727C153.221 65.8267 153.263 65.5795 153.263 65.2002V47.1289L137.172 14.3633L137.143 14.3027L137.115 14.2412C136.57 13.0303 136.166 12.3815 135.939 12.0986L135.859 11.999L135.786 11.8936C135.84 11.9711 135.752 11.7958 135.171 11.5244L135.122 11.502L135.074 11.4775L131.062 9.47168V2L165.862 2V9.73633L161.741 11.3379C161.818 11.6141 161.94 11.9649 162.127 12.3965L170.397 30.7588L179.864 11.2539L179.874 11.2324L179.885 11.2109C179.915 11.15 179.941 11.0906 179.965 11.0332L176.562 9.81934V2L196.562 2V9.78906L192.046 11.4531C191.336 11.7146 191.167 11.9533 191.151 11.9766L191.108 12.0391L191.062 12.0996C190.673 12.6186 190.205 13.4 189.678 14.5127L189.675 14.5186L176.362 42.5029V65.2002Z" fill="#FFEDEB"/>
<path d="M131.221 2V10.0947L125.585 11.5557C125.487 11.9481 125.42 12.4536 125.42 13.0996V49.7002C125.42 55.1036 124.344 60.0312 122.059 64.3652L122.052 64.3789L122.044 64.3926C119.766 68.6337 116.544 71.9842 112.419 74.3643L112.368 74.3936C108.209 76.7129 103.449 77.7997 98.2207 77.7998C92.6771 77.7998 87.5933 76.8139 83.0557 74.7373L83.0439 74.7314L83.0322 74.7266C78.379 72.5604 74.7354 69.1335 72.1436 64.5781L72.124 64.543L72.1045 64.5068C69.5463 59.7902 68.4199 53.8969 68.4199 47.0996V12.5996C68.4199 12.3077 68.3829 12.1336 68.3555 12.0449C68.3304 11.964 68.3063 11.9297 68.291 11.9102C68.272 11.8858 68.0892 11.6588 67.3779 11.4346L62.3203 10.0557V2L98.0205 2V10.0459L92.1836 11.6562L92.125 11.6719L92.0654 11.6865C91.7857 11.7546 91.6446 11.8284 91.5908 11.8613C91.5461 11.8888 91.5493 11.8941 91.5605 11.8789C91.5934 11.8343 91.4199 12.0199 91.4199 12.7998V49.7002C91.4199 55.4343 92.6365 58.8976 94.3271 60.8613C95.9904 62.729 98.5105 63.9004 102.521 63.9004V67.9004L102.067 67.8955C97.4214 67.8067 93.8391 66.3417 91.3203 63.5C88.8015 60.5937 87.5025 56.1858 87.4238 50.2764L87.4199 49.7002V12.7998C87.42 10.0666 88.6536 8.39982 91.1201 7.7998L94.0205 7V6L66.3203 6V7L68.5205 7.59961C71.1203 8.39958 72.4198 10.0665 72.4199 12.5996V47.0996C72.4199 53.4994 73.4869 58.6663 75.6201 62.5996C77.8201 66.4663 80.854 69.2996 84.7207 71.0996C88.4083 72.7871 92.5937 73.6836 97.2773 73.7891L98.2207 73.7998C102.596 73.7998 106.443 72.9503 109.764 71.251L110.42 70.9004C113.887 68.9004 116.587 66.1 118.521 62.5C120.454 58.8334 121.42 54.5667 121.42 49.7002V13.0996C121.42 11.7664 121.621 10.5995 122.021 9.59961C122.421 8.59984 123.254 7.96682 124.521 7.70019L127.221 7V6H113.221V7L115.721 7.59961C117.054 7.93297 117.92 8.6336 118.32 9.70019C118.787 10.7002 119.021 11.8669 119.021 13.2002V49.9004C119.02 55.6335 117.52 60.0669 114.521 63.2002C111.587 66.3335 107.587 67.9003 102.521 67.9004V63.9004C106.698 63.9003 109.56 62.6453 111.601 60.4658L111.615 60.4502L111.631 60.4336C113.712 58.2595 115.02 54.9441 115.021 49.9004V13.2002C115.021 12.3943 114.889 11.8473 114.731 11.4756L109.221 10.1533V2L131.221 2Z" fill="#FFEDEB"/>
<path d="M5.50293 12.9004C5.50293 12.0964 5.36712 11.8125 5.3623 11.7998L5.375 11.8184L5.34766 11.7783C5.2543 11.7177 5.05072 11.6048 4.68164 11.4756L4.61719 11.4531L4.55273 11.4277L0.203125 9.73633L0.203125 2L32.9033 2C41.3487 2.00005 48.3791 3.52328 53.0635 7.42676C57.5478 11.0951 59.9033 15.945 59.9033 21.7002C59.9033 26.27 58.0697 30.3253 54.7998 33.7588L54.7988 33.7578C53.9496 34.6503 52.9783 35.4512 51.8984 36.1709C53.879 37.1102 55.6388 38.2454 57.1484 39.6006C61.3635 43.3198 63.6024 48.0596 63.6025 53.5996C63.6025 56.3306 63.0034 59.0274 61.8857 61.6621L61.8769 61.6826L61.8672 61.7031C60.6161 64.5628 58.5464 67.0238 55.8906 69.1328L55.8896 69.1318C53.1461 71.3628 49.5869 73.0192 45.4277 74.2383L45.3975 74.2471L45.3662 74.2559C41.0305 75.4519 35.7407 76 29.6025 76H0.203125L0.203125 68.2637L4.5166 66.5859C4.94932 66.4128 5.18742 66.2666 5.29687 66.1855C5.3032 66.1809 5.30836 66.1758 5.31348 66.1719L5.36719 66.0928C5.36699 66.0925 5.50293 65.844 5.50293 65.0996L5.50293 12.9004ZM40.1025 53.5C40.1025 48.5864 39.0014 46.1208 37.8154 44.9687C36.5836 43.7724 34.0257 42.7002 29.1025 42.7002H28.3027V66H29.3027C33.6302 66 36.0501 64.857 37.4297 63.3242L37.4482 63.3037L37.4668 63.2842C38.954 61.6764 40.1025 58.7018 40.1025 53.5ZM37.2031 22.7998C37.2031 17.7032 36.3005 15.0593 35.3701 13.8877C34.6023 12.9209 33.0697 12 29.7031 12H28.3027V32.7002H28.6025C32.5882 32.7002 34.4469 31.7601 35.2822 30.8672L35.3047 30.8428L35.3281 30.8184C36.2165 29.9004 37.2031 27.6385 37.2031 22.7998ZM44.0889 54.5449C43.9443 59.6815 42.7157 63.5 40.4033 66L40.1738 66.2461C37.7701 68.7486 34.1464 70 29.3027 70H24.3027L24.3027 38.7002H29.1025C34.4356 38.7002 38.2692 39.8332 40.6025 42.0996C42.9359 44.3663 44.1025 48.1667 44.1025 53.5L44.0889 54.5449ZM41.1914 23.7441C41.0743 28.3769 40.078 31.662 38.2031 33.5996C36.2698 35.6663 33.0692 36.7002 28.6025 36.7002H24.3027V8H29.7031C33.7697 8.00004 36.703 9.13376 38.5029 11.4004C40.3028 13.6671 41.2031 17.4668 41.2031 22.7998L41.1914 23.7441ZM9.50293 65.0996C9.50293 66.4328 9.23636 67.4998 8.70312 68.2998C8.23647 69.0998 7.33623 69.7665 6.00293 70.2998L4.20312 71V72H29.6025C35.1649 72 39.8194 71.5312 43.5654 70.5937L44.3027 70.4004C48.1694 69.2671 51.2033 67.8 53.4033 66C55.5282 64.3125 57.0674 62.4785 58.0205 60.498L58.2031 60.0996C59.1363 57.8997 59.6025 55.7328 59.6025 53.5996C59.6024 49.2664 57.9028 45.5995 54.5029 42.5996C51.103 39.5331 45.7363 37.5998 38.4033 36.7998C44.8031 35.6665 49.3034 33.7333 51.9033 31C54.4866 28.2875 55.8188 25.2932 55.8994 22.0176L55.9033 21.7002C55.9033 17.3085 54.2135 13.6675 50.835 10.7773L50.5029 10.5C46.903 7.50005 41.0364 6.00005 32.9033 6L4.20312 6V7L6.00293 7.70019C7.33611 8.16682 8.23643 8.79972 8.70312 9.59961C9.23646 10.3996 9.50293 11.5004 9.50293 12.9004L9.50293 65.0996Z" fill="#FFEDEB"/>
</svg>
