<svg width="20" height="21" viewBox="0 0 20 21" fill="none" xmlns="http://www.w3.org/2000/svg">
<path d="M6.66667 8.00065H13.3333M6.66667 11.334H11.6667M15 3.83398C15.663 3.83398 16.2989 4.09738 16.7678 4.56622C17.2366 5.03506 17.5 5.67094 17.5 6.33398V13.0007C17.5 13.6637 17.2366 14.2996 16.7678 14.7684C16.2989 15.2373 15.663 15.5007 15 15.5007H10.8333L6.66667 18.0007V15.5007H5C4.33696 15.5007 3.70107 15.2373 3.23223 14.7684C2.76339 14.2996 2.5 13.6637 2.5 13.0007V6.33398C2.5 5.67094 2.76339 5.03506 3.23223 4.56622C3.70107 4.09738 4.33696 3.83398 5 3.83398H15Z" stroke="#3C3C3C" stroke-width="1.7" stroke-linecap="round" stroke-linejoin="round"/>
</svg>
