<svg width="20" height="21" viewBox="0 0 20 21" fill="none" xmlns="http://www.w3.org/2000/svg">
<path d="M10.0026 8C10.6656 8 11.3015 8.26339 11.7704 8.73223C12.2392 9.20107 12.5026 9.83696 12.5026 10.5C12.5026 11.163 12.2392 11.7989 11.7704 12.2678C11.3015 12.7366 10.6656 13 10.0026 13C9.33956 13 8.70368 12.7366 8.23484 12.2678C7.766 11.7989 7.5026 11.163 7.5026 10.5C7.5026 9.83696 7.766 9.20107 8.23484 8.73223C8.70368 8.26339 9.33956 8 10.0026 8ZM10.0026 4.25C14.1693 4.25 17.7276 6.84167 19.1693 10.5C17.7276 14.1583 14.1693 16.75 10.0026 16.75C5.83594 16.75 2.2776 14.1583 0.835938 10.5C2.2776 6.84167 5.83594 4.25 10.0026 4.25ZM2.6526 10.5C3.32615 11.8753 4.37203 13.034 5.67134 13.8444C6.97065 14.6548 8.47127 15.0844 10.0026 15.0844C11.5339 15.0844 13.0346 14.6548 14.3339 13.8444C15.6332 13.034 16.6791 11.8753 17.3526 10.5C16.6791 9.12474 15.6332 7.96604 14.3339 7.15562C13.0346 6.3452 11.5339 5.91557 10.0026 5.91557C8.47127 5.91557 6.97065 6.3452 5.67134 7.15562C4.37203 7.96604 3.32615 9.12474 2.6526 10.5Z" fill="#3C3C3C"/>
</svg>
