<svg width="24" height="24" viewBox="0 0 24 24" fill="none" xmlns="http://www.w3.org/2000/svg">
<g clip-path="url(#clip0_2025_4663)">
<path d="M8.094 26.4C8.094 26.7314 8.36263 27 8.694 27H13.494C13.8254 27 14.094 26.7314 14.094 26.4V14.085C14.094 13.7536 14.3626 13.485 14.694 13.485H18.9567C19.2651 13.485 19.5233 13.2513 19.5538 12.9444L20.0284 8.17441C20.0635 7.82129 19.7862 7.515 19.4313 7.515H14.694C14.3626 7.515 14.094 7.24637 14.094 6.915V4.5C14.094 4.10218 14.252 3.72064 14.5333 3.43934C14.8146 3.15804 15.1962 3 15.594 3H19.494C19.8254 3 20.094 2.73137 20.094 2.4V-2.4C20.094 -2.73137 19.8254 -3 19.494 -3H15.594C13.6049 -3 11.6972 -2.20982 10.2907 -0.803301C8.88418 0.603222 8.094 2.51088 8.094 4.5V6.915C8.094 7.24637 7.82537 7.515 7.494 7.515H5.63726C5.3289 7.515 5.07074 7.74874 5.04021 8.0556L4.56561 12.8256C4.53048 13.1787 4.80781 13.485 5.16266 13.485H7.494C7.82537 13.485 8.094 13.7536 8.094 14.085V26.4Z" fill="#B36A66"/>
</g>
<defs>
<clipPath id="clip0_2025_4663">
<rect width="24" height="24" fill="white"/>
</clipPath>
</defs>
</svg>
