<svg width="23" height="20" viewBox="0 0 23 20" fill="none" xmlns="http://www.w3.org/2000/svg">
<path d="M20.7811 9.43916L13.0301 3.0898C12.8946 2.97884 12.722 2.90327 12.5341 2.87266C12.3462 2.84205 12.1514 2.85777 11.9744 2.91783C11.7974 2.97788 11.6461 3.07958 11.5396 3.21007C11.4331 3.34056 11.3763 3.49397 11.3762 3.65092V6.46448C8.72956 6.66512 6.26953 7.66757 4.47756 9.27568C2.68559 10.8838 1.69067 12.9818 1.6875 15.1591V16.3496C1.68765 16.5144 1.75039 16.675 1.86701 16.8092C1.98363 16.9435 2.14834 17.0446 2.33832 17.0987C2.52829 17.1528 2.7341 17.1571 2.9272 17.1111C3.12031 17.065 3.29113 16.9709 3.41597 16.8417C4.36532 15.9172 5.53 15.1568 6.84201 14.6051C8.15402 14.0533 9.58707 13.7212 11.0575 13.6281C11.1059 13.6234 11.227 13.6154 11.3762 13.6075V16.3496C11.3763 16.5066 11.4331 16.66 11.5396 16.7905C11.6461 16.921 11.7974 17.0227 11.9744 17.0827C12.1514 17.1428 12.3462 17.1585 12.5341 17.1279C12.722 17.0973 12.8946 17.0217 13.0301 16.9108L20.7811 10.5614C20.9628 10.4126 21.0648 10.2107 21.0648 10.0003C21.0648 9.78983 20.9628 9.58799 20.7811 9.43916ZM13.314 14.4337V12.7781C13.314 12.5676 13.2119 12.3658 13.0302 12.2169C12.8485 12.0681 12.6021 11.9845 12.3451 11.9845C12.0981 11.9845 11.0895 12.0241 10.8317 12.0519C8.22042 12.2488 5.73476 13.0615 3.67563 14.3917C3.90937 12.6412 4.9231 11.0228 6.52272 9.84643C8.12235 8.67007 10.1955 8.01836 12.3451 8.01611C12.6021 8.01611 12.8485 7.93249 13.0302 7.78364C13.2119 7.6348 13.314 7.43293 13.314 7.22244V5.56684L18.7261 10.0003L13.314 14.4337Z" fill="#3C3C3C"/>
</svg>
