<svg width="285" height="80" viewBox="0 0 285 80" fill="none" xmlns="http://www.w3.org/2000/svg">
<path d="M224.305 80.0008V78.8008L227.065 77.7208C228.425 77.1608 229.345 76.4408 229.825 75.5608C230.385 74.6008 230.665 73.3208 230.665 71.7208V9.08078C230.665 7.48078 230.425 6.24078 229.945 5.36078C229.545 4.40078 228.585 3.64078 227.065 3.08078L224.305 2.00078V0.800781L281.785 0.800781L282.505 19.2808H281.305L276.145 8.00078C275.425 6.56078 274.665 5.40078 273.865 4.52078C273.065 3.64078 271.865 3.20078 270.265 3.20078L248.665 3.20078V37.8808H261.505C263.105 37.8808 264.305 37.4808 265.105 36.6808C265.985 35.8008 266.745 34.6408 267.385 33.2008L269.785 28.4008H270.985V50.0008H269.785L267.385 44.9608C266.665 43.5208 265.905 42.4008 265.105 41.6008C264.305 40.7208 263.105 40.2808 261.505 40.2808H248.665V77.6008H272.905C274.505 77.6008 275.745 77.2008 276.625 76.4008C277.505 75.5208 278.225 74.3208 278.785 72.8008L283.705 61.5208H284.905L284.185 80.0008H224.305Z" fill="#5E5E5E" fill-opacity="0.4" style="mix-blend-mode:plus-lighter"/>
<path d="M151.742 80.0008V78.8008L154.502 77.7208C155.862 77.1608 156.782 76.4408 157.262 75.5608C157.822 74.6008 158.102 73.3208 158.102 71.7208V9.08078C158.102 7.48078 157.862 6.24078 157.382 5.36078C156.982 4.40078 156.022 3.64078 154.502 3.08078L151.742 2.00078V0.800781L209.222 0.800781L209.942 19.2808H208.742L203.582 8.00078C202.862 6.56078 202.102 5.40078 201.302 4.52078C200.502 3.64078 199.302 3.20078 197.702 3.20078L176.102 3.20078V37.8808H188.942C190.542 37.8808 191.742 37.4808 192.542 36.6808C193.422 35.8008 194.182 34.6408 194.822 33.2008L197.222 28.4008H198.422V50.0008H197.222L194.822 44.9608C194.102 43.5208 193.342 42.4008 192.542 41.6008C191.742 40.7208 190.542 40.2808 188.942 40.2808H176.102V77.6008H200.342C201.942 77.6008 203.182 77.2008 204.062 76.4008C204.942 75.5208 205.662 74.3208 206.222 72.8008L211.142 61.5208H212.342L211.622 80.0008H151.742Z" fill="#5E5E5E" fill-opacity="0.4" style="mix-blend-mode:plus-lighter"/>
<path d="M70.3906 80.0008V78.8008L72.9106 77.9608C74.5106 77.4008 75.5506 76.6808 76.0306 75.8008C76.5106 74.8408 76.7506 73.5208 76.7506 71.8408V9.08078C76.7506 7.48078 76.5106 6.24078 76.0306 5.36078C75.6306 4.40078 74.6706 3.64078 73.1506 3.08078L70.3906 2.00078V0.800781L104.711 0.800781C114.151 0.800781 121.391 2.60078 126.431 6.20078C131.471 9.72078 133.991 14.6408 133.991 20.9608C133.991 24.4808 132.671 28.0008 130.031 31.5208C127.391 35.0408 123.231 37.7608 117.551 39.6808L134.231 72.8008C134.951 74.1608 135.751 75.2808 136.631 76.1608C137.591 76.9608 138.831 77.6808 140.351 78.3208L141.911 78.9208V80.0008H120.431L102.671 42.2008H94.5106V71.8408C94.5106 73.3608 94.7506 74.6008 95.2306 75.5608C95.7106 76.5208 96.7106 77.2408 98.2306 77.7208L101.111 78.8008V80.0008H70.3906ZM94.5106 39.8008H100.271C106.031 39.8008 110.191 38.2808 112.751 35.2408C115.311 32.1208 116.591 27.5208 116.591 21.4408C116.591 15.2808 115.391 10.7208 112.991 7.76078C110.591 4.72078 106.551 3.20078 100.871 3.20078H94.5106V39.8008Z" fill="#5E5E5E" fill-opacity="0.4" style="mix-blend-mode:plus-lighter"/>
<path d="M0.640625 80.0008L0.640625 78.8008L2.80062 78.0808C4.40062 77.5208 5.48062 76.7608 6.04062 75.8008C6.60062 74.8408 6.88062 73.5608 6.88062 71.9608C6.96062 67.1608 7.00062 62.3208 7.00062 57.4408C7.00062 52.5608 7.00062 47.6808 7.00062 42.8008V38.0008C7.00062 33.2008 7.00062 28.4008 7.00062 23.6008C7.00062 18.7208 6.96062 13.8808 6.88062 9.08078C6.88062 7.48078 6.64062 6.20078 6.16063 5.24078C5.76062 4.28078 4.80062 3.52078 3.28062 2.96078L0.640625 2.00078V0.800781L58.7206 0.800781L59.5606 20.7208H58.3606L51.5206 8.12078C50.7206 6.60078 49.8006 5.40078 48.7606 4.52078C47.7206 3.64078 46.2806 3.20078 44.4406 3.20078L25.1206 3.20078C25.0406 8.88078 25.0006 14.6808 25.0006 20.6008C25.0006 26.5208 25.0006 32.4008 25.0006 38.2408H37.4806C39.3206 38.2408 40.6806 37.8408 41.5606 37.0408C42.4406 36.2408 43.2806 35.0808 44.0806 33.5608L46.6006 29.0008H47.8006V50.0008H46.6006L43.9606 45.4408C43.1606 44.0008 42.3206 42.8408 41.4406 41.9608C40.6406 41.0808 39.3206 40.6408 37.4806 40.6408H25.0006C25.0006 46.2408 25.0006 51.6008 25.0006 56.7208C25.0006 61.7608 25.0406 66.7208 25.1206 71.6008C25.1206 74.7208 26.6406 76.7608 29.6806 77.7208L33.2806 78.8008V80.0008H0.640625Z" fill="#5E5E5E" fill-opacity="0.4" style="mix-blend-mode:plus-lighter"/>
</svg>
