<svg width="294" height="88" viewBox="0 0 294 88" fill="none" xmlns="http://www.w3.org/2000/svg">
<path d="M230.665 13.0811C230.665 12.4721 230.618 12.0246 230.558 11.7109C230.498 11.4008 230.435 11.2794 230.434 11.2764L230.365 11.1523C230.256 11.0824 230.044 10.9671 229.683 10.834L229.645 10.8203L229.607 10.8057L224.305 8.73144V0.800781L289.632 0.800781L290.664 27.2812H282.736L276.546 13.748C275.968 12.5999 275.428 11.806 274.963 11.2783C274.877 11.2512 274.662 11.2012 274.265 11.2012L256.665 11.2012V37.8809H265.505C265.982 37.8809 266.238 37.8197 266.339 37.7861C266.776 37.3296 267.261 36.6306 267.729 35.5762L267.767 35.4932L267.808 35.4121L271.312 28.4014H278.985V58.001H271.26L267.793 50.7217C267.197 49.5344 266.67 48.8238 266.276 48.4297L266.209 48.3623L266.207 48.3594C266.124 48.3325 265.909 48.2812 265.505 48.2812H256.665V77.6006H276.905C277.379 77.6006 277.662 77.5408 277.807 77.4941C277.854 77.4787 277.886 77.4624 277.907 77.4521C278.251 77.0686 278.655 76.4386 279.031 75.418L279.072 75.3086L279.118 75.2021L285.086 61.5205H293.063L292.032 88.001H224.305V80.0713L229.556 78.0156C229.972 77.8431 230.201 77.6961 230.31 77.6113C230.33 77.5953 230.343 77.5804 230.354 77.5713L230.37 77.5459C230.45 77.4089 230.665 76.9055 230.665 75.7207V13.0811ZM234.665 75.7207C234.665 77.3205 234.385 78.6006 233.825 79.5605L233.729 79.7236C233.228 80.5299 232.34 81.1957 231.065 81.7207L228.305 82.8008V84.001H288.185L288.905 65.5205H287.705L282.785 76.8008L282.567 77.3564C282.042 78.6162 281.395 79.6315 280.625 80.4014C279.745 81.2012 278.505 81.6005 276.905 81.6006H252.665V44.2812H265.505C267.105 44.2812 268.305 44.7206 269.105 45.6006C269.905 46.4006 270.665 47.521 271.385 48.9609L273.785 54.001H274.985V32.4014H273.785L271.385 37.2012C270.745 38.6408 269.985 39.8008 269.105 40.6807L268.95 40.8262C268.153 41.5293 267.005 41.8809 265.505 41.8809H252.665V7.20117H274.265C275.865 7.20117 277.065 7.64061 277.865 8.52051C278.665 9.40051 279.426 10.561 280.146 12.001L285.305 23.2812H286.505L285.785 4.80078L228.305 4.80078V6.00098L231.065 7.08105C232.585 7.64104 233.545 8.40141 233.945 9.36133C234.425 10.2413 234.665 11.4813 234.665 13.0811V75.7207Z" fill="#FFEDEB"/>
<path d="M158.103 13.0811C158.103 12.4721 158.056 12.0246 157.995 11.7109C157.935 11.4008 157.873 11.2794 157.871 11.2764L157.803 11.1523C157.693 11.0824 157.481 10.9671 157.12 10.834L157.082 10.8203L157.045 10.8057L151.742 8.73144V0.800781L217.069 0.800781L218.102 27.2812H210.174L203.983 13.748C203.406 12.5999 202.866 11.806 202.4 11.2783C202.314 11.2512 202.099 11.2012 201.702 11.2012L184.103 11.2012V37.8809H192.942C193.419 37.8809 193.675 37.8197 193.776 37.7861C194.214 37.3296 194.698 36.6306 195.167 35.5762L195.204 35.4932L195.245 35.4121L198.75 28.4014H206.423V58.001H198.697L195.23 50.7217C194.634 49.5344 194.108 48.8238 193.714 48.4297L193.646 48.3623L193.645 48.3594C193.561 48.3325 193.346 48.2812 192.942 48.2812H184.103V77.6006H204.343C204.817 77.6006 205.099 77.5408 205.244 77.4941C205.292 77.4787 205.324 77.4624 205.345 77.4521C205.689 77.0686 206.093 76.4386 206.469 75.418L206.51 75.3086L206.556 75.2021L212.523 61.5205H220.501L219.47 88.001H151.742V80.0713L156.993 78.0156C157.409 77.8431 157.639 77.6961 157.747 77.6113C157.768 77.5953 157.781 77.5804 157.791 77.5713L157.808 77.5459C157.888 77.4089 158.103 76.9055 158.103 75.7207V13.0811ZM162.103 75.7207C162.103 77.3205 161.823 78.6006 161.263 79.5605L161.167 79.7236C160.666 80.5299 159.778 81.1957 158.503 81.7207L155.742 82.8008V84.001H215.622L216.343 65.5205H215.143L210.223 76.8008L210.005 77.3564C209.48 78.6162 208.832 79.6315 208.062 80.4014C207.183 81.2012 205.943 81.6005 204.343 81.6006H180.103V44.2812H192.942C194.542 44.2812 195.743 44.7206 196.543 45.6006C197.343 46.4006 198.102 47.521 198.822 48.9609L201.223 54.001H202.423V32.4014H201.223L198.822 37.2012C198.182 38.6408 197.423 39.8008 196.543 40.6807L196.388 40.8262C195.591 41.5293 194.442 41.8809 192.942 41.8809H180.103V7.20117H201.702C203.302 7.20117 204.503 7.64061 205.303 8.52051C206.103 9.40051 206.863 10.561 207.583 12.001L212.742 23.2812H213.942L213.223 4.80078L155.742 4.80078V6.00098L158.503 7.08105C160.023 7.64104 160.983 8.40141 161.383 9.36133C161.863 10.2413 162.103 11.4813 162.103 13.0811V75.7207Z" fill="#FFEDEB"/>
<path d="M116.591 25.4414C116.591 19.6724 115.444 16.205 113.884 14.2803L113.867 14.2598L113.852 14.2393C112.514 12.5447 109.919 11.2012 104.871 11.2012H102.511V39.8008H104.271C109.38 39.8008 112.165 38.462 113.676 36.6807C115.406 34.5575 116.591 31.026 116.591 25.4414ZM109.111 88.001H70.3906V79.918L75.6035 78.1797C76.0882 78.0091 76.3835 77.8559 76.5469 77.7539C76.6408 77.4309 76.751 76.8331 76.751 75.8408V13.0811C76.751 12.4721 76.7043 12.0246 76.6436 11.7109C76.5835 11.4008 76.5211 11.2794 76.5195 11.2764L76.4512 11.1523C76.3419 11.0824 76.1298 10.9671 75.7686 10.834L75.7305 10.8203L75.6934 10.8057L70.3906 8.73144V0.800781L108.711 0.800781C118.555 0.800781 126.734 2.66116 132.721 6.92187C138.867 11.2148 141.991 17.378 141.991 24.9609C141.991 29.5428 140.259 33.8843 137.231 37.9209C134.75 41.2299 131.3 43.8112 127.084 45.7764L141.774 74.9443C142.301 75.9364 142.829 76.6667 143.329 77.1963C143.897 77.6423 144.715 78.1298 145.862 78.6162L149.911 80.1738V88.001H121.891L104.131 50.2012H102.511V75.8408C102.511 76.7747 102.637 77.3244 102.743 77.6152C102.817 77.6598 102.94 77.726 103.13 77.7998L103.436 77.9062L103.536 77.9385L103.636 77.9756L109.111 80.0293V88.001ZM120.587 26.0068C120.509 31.8071 119.231 36.2187 116.751 39.2412C114.191 42.2811 110.03 43.8008 104.271 43.8008H98.5107V7.20117H104.871C110.551 7.20119 114.591 8.72078 116.991 11.7607C119.391 14.7207 120.591 19.2814 120.591 25.4414L120.587 26.0068ZM80.751 75.8408C80.751 77.5207 80.5112 78.8408 80.0312 79.8008C79.5513 80.6807 78.511 81.4009 76.9111 81.9609L74.3906 82.8008V84.001H105.111V82.8008L102.231 81.7207C100.807 81.2707 99.8381 80.6101 99.3271 79.7383L99.2314 79.5605C98.7515 78.6006 98.5107 77.3607 98.5107 75.8408V46.2012H106.671L124.431 84.001H145.911V82.9209L144.351 82.3213C142.831 81.6813 141.591 80.9611 140.631 80.1611C139.751 79.2811 138.951 78.1608 138.231 76.8008L121.551 43.6807C127.053 41.8206 131.13 39.2103 133.779 35.8486L134.031 35.5205C136.589 32.1107 137.907 28.7009 137.987 25.291L137.991 24.9609C137.991 18.8386 135.626 14.0299 130.896 10.5352L130.431 10.2012C125.391 6.60123 118.151 4.80078 108.711 4.80078L74.3906 4.80078V6.00098L77.1514 7.08105C78.6712 7.64104 79.6313 8.40141 80.0312 9.36133C80.5111 10.2413 80.751 11.4813 80.751 13.0811V75.8408Z" fill="#FFEDEB"/>
<path d="M29.001 24.6006C29.001 18.6808 29.0411 12.881 29.1211 7.20117H48.4414C50.281 7.20124 51.7208 7.64078 52.7607 8.52051C53.8007 9.40049 54.7205 10.6011 55.5205 12.1211L62.3613 24.7207H63.5605L62.7207 4.80078L4.64062 4.80078V6.00098L7.28125 6.96094C8.80112 7.52093 9.76115 8.28126 10.1611 9.24121L10.248 9.4248C10.6699 10.3623 10.8809 11.5811 10.8809 13.0811C10.9609 17.8809 11.001 22.7207 11.001 27.6006V61.4414L10.9932 65.0937C10.9782 68.7386 10.9409 72.361 10.8809 75.9609C10.8809 77.5608 10.601 78.8408 10.041 79.8008L9.92969 79.9785C9.34375 80.8551 8.30078 81.5561 6.80078 82.081L4.64062 82.8008V84.001H37.2812V82.8008L33.6807 81.7207C30.736 80.7907 29.2171 78.8474 29.125 75.8906L29.1211 75.6006C29.0411 70.7207 29.001 65.7606 29.001 60.7207L29.001 44.6406H41.4814C43.3212 44.6407 44.6415 45.081 45.4414 45.9609L45.7695 46.3037C46.5308 47.135 47.2609 48.1814 47.9609 49.4414L50.6006 54.001H51.8008V33.001H50.6006L48.0811 37.5605C47.2811 39.0805 46.4405 40.241 45.5605 41.041L45.3906 41.1865C44.5095 41.8896 43.2062 42.2411 41.4814 42.2412H29.001V24.6006ZM33.001 38.2412H41.4814C42.1259 38.2412 42.5287 38.1691 42.752 38.1035C42.8301 38.0805 42.8781 38.0596 42.9033 38.0478C43.3192 37.659 43.8883 36.9383 44.541 35.6982L44.5801 35.626L48.2412 29.001H55.8008V58.001H48.2949L44.499 51.4453L44.4814 51.4141L44.4639 51.3838C43.7898 50.1705 43.1604 49.3371 42.6123 48.7891L42.5898 48.7666C42.5886 48.7662 42.5872 48.766 42.5859 48.7656C42.4412 48.7174 42.1012 48.6407 41.4814 48.6406H33.001V60.7207C33.001 65.7395 33.0405 70.6778 33.1201 75.5352L33.1211 75.5684V75.6006C33.1211 76.4984 33.3307 76.8957 33.4687 77.0811C33.6126 77.2741 33.9639 77.6145 34.8877 77.9062L41.2812 79.8252V88.001H0.640625L0.640625 79.918L5.49316 78.2998C6.0294 78.111 6.3436 77.9356 6.50879 77.8193C6.56026 77.7831 6.59125 77.7547 6.60937 77.7383C6.70172 77.551 6.88086 77.0382 6.88086 75.9609V75.9277L6.88184 75.8945C6.96146 71.1172 7.00097 66.2994 7.00098 61.4414L7.00098 27.6006C7.00097 22.7426 6.96146 17.9248 6.88184 13.1475L6.88086 13.1143V13.0811C6.88086 11.8326 6.68536 11.2392 6.58496 11.0352C6.47684 10.9655 6.2642 10.8486 5.89844 10.7139L0.640625 8.80273L0.640625 0.800781L66.5557 0.800781L67.7334 28.7207H59.9814L52.0059 14.0293L51.9932 14.0068L51.9814 13.9844C51.3607 12.8049 50.737 12.0483 50.1768 11.5742C50.0772 11.4901 49.6663 11.2012 48.4414 11.2012L33.0723 11.2012C33.0251 15.5962 33.001 20.0627 33.001 24.6006V38.2412Z" fill="#FFEDEB"/>
</svg>
