<svg width="20" height="21" viewBox="0 0 20 21" fill="none" xmlns="http://www.w3.org/2000/svg">
<path d="M10.0807 15.9583L9.9974 16.0417L9.90573 15.9583C5.9474 12.3667 3.33073 9.99167 3.33073 7.58333C3.33073 5.91667 4.58073 4.66667 6.2474 4.66667C7.53073 4.66667 8.78073 5.5 9.2224 6.63333H10.7724C11.2141 5.5 12.4641 4.66667 13.7474 4.66667C15.4141 4.66667 16.6641 5.91667 16.6641 7.58333C16.6641 9.99167 14.0474 12.3667 10.0807 15.9583ZM13.7474 3C12.2974 3 10.9057 3.675 9.9974 4.73333C9.08906 3.675 7.6974 3 6.2474 3C3.68073 3 1.66406 5.00833 1.66406 7.58333C1.66406 10.725 4.4974 13.3 8.78906 17.1917L9.9974 18.2917L11.2057 17.1917C15.4974 13.3 18.3307 10.725 18.3307 7.58333C18.3307 5.00833 16.3141 3 13.7474 3Z" fill="#FF3B30"/>
</svg>
