<svg width="1440" height="878" viewBox="0 0 1440 878" fill="none" xmlns="http://www.w3.org/2000/svg">
<g clip-path="url(#clip0_2646_4773)">
<path d="M1440 0H0V1017.49H1440V0Z" fill="#1F5684"/>
<path d="M333.385 451C318.177 440.855 304.459 427.971 292.454 413.418C280.436 398.854 270.088 382.642 261.287 365.493C252.488 348.345 245.204 330.301 238.99 311.911C232.772 293.511 227.607 274.759 222.961 255.961L242.228 251.438C245.189 270.216 248.632 288.835 253.102 307.145C257.571 325.448 263.074 343.447 270.125 360.782C277.167 378.094 285.806 394.743 296.284 410.073C306.754 425.393 319.107 439.391 333.385 451Z" fill="#00A3E5"/>
<path d="M233.194 234.851C231.143 229.23 229.526 223.412 228.105 217.536C226.687 211.655 225.528 205.686 224.609 199.656C222.748 187.595 221.927 175.285 222.091 162.882C222.221 156.683 222.609 150.466 223.257 144.246C223.991 138.043 224.903 131.825 226.215 125.668C228.772 113.34 232.677 101.224 237.725 89.5742L254.925 99.96C249.159 109.371 244.211 119.508 240.379 130.247C238.43 135.606 236.827 141.127 235.365 146.722C233.986 152.34 232.832 158.049 231.911 163.833C230.165 175.41 229.319 187.262 229.517 199.174C229.607 205.129 229.934 211.102 230.529 217.059C231.13 223.018 231.931 228.975 233.194 234.851Z" fill="#00A3E5"/>
<path d="M253.055 241.797C258.113 231.181 264.081 221.03 270.556 211.228C277.056 201.437 284.171 192.036 292.009 183.225C299.839 174.412 308.399 166.171 317.837 158.905C322.522 155.22 327.519 151.932 332.656 148.822C337.815 145.738 343.244 143.088 348.826 140.693L354.605 160.996C349.682 162.249 344.743 163.734 339.895 165.688C335.064 167.671 330.232 169.848 325.563 172.484C316.171 177.64 307.161 183.976 298.618 191.101C290.064 198.224 281.969 206.141 274.344 214.624C266.74 223.123 259.507 232.117 253.055 241.797Z" fill="#00A3E5"/>
<path d="M218.123 244.195C213.023 234.135 207.361 224.455 201.379 215.076C195.378 205.713 188.995 196.679 182.137 188.223C175.283 179.784 167.965 171.855 160.067 165.156C152.24 158.397 143.673 153.016 135.133 150.128L142.543 130.449C148.094 133.393 153.08 136.985 157.646 140.889C162.228 144.785 166.345 149.055 170.151 153.506C177.8 162.387 184.237 172.007 190.052 181.893C195.854 191.79 200.98 202.011 205.642 212.412C210.281 222.822 214.518 233.4 218.123 244.195Z" fill="#00A3E5"/>
<path d="M213.651 259.734C203.693 261.642 193.874 264.163 184.179 267.017C174.487 269.891 164.94 273.198 155.589 276.896C146.227 280.571 137.15 284.89 128.355 289.542C119.583 294.265 111.289 299.696 103.505 305.543L93.375 287.323C103.062 282.316 112.877 278.097 122.844 274.763C132.827 271.504 142.841 268.728 152.937 266.669C163.026 264.586 173.137 262.962 183.264 261.799C193.39 260.659 203.531 259.88 213.651 259.734Z" fill="#00A3E5"/>
<path d="M266.438 254.592C276.632 251.722 287.064 249.703 297.594 248.218C308.13 246.74 318.798 245.952 329.569 245.928C334.954 245.951 340.365 246.179 345.795 246.637C351.222 247.14 356.663 247.904 362.112 248.95C367.551 250.06 372.986 251.493 378.392 253.293C383.777 255.181 389.116 257.463 394.348 260.221L384.305 278.496C380.449 275.587 376.325 272.936 371.989 270.548C367.613 268.238 363.055 266.172 358.354 264.354C353.631 262.599 348.789 261.057 343.855 259.742C338.91 258.473 333.888 257.398 328.808 256.513C318.642 254.812 308.274 253.818 297.844 253.519C287.414 253.228 276.91 253.466 266.438 254.592Z" fill="#00A3E5"/>
<path d="M210.373 275.82C206.126 279.762 202.156 283.989 198.372 288.333C194.608 292.698 191.032 297.191 187.818 301.875C184.634 306.571 181.714 311.377 179.39 316.293C177.122 321.22 175.42 326.209 174.6 330.902L156.102 323.546C159.304 317.073 163.254 311.692 167.445 306.902C171.686 302.169 176.239 298.095 180.885 294.325C185.553 290.584 190.398 287.261 195.308 284.172C200.235 281.113 205.237 278.272 210.373 275.82Z" fill="#E4F3FC"/>
<path d="M253.945 261.93C259.656 264.36 265.223 267.253 270.707 270.409C276.167 273.608 281.579 277.046 286.744 281.058C291.896 285.085 296.971 289.443 301.593 294.699C306.175 299.984 310.445 306.032 313.643 313.406L294.873 319.919C294.127 314.873 292.281 309.478 289.716 304.19C287.122 298.892 283.715 293.799 280.041 288.845C276.346 283.886 272.172 279.228 267.82 274.713C263.436 270.228 258.842 265.896 253.945 261.93Z" fill="#E4F3FC"/>
<path d="M260.242 181.317C261.821 171.168 264.012 161.101 266.596 151.114C269.219 141.138 272.247 131.224 275.96 121.494C279.655 111.758 283.978 102.168 289.379 92.9711C294.764 83.7843 301.307 74.9536 309.781 67.4199L321.023 84.8673C313.934 89.1716 307.204 95.3691 301.19 102.558C295.137 109.731 289.689 117.82 284.739 126.325C279.763 134.826 275.312 143.792 271.211 152.981C267.144 162.184 263.409 171.621 260.242 181.317Z" fill="#E4F3FC"/>
<path d="M307.805 229.744C313.736 223.46 320.408 217.891 327.483 212.917C334.561 207.925 342.143 203.649 350.104 200.088C354.054 198.188 358.195 196.826 362.331 195.292L368.675 193.48C369.739 193.196 370.798 192.848 371.877 192.618L375.127 191.976C383.802 189.975 392.773 189.614 401.833 189.653L399.362 210.72C391.971 209.126 384.327 207.7 376.538 207.829L373.607 207.767C372.629 207.76 371.658 207.873 370.68 207.919L364.784 208.298C360.884 208.878 356.902 209.278 353.004 210.235C345.159 211.906 337.339 214.347 329.758 217.627C322.174 220.894 314.758 224.847 307.805 229.744Z" fill="#E4F3FC"/>
<path d="M200.183 181.348C197.747 173.494 195.018 165.768 192.145 158.138C189.245 150.519 186.215 142.985 182.885 135.661C179.54 128.352 176.065 121.154 172.178 114.379C168.29 107.632 164.105 101.191 159.539 95.707L175.581 83.3594C179.798 91.3864 182.882 99.4967 185.565 107.615C188.223 115.739 190.281 123.919 192.168 132.087C194.032 140.259 195.537 148.469 196.884 156.676C198.202 164.887 199.351 173.109 200.183 181.348Z" fill="#E4F3FC"/>
<path d="M156.914 231.597C148.75 227.914 140.321 225.126 131.822 222.919C123.326 220.702 114.716 219.219 106.144 218.366C101.868 217.847 97.5681 217.772 93.3149 217.579C91.1822 217.567 89.0525 217.647 86.9334 217.675L83.7617 217.742L80.6006 218.015C78.4982 218.208 76.4034 218.348 74.3208 218.577L68.1199 219.565C67.093 219.74 66.0615 219.866 65.0437 220.076L62.0085 220.81L55.9805 222.252L52.8906 201.28L59.9941 201.02L63.5238 200.902C64.6994 200.899 65.8764 200.984 67.049 201.022L74.0599 201.327C76.3852 201.538 78.6984 201.84 81.004 202.097L84.4549 202.5L87.8754 203.114C90.1507 203.542 92.423 203.92 94.674 204.39C99.1548 205.501 103.622 206.499 107.981 207.936C116.728 210.627 125.236 213.926 133.414 217.897C141.592 221.852 149.514 226.346 156.914 231.597Z" fill="#E4F3FC"/>
<path d="M345.87 301.275L348.683 310.144L357.064 312.674L350.102 318.296L350.455 327.661L343.338 322.267L335.177 325.525L337.741 316.568L332.344 309.217L341.044 309.075L345.87 301.275Z" fill="#E4F3FC"/>
<path d="M384.899 159.838L386.96 166.333L393.096 168.187L387.998 172.303L388.257 179.162L383.045 175.212L377.069 177.597L378.945 171.039L374.992 165.655L381.366 165.55L384.899 159.838Z" fill="#E4F3FC"/>
<path d="M310.766 110.438L315.56 114.959L321.738 113.268L319.226 119.577L322.627 125.381L316.28 124.758L312.204 130.035L310.794 123.342L304.875 120.799L310.349 117.285L310.766 110.438Z" fill="#E4F3FC"/>
<path d="M74.2184 294.158L75.5138 300.878L81.3886 303.538L75.8551 306.942L75.3212 313.78L70.6053 309.165L64.3998 310.732L67.0194 304.475L63.7188 298.603L70.0531 299.353L74.2184 294.158Z" fill="#E4F3FC"/>
<path d="M61.2924 246.955L68.5263 252.164L76.6126 248.701L74.2479 257.72L79.8056 264.932L71.1095 265.296L66.4573 273.217L63.4493 264.422L55.0156 262.106L61.8521 256.307L61.2924 246.955Z" fill="#E4F3FC"/>
<path d="M348.139 91.3066L355.145 96.8671L363.37 93.8059L360.624 102.699L365.869 110.177L357.167 110.111L352.184 117.795L349.553 108.863L341.227 106.134L348.303 100.678L348.139 91.3066Z" fill="#00A3E5" stroke="#00A3E5" stroke-miterlimit="10"/>
<path d="M102.46 156.268L105.293 161.588L110.971 162.091L107.147 166.637L108.458 172.607L103.261 170.097L98.3932 173.282L99.006 167.184L94.6875 163.184L100.262 161.926L102.46 156.268Z" fill="#00A3E5" stroke="#00A3E5" stroke-miterlimit="10"/>
<path d="M134.614 85.0566L136.697 88.9689L140.871 89.338L138.06 92.6818L139.023 97.071L135.202 95.2235L131.624 97.5676L132.073 93.0836L128.898 90.1417L132.997 89.2172L134.614 85.0566Z" fill="#CB1B22"/>
<path d="M390.62 78.7969L392.704 82.7091L396.879 83.0783L394.067 86.4204L395.03 90.8096L391.209 88.9638L387.631 91.3062L388.081 86.8222L384.906 83.882L389.005 82.9574L390.62 78.7969Z" fill="#CB1B22"/>
<path d="M104.319 233.596L107.747 236.185L111.672 234.612L110.444 238.924L113.047 242.457L108.859 242.533L106.542 246.29L105.182 242.025L101.148 240.812L104.495 238.101L104.319 233.596Z" fill="#CB1B22"/>
<path d="M384.558 222.047L383.684 226.457L386.563 229.732L382.398 230.201L380.395 234.162L378.695 230.041L374.578 229.215L377.691 226.199L377.149 221.727L380.776 223.984L384.558 222.047Z" fill="#CB1B22"/>
<path d="M156.051 243.723L156.576 248.197L160.295 250.268L156.506 252.187L155.827 256.639L152.96 253.35L148.82 254.03L150.838 250.079L148.958 246.047L153.072 246.893L156.051 243.723Z" fill="#CB1B22"/>
<path d="M162.552 194.841L167.696 197.478L172.629 194.41L171.888 200.493L176.122 204.597L170.522 205.719L168.205 211.323L165.484 205.934L159.82 205.294L163.738 200.841L162.552 194.841Z" fill="#00A3E5" stroke="#00A3E5" stroke-miterlimit="10"/>
<path d="M140.794 350.838L145.895 353.568L150.875 350.59L150.041 356.658L154.209 360.838L148.592 361.858L146.19 367.42L143.552 361.982L137.898 361.239L141.885 356.859L140.794 350.838Z" fill="#00A3E5" stroke="#00A3E5" stroke-miterlimit="10"/>
<path d="M429.548 221.549L430.204 227.643L435.235 230.517L430.057 233.07L429.074 239.112L425.218 234.597L419.578 235.458L422.375 230.113L419.872 224.603L425.456 225.816L429.548 221.549Z" fill="#00A3E5" stroke="#00A3E5" stroke-miterlimit="10"/>
<path d="M142.378 199.348C142.977 201.531 141.821 203.823 139.795 204.468C137.768 205.113 135.642 203.868 135.041 201.686C134.442 199.504 135.598 197.212 137.624 196.567C139.651 195.921 141.779 197.168 142.378 199.348Z" fill="#E4F3FC"/>
<path d="M212.636 96.952C213.235 99.1344 212.079 101.426 210.053 102.071C208.026 102.717 205.899 101.472 205.299 99.2895C204.7 97.1072 205.855 94.8154 207.882 94.1702C209.907 93.5249 212.035 94.7713 212.636 96.952Z" fill="#E4F3FC"/>
<path d="M435.331 164.167C435.93 166.349 434.774 168.641 432.748 169.286C430.721 169.932 428.593 168.685 427.994 166.505C427.395 164.322 428.551 162.032 430.577 161.385C432.604 160.74 434.732 161.985 435.331 164.167Z" fill="#E4F3FC"/>
<path d="M400.808 121.331C401.407 123.513 400.249 125.803 398.224 126.45C396.198 127.096 394.07 125.851 393.471 123.668C392.871 121.486 394.027 119.194 396.054 118.549C398.08 117.904 400.209 119.15 400.808 121.331Z" fill="#E4F3FC"/>
<path d="M85.7764 136.952C86.3756 139.134 85.2197 141.425 83.1932 142.072C81.1667 142.717 79.04 141.472 78.4394 139.29C77.8402 137.107 78.9961 134.816 81.0226 134.17C83.0491 133.525 85.1773 134.77 85.7764 136.952Z" fill="#E4F3FC"/>
<path d="M256.698 149.673C257.297 151.856 256.142 154.148 254.115 154.793C252.089 155.438 249.96 154.193 249.361 152.011C248.762 149.829 249.918 147.537 251.944 146.892C253.971 146.245 256.099 147.491 256.698 149.673Z" fill="#CB1B22"/>
<path d="M217.308 347.817C217.907 350 216.751 352.291 214.724 352.937C212.698 353.582 210.57 352.337 209.971 350.155C209.371 347.973 210.527 345.681 212.554 345.036C214.58 344.39 216.709 345.635 217.308 347.817Z" fill="#CB1B22"/>
<path d="M352.198 184.89C352.797 187.073 351.642 189.363 349.615 190.01C347.589 190.655 345.46 189.41 344.861 187.228C344.262 185.045 345.418 182.754 347.444 182.108C349.471 181.462 351.599 182.708 352.198 184.89Z" fill="#CB1B22"/>
<path d="M298.362 167.14C298.962 169.322 297.806 171.614 295.779 172.259C293.753 172.904 291.624 171.66 291.025 169.477C290.426 167.295 291.582 165.003 293.609 164.358C295.635 163.713 297.763 164.957 298.362 167.14Z" fill="#E4F3FC"/>
<path d="M267.19 67.3543C267.79 69.5367 266.634 71.8285 264.607 72.4737C262.581 73.119 260.453 71.8742 259.853 69.6919C259.254 67.5095 260.41 65.2177 262.437 64.5725C264.463 63.9273 266.591 65.1736 267.19 67.3543Z" fill="#E4F3FC"/>
<path d="M423.933 182.585C424.532 184.767 423.376 187.059 421.349 187.704C419.323 188.349 417.195 187.103 416.596 184.922C415.996 182.74 417.152 180.448 419.179 179.803C421.205 179.158 423.333 180.404 423.933 182.585Z" fill="#00A3E5" stroke="#00A3E5" stroke-miterlimit="10"/>
<path d="M331.589 62.952C332.188 65.1344 331.032 67.4261 329.006 68.0714C326.979 68.7166 324.851 67.4719 324.252 65.2895C323.653 63.1072 324.81 60.8154 326.835 60.1702C328.861 59.5249 330.99 60.7713 331.589 62.952Z" fill="#00A3E5" stroke="#00A3E5" stroke-miterlimit="10"/>
<path d="M49.8155 179.503C50.4146 181.685 49.2588 183.977 47.2323 184.622C45.2057 185.268 43.0776 184.023 42.4784 181.84C41.8793 179.658 43.0351 177.366 45.0616 176.721C47.0882 176.076 49.2163 177.321 49.8155 179.503Z" fill="#00A3E5" stroke="#00A3E5" stroke-miterlimit="10"/>
<path d="M122.081 125.386C122.68 127.568 121.524 129.86 119.498 130.505C117.471 131.15 115.345 129.905 114.744 127.723C114.145 125.541 115.301 123.249 117.327 122.604C119.354 121.959 121.482 123.205 122.081 125.386Z" fill="#00A3E5" stroke="#00A3E5" stroke-miterlimit="10"/>
<path d="M125.503 322.142C126.102 324.324 124.946 326.614 122.92 327.261C120.893 327.906 118.765 326.661 118.166 324.479C117.567 322.297 118.723 320.005 120.749 319.36C122.776 318.715 124.904 319.959 125.503 322.142Z" fill="#00A3E5" stroke="#00A3E5" stroke-miterlimit="10"/>
<path d="M384.753 297.214C385.352 299.396 384.196 301.686 382.17 302.333C380.143 302.978 378.015 301.734 377.416 299.551C376.817 297.369 377.973 295.077 379.999 294.432C382.024 293.787 384.152 295.033 384.753 297.214Z" fill="#00A3E5" stroke="#00A3E5" stroke-miterlimit="10"/>
<path d="M334.956 273.194C335.555 275.377 334.399 277.668 332.373 278.314C330.346 278.959 328.22 277.714 327.619 275.532C327.02 273.349 328.176 271.059 330.202 270.412C332.229 269.767 334.357 271.013 334.956 273.194Z" fill="#00A3E5" stroke="#00A3E5" stroke-miterlimit="10"/>
<path d="M406.323 241.272C406.922 243.455 405.767 245.746 403.74 246.392C401.714 247.037 399.585 245.792 398.986 243.61C398.387 241.427 399.543 239.136 401.569 238.49C403.596 237.845 405.724 239.092 406.323 241.272Z" fill="#E4F3FC"/>
<path d="M213.183 318.53C213.782 320.713 212.626 323.003 210.599 323.65C208.573 324.295 206.446 323.05 205.846 320.868C205.246 318.685 206.402 316.394 208.429 315.748C210.454 315.103 212.582 316.348 213.183 318.53Z" fill="#E4F3FC"/>
<path d="M106.8 344.179C107.399 346.361 106.243 348.653 104.217 349.298C102.19 349.943 100.063 348.699 99.4628 346.516C98.8637 344.334 100.019 342.042 102.046 341.397C104.073 340.752 106.201 341.996 106.8 344.179Z" fill="#E4F3FC"/>
<path d="M181.242 240.569C181.651 242.059 180.861 243.622 179.478 244.063C178.094 244.504 176.643 243.653 176.233 242.163C175.824 240.673 176.614 239.11 177.997 238.669C179.381 238.228 180.832 239.079 181.242 240.569Z" fill="#E4F3FC"/>
<path d="M274 106.738C274.409 108.228 273.619 109.791 272.235 110.232C270.852 110.673 269.399 109.822 268.991 108.333C268.581 106.843 269.372 105.278 270.755 104.838C272.137 104.399 273.59 105.248 274 106.738Z" fill="#00A3E5" stroke="#00A3E5" stroke-miterlimit="10"/>
<path d="M340.921 229.842C341.331 231.331 340.541 232.896 339.157 233.336C337.774 233.777 336.321 232.926 335.913 231.436C335.503 229.946 336.294 228.381 337.677 227.942C339.06 227.502 340.512 228.353 340.921 229.842Z" fill="#00A3E5" stroke="#00A3E5" stroke-miterlimit="10"/>
<path d="M293.242 334.893C293.651 336.382 292.861 337.947 291.478 338.387C290.094 338.826 288.641 337.977 288.233 336.487C287.824 334.997 288.614 333.432 289.997 332.993C291.381 332.553 292.832 333.403 293.242 334.893Z" fill="#00A3E5" stroke="#00A3E5" stroke-miterlimit="10"/>
<path d="M190.531 344.144C190.94 345.634 190.15 347.199 188.767 347.638C187.383 348.08 185.93 347.228 185.522 345.739C185.113 344.249 185.903 342.684 187.286 342.245C188.668 341.805 190.121 342.655 190.531 344.144Z" fill="#00A3E5" stroke="#00A3E5" stroke-miterlimit="10"/>
<path d="M122.117 263.936C122.526 265.426 121.736 266.991 120.353 267.43C118.969 267.871 117.516 267.02 117.108 265.53C116.699 264.041 117.489 262.476 118.872 262.036C120.256 261.595 121.707 262.446 122.117 263.936Z" fill="#00A3E5" stroke="#00A3E5" stroke-miterlimit="10"/>
<path d="M287.554 233.248C287.964 234.738 287.173 236.301 285.79 236.742C284.407 237.183 282.954 236.332 282.546 234.842C282.136 233.353 282.926 231.789 284.31 231.348C285.693 230.909 287.145 231.758 287.554 233.248Z" fill="#E4F3FC"/>
<path d="M213.429 161.994C213.839 163.484 213.049 165.049 211.665 165.488C210.282 165.929 208.83 165.078 208.421 163.588C208.011 162.098 208.801 160.534 210.185 160.094C211.567 159.655 213.02 160.506 213.429 161.994Z" fill="#E4F3FC"/>
<path d="M538.414 354C544.606 344.88 550.454 335.536 555.526 325.808C558.079 320.953 560.448 316.006 562.729 311.007C564.997 305.999 567.258 300.965 569.323 295.949C573.426 285.846 576.904 275.45 579.937 264.949C582.956 254.449 585.592 243.818 587.51 233.18L597.384 235.356C594.61 246.309 591.165 256.941 587.344 267.431C583.508 277.91 579.243 288.221 574.329 298.254C571.866 303.3 569.167 308.118 566.461 312.951C563.742 317.778 560.927 322.566 557.94 327.239C551.994 336.609 545.348 345.449 538.414 354Z" fill="#00A3E5"/>
<path d="M592.075 223.653C592.396 216.402 592.355 209.153 592.114 201.928C591.86 194.702 591.348 187.5 590.593 180.35C589.86 173.196 588.721 166.113 587.364 159.126C585.971 152.143 584.107 145.316 581.93 138.686L591.657 135.918C593.167 143.295 594.267 150.669 594.866 158.042C595.427 165.416 595.74 172.767 595.638 180.097C595.56 187.425 595.228 194.723 594.639 201.989C594.038 209.25 593.233 216.486 592.075 223.653Z" fill="#00A3E5"/>
<path d="M580.161 227.565C576.35 222.073 572.067 216.959 567.553 212.117C563.028 207.285 558.214 202.764 553.112 198.683C548.017 194.6 542.631 190.951 536.995 187.961C531.367 184.951 525.467 182.662 519.484 181.212L522.446 171.443C529.112 173.998 535.306 177.407 540.955 181.427C546.616 185.433 551.77 189.997 556.5 194.892C561.234 199.786 565.546 205.021 569.494 210.482C573.429 215.953 577.066 221.622 580.161 227.565Z" fill="#00A3E5"/>
<path d="M601.125 228.913C603.912 223.197 606.949 217.598 610.117 212.064C613.307 206.542 616.617 201.069 620.215 195.756C621.084 194.406 622.029 193.107 622.947 191.787C623.873 190.472 624.782 189.142 625.77 187.865L628.689 183.993L631.767 180.214C635.981 175.244 640.504 170.428 645.859 166.152L651.535 174.606C646.548 177.587 641.781 181.415 637.223 185.534L633.844 188.703L630.569 192.017C629.46 193.11 628.416 194.271 627.355 195.418C626.3 196.57 625.218 197.701 624.201 198.896C620.025 203.574 616.073 208.488 612.213 213.489C608.373 218.508 604.639 223.627 601.125 228.913Z" fill="#00A3E5"/>
<path d="M603.805 237.666C609.871 237.82 615.94 238.331 621.996 239.043C628.052 239.769 634.095 240.753 640.116 241.992C646.141 243.219 652.109 244.846 658.045 246.739C663.973 248.674 669.796 251.101 675.524 253.955L670.333 262.722C665.579 259.462 660.536 256.453 655.221 253.85C649.892 251.287 644.405 248.917 638.757 246.914C633.114 244.897 627.361 243.104 621.527 241.554C615.691 240.017 609.787 238.668 603.805 237.666Z" fill="#00A3E5"/>
<path d="M572.127 234.769C566.81 233.807 561.431 233.451 556.097 233.464C550.761 233.496 545.462 233.993 540.296 234.925C539.01 235.191 537.712 235.367 536.447 235.701L532.661 236.674C531.405 236.998 530.191 237.475 528.962 237.864L527.129 238.475C526.525 238.695 525.939 238.97 525.345 239.214L521.813 240.71L518.437 242.493C517.88 242.791 517.314 243.072 516.765 243.383L515.177 244.42L512.022 246.467L506.875 237.674L510.858 235.895L512.84 235.017C513.516 234.763 514.204 234.543 514.884 234.307L518.96 232.926L523.111 231.892C523.802 231.73 524.485 231.537 525.18 231.402L527.273 231.052C528.67 230.84 530.047 230.544 531.446 230.409L535.628 230.016C537.017 229.88 538.417 229.904 539.803 229.843C545.358 229.728 550.87 230.092 556.28 230.919C561.687 231.762 567.017 232.982 572.127 234.769Z" fill="#00A3E5"/>
<path d="M605.766 246.732C608.677 248.674 611.289 251.101 613.755 253.665C616.212 256.246 618.471 259.041 620.589 261.966C621.606 263.451 622.663 264.931 623.593 266.483C624.583 268.011 625.469 269.592 626.358 271.186C627.276 272.77 628.029 274.422 628.877 276.054C629.663 277.705 630.388 279.386 631.149 281.066L621.458 283.96C621.15 282.323 620.873 280.661 620.534 279.014C620.137 277.391 619.825 275.718 619.352 274.105C618.905 272.481 618.457 270.844 617.902 269.247C617.403 267.621 616.775 266.052 616.177 264.452C614.899 261.302 613.448 258.194 611.742 255.207C610.021 252.232 608.12 249.314 605.766 246.732Z" fill="#E4F3FC"/>
<path d="M579.609 238.904C576.585 239.739 573.769 241.082 571.129 242.627C568.496 244.189 566.037 245.973 563.808 247.98C563.239 248.464 562.721 249.016 562.181 249.526C561.64 250.036 561.115 250.559 560.628 251.126L559.141 252.771L557.77 254.512C556.827 255.629 556.062 256.912 555.227 258.094C554.432 259.316 553.741 260.617 553.001 261.848L544.914 255.722C546.152 254.527 547.326 253.304 548.597 252.178C549.912 251.088 551.136 249.939 552.53 248.974L554.561 247.488L556.682 246.139C557.374 245.679 558.099 245.27 558.835 244.878C559.571 244.489 560.275 244.064 561.026 243.715C563.982 242.242 567.061 241.102 570.172 240.261C573.286 239.44 576.461 238.895 579.609 238.904Z" fill="#E4F3FC"/>
<path d="M575.851 193.494C574.019 188.013 571.846 182.672 569.471 177.453C567.075 172.245 564.468 167.155 561.537 162.316C558.621 157.474 555.402 152.856 551.799 148.732C548.218 144.6 544.188 141.001 539.875 138.443L545.636 130.049C550.66 134.16 554.594 139.027 557.852 144.12C561.122 149.217 563.765 154.558 566.036 159.991C568.32 165.422 570.199 170.968 571.837 176.556C573.452 182.151 574.834 187.796 575.851 193.494Z" fill="#E4F3FC"/>
<path d="M547.32 220.776C544.362 217.637 540.837 215.178 537.147 213.211C533.444 211.263 529.552 209.799 525.566 208.926C524.581 208.679 523.556 208.568 522.564 208.383L521.071 208.132L519.554 208.014C518.545 207.941 517.546 207.846 516.548 207.789L513.532 207.828L512.037 207.843L510.536 207.994L507.559 208.298C505.583 208.577 503.62 209.035 501.68 209.381L500.414 199.244C502.731 199.28 505.017 199.224 507.305 199.362L510.732 199.695L512.434 199.87L514.128 200.188L517.488 200.829C518.594 201.116 519.692 201.443 520.784 201.749L522.416 202.219L524.012 202.825C525.067 203.247 526.137 203.593 527.159 204.077C531.293 205.895 535.117 208.296 538.546 211.082C541.958 213.882 545.018 217.101 547.32 220.776Z" fill="#E4F3FC"/>
<path d="M605.766 196.051C606.336 191.425 607.093 186.815 607.952 182.213C608.829 177.614 609.798 173.018 610.981 168.448C612.177 163.882 613.474 159.315 615.122 154.794C616.785 150.277 618.684 145.776 621.229 141.359L629.45 147.301C626.726 150.494 624.264 154.191 621.984 158.048C619.706 161.92 617.683 166.016 615.739 170.167C613.806 174.328 612.054 178.6 610.382 182.916C608.724 187.239 607.157 191.611 605.766 196.051Z" fill="#E4F3FC"/>
<path d="M637.852 221.818C642.481 220.144 647.271 218.885 652.107 217.82C656.948 216.776 661.854 215.91 666.811 215.348C671.765 214.783 676.767 214.367 681.794 214.289C686.826 214.126 691.874 214.337 696.946 214.648L695.362 224.739C690.75 223.639 686.08 222.61 681.336 221.937C676.6 221.18 671.803 220.745 666.979 220.454C662.152 220.16 657.297 220.164 652.431 220.353C647.566 220.564 642.688 220.971 637.852 221.818Z" fill="#E4F3FC"/>
<path d="M650.35 282.152L648.661 287.148L643.633 288.573L647.81 291.741L647.598 297.015L651.869 293.978L656.765 295.812L655.227 290.768L658.465 286.625L653.244 286.546L650.35 282.152Z" fill="#E4F3FC"/>
<path d="M511.231 180.727L509.994 184.385L506.312 185.43L509.371 187.749L509.216 191.612L512.343 189.387L515.929 190.73L514.802 187.036L517.174 184.003L513.351 183.945L511.231 180.727Z" fill="#E4F3FC"/>
<path d="M545.53 153.566L542.653 156.114L538.948 155.161L540.454 158.715L538.414 161.984L542.222 161.633L544.666 164.606L545.513 160.835L549.065 159.402L545.78 157.424L545.53 153.566Z" fill="#E4F3FC"/>
<path d="M692.756 241.203L691.979 244.989L688.453 246.487L691.774 248.405L692.094 252.257L694.923 249.657L698.646 250.54L697.075 247.015L699.056 243.708L695.255 244.13L692.756 241.203Z" fill="#E4F3FC"/>
<path d="M681.194 134.34L676.853 137.274L672.002 135.323L673.422 140.404L670.086 144.466L675.304 144.672L678.094 149.133L679.9 144.179L684.96 142.875L680.858 139.608L681.194 134.34Z" fill="#E4F3FC"/>
<path d="M595.686 106L591.482 109.133L586.547 107.408L588.195 112.417L585.047 116.629L590.268 116.593L593.258 120.922L594.838 115.89L599.833 114.353L595.588 111.279L595.686 106Z" fill="#00A3E5" stroke="#00A3E5" stroke-miterlimit="10"/>
<path d="M662.012 156.215L660.313 159.213L656.906 159.496L659.2 162.056L658.414 165.42L661.532 164.004L664.453 165.8L664.085 162.365L666.676 160.111L663.331 159.403L662.012 156.215Z" fill="#00A3E5" stroke="#00A3E5" stroke-miterlimit="10"/>
<path d="M697 188.611L693.915 190.097L690.955 188.369L691.399 191.795L688.859 194.107L692.219 194.739L693.609 197.896L695.242 194.86L698.64 194.499L696.29 191.991L697 188.611Z" fill="#00A3E5" stroke="#00A3E5" stroke-miterlimit="10"/>
<path d="M626.33 296.968L623.269 298.506L620.281 296.828L620.782 300.247L618.281 302.601L621.65 303.176L623.092 306.309L624.675 303.246L628.067 302.828L625.675 300.359L626.33 296.968Z" fill="#00A3E5" stroke="#00A3E5" stroke-miterlimit="10"/>
<path d="M646.548 203.656C646.188 204.885 646.883 206.175 648.098 206.539C649.314 206.903 650.59 206.201 650.95 204.971C651.31 203.742 650.615 202.452 649.4 202.088C648.185 201.724 646.908 202.426 646.548 203.656Z" fill="#E4F3FC"/>
<path d="M604.4 145.97C604.04 147.199 604.734 148.49 605.95 148.853C607.165 149.217 608.442 148.515 608.801 147.286C609.161 146.057 608.467 144.766 607.251 144.403C606.036 144.039 604.758 144.741 604.4 145.97Z" fill="#E4F3FC"/>
<path d="M488.196 171.89C487.837 173.119 488.531 174.409 489.747 174.773C490.962 175.137 492.239 174.435 492.598 173.205C492.958 171.976 492.264 170.686 491.048 170.322C489.834 169.959 488.556 170.66 488.196 171.89Z" fill="#E4F3FC"/>
<path d="M509.548 162.48C509.188 163.709 509.883 164.999 511.098 165.363C512.314 165.727 513.59 165.025 513.95 163.796C514.31 162.567 513.615 161.276 512.4 160.912C511.184 160.549 509.908 161.251 509.548 162.48Z" fill="#E4F3FC"/>
<path d="M680.525 168.503C680.165 169.732 680.859 171.022 682.075 171.386C683.29 171.75 684.567 171.048 684.926 169.819C685.286 168.59 684.592 167.299 683.376 166.935C682.161 166.573 680.884 167.275 680.525 168.503Z" fill="#E4F3FC"/>
<path d="M552.978 185.511C552.618 186.74 553.312 188.031 554.528 188.394C555.744 188.758 557.02 188.056 557.38 186.827C557.739 185.598 557.045 184.307 555.829 183.944C554.615 183.58 553.337 184.282 552.978 185.511Z" fill="#E4F3FC"/>
<path d="M571.696 129.298C571.337 130.527 572.031 131.817 573.247 132.181C574.462 132.545 575.739 131.843 576.098 130.614C576.458 129.385 575.764 128.094 574.548 127.73C573.333 127.368 572.056 128.069 571.696 129.298Z" fill="#E4F3FC"/>
<path d="M478.454 204.929C478.095 206.158 478.789 207.449 480.004 207.812C481.22 208.176 482.496 207.474 482.856 206.245C483.216 205.016 482.522 203.725 481.306 203.362C480.09 202.998 478.814 203.7 478.454 204.929Z" fill="#00A3E5" stroke="#00A3E5" stroke-miterlimit="10"/>
<path d="M533.048 126.819C532.688 128.048 533.383 129.339 534.598 129.702C535.814 130.066 537.09 129.364 537.45 128.135C537.81 126.906 537.115 125.616 535.9 125.252C534.684 124.889 533.408 125.59 533.048 126.819Z" fill="#00A3E5" stroke="#00A3E5" stroke-miterlimit="10"/>
<path d="M673.025 192.476C672.665 193.705 673.359 194.995 674.575 195.359C675.79 195.723 677.067 195.021 677.426 193.792C677.786 192.563 677.092 191.272 675.876 190.908C674.661 190.545 673.384 191.247 673.025 192.476Z" fill="#00A3E5" stroke="#00A3E5" stroke-miterlimit="10"/>
<path d="M642.15 138.755C641.79 139.984 642.484 141.274 643.7 141.638C644.915 142.002 646.192 141.3 646.551 140.071C646.911 138.842 646.217 137.551 645.001 137.187C643.786 136.825 642.509 137.527 642.15 138.755Z" fill="#00A3E5" stroke="#00A3E5" stroke-miterlimit="10"/>
<path d="M656.689 272.825C656.329 274.055 657.023 275.345 658.239 275.709C659.454 276.072 660.731 275.371 661.091 274.141C661.45 272.912 660.756 271.622 659.54 271.258C658.325 270.894 657.047 271.596 656.689 272.825Z" fill="#00A3E5" stroke="#00A3E5" stroke-miterlimit="10"/>
<path d="M501.15 258.784C500.79 260.014 501.484 261.304 502.7 261.668C503.915 262.031 505.192 261.33 505.551 260.1C505.911 258.871 505.217 257.581 504.001 257.217C502.786 256.853 501.509 257.555 501.15 258.784Z" fill="#00A3E5" stroke="#00A3E5" stroke-miterlimit="10"/>
<path d="M531.025 245.253C530.665 246.482 531.359 247.772 532.575 248.136C533.79 248.5 535.067 247.798 535.426 246.569C535.786 245.34 535.092 244.049 533.876 243.685C532.661 243.323 531.384 244.025 531.025 245.253Z" fill="#00A3E5" stroke="#00A3E5" stroke-miterlimit="10"/>
<path d="M488.196 227.273C487.837 228.502 488.531 229.792 489.747 230.156C490.962 230.52 492.239 229.818 492.598 228.589C492.958 227.36 492.264 226.069 491.048 225.705C489.834 225.342 488.556 226.044 488.196 227.273Z" fill="#E4F3FC"/>
<path d="M601.212 270.505C600.852 271.734 601.547 273.024 602.762 273.388C603.978 273.752 605.254 273.05 605.614 271.821C605.974 270.592 605.279 269.301 604.064 268.937C602.848 268.575 601.571 269.276 601.212 270.505Z" fill="#E4F3FC"/>
<path d="M682.814 288.19C682.454 289.419 683.148 290.71 684.364 291.074C685.579 291.437 686.856 290.735 687.216 289.506C687.575 288.277 686.881 286.987 685.665 286.623C684.45 286.26 683.173 286.962 682.814 288.19Z" fill="#E4F3FC"/>
<path d="M623.244 226.872C622.999 227.71 623.473 228.592 624.302 228.84C625.132 229.089 626.004 228.61 626.25 227.771C626.495 226.932 626.021 226.05 625.192 225.802C624.361 225.554 623.49 226.033 623.244 226.872Z" fill="#E4F3FC"/>
<path d="M567.596 151.481C567.35 152.32 567.824 153.202 568.654 153.45C569.484 153.698 570.356 153.219 570.601 152.38C570.847 151.541 570.373 150.659 569.543 150.411C568.713 150.163 567.842 150.642 567.596 151.481Z" fill="#00A3E5" stroke="#00A3E5" stroke-miterlimit="10"/>
<path d="M527.44 220.829C527.194 221.668 527.668 222.549 528.498 222.798C529.327 223.046 530.2 222.567 530.445 221.728C530.691 220.889 530.217 220.007 529.387 219.759C528.557 219.511 527.685 219.989 527.44 220.829Z" fill="#00A3E5" stroke="#00A3E5" stroke-miterlimit="10"/>
<path d="M556.057 280.008C555.811 280.847 556.285 281.729 557.115 281.977C557.945 282.225 558.817 281.746 559.062 280.907C559.308 280.069 558.834 279.187 558.004 278.939C557.174 278.69 556.302 279.169 556.057 280.008Z" fill="#00A3E5" stroke="#00A3E5" stroke-miterlimit="10"/>
<path d="M600.338 290.721C600.093 291.56 600.567 292.442 601.396 292.69C602.226 292.938 603.098 292.459 603.344 291.62C603.589 290.782 603.115 289.9 602.285 289.652C601.455 289.403 600.584 289.881 600.338 290.721Z" fill="#00A3E5" stroke="#00A3E5" stroke-miterlimit="10"/>
<path d="M658.721 240.04C658.475 240.878 658.949 241.76 659.779 242.008C660.609 242.257 661.481 241.778 661.726 240.939C661.972 240.1 661.498 239.218 660.668 238.97C659.839 238.722 658.967 239.201 658.721 240.04Z" fill="#00A3E5" stroke="#00A3E5" stroke-miterlimit="10"/>
<path d="M559.448 222.75C559.202 223.589 559.676 224.471 560.506 224.719C561.335 224.968 562.207 224.488 562.453 223.65C562.698 222.811 562.225 221.929 561.395 221.681C560.565 221.432 559.693 221.912 559.448 222.75Z" fill="#E4F3FC"/>
<path d="M598.768 183.481C598.522 184.319 598.996 185.201 599.826 185.449C600.656 185.698 601.528 185.219 601.773 184.38C602.019 183.541 601.545 182.659 600.715 182.411C599.885 182.164 599.013 182.642 598.768 183.481Z" fill="#E4F3FC"/>
<path d="M552.917 108.428L553.371 112.06L556.587 113.742L553.31 115.301L552.723 118.914L550.244 116.245L546.664 116.797L548.408 113.587L546.783 110.315L550.34 111.001L552.917 108.428Z" fill="#CB1B22"/>
<path d="M657.001 186.416L658.977 188.407L661.72 187.889L660.458 190.406L661.792 192.883L659.036 192.446L657.118 194.495L656.676 191.71L654.156 190.499L656.64 189.213L657.001 186.416Z" fill="#CB1B22"/>
<path d="M641.935 252.891L641.56 256.717L644.466 259.198L640.751 260.019L639.315 263.579L637.394 260.261L633.602 259.98L636.129 257.108L635.221 253.375L638.705 254.918L641.935 252.891Z" fill="#CB1B22"/>
<path d="M522.964 259.971L522.913 262.792L525.181 264.433L522.513 265.255L521.67 267.944L520.071 265.632L517.281 265.653L518.963 263.401L518.082 260.725L520.719 261.645L522.964 259.971Z" fill="#CB1B22"/>
<path d="M508.685 218.629L511.369 219.401L513.518 217.604L513.622 220.422L515.978 221.934L513.358 222.904L512.664 225.637L510.941 223.418L508.156 223.595L509.711 221.252L508.685 218.629Z" fill="#CB1B22"/>
<path d="M613.892 124.427C614.291 125.792 613.521 127.225 612.171 127.629C610.821 128.032 609.403 127.254 609.004 125.889C608.605 124.524 609.375 123.09 610.725 122.687C612.075 122.283 613.492 123.063 613.892 124.427Z" fill="#CB1B22"/>
<path d="M582.595 175.598C582.994 176.963 582.224 178.397 580.874 178.801C579.524 179.204 578.106 178.426 577.707 177.061C577.308 175.696 578.078 174.262 579.428 173.858C580.777 173.455 582.195 174.233 582.595 175.598Z" fill="#CB1B22"/>
<path d="M669.118 125.016C669.517 126.381 668.747 127.815 667.397 128.219C666.047 128.622 664.629 127.843 664.23 126.479C663.831 125.115 664.601 123.681 665.951 123.276C667.301 122.873 668.719 123.651 669.118 125.016Z" fill="#CB1B22"/>
<path d="M633.056 204.854C633.455 206.219 632.685 207.653 631.335 208.056C629.985 208.46 628.568 207.681 628.168 206.316C627.769 204.951 628.539 203.519 629.889 203.114C631.239 202.711 632.657 203.49 633.056 204.854Z" fill="#CB1B22"/>
<path d="M682.876 232.891C683.275 234.256 682.505 235.69 681.155 236.093C679.805 236.497 678.387 235.718 677.988 234.353C677.589 232.988 678.359 231.555 679.709 231.151C681.059 230.748 682.477 231.527 682.876 232.891Z" fill="#CB1B22"/>
<path d="M508.087 141.003C508.486 142.368 507.716 143.801 506.366 144.205C505.016 144.608 503.598 143.83 503.199 142.465C502.8 141.1 503.57 139.666 504.92 139.263C506.27 138.859 507.688 139.639 508.087 141.003Z" fill="#CB1B22"/>
<path d="M552.493 211.548C552.892 212.913 552.122 214.346 550.772 214.75C549.422 215.153 548.006 214.375 547.605 213.01C547.206 211.645 547.976 210.212 549.326 209.808C550.676 209.404 552.094 210.183 552.493 211.548Z" fill="#CB1B22"/>
<mask id="mask0_2646_4773" style="mask-type:luminance" maskUnits="userSpaceOnUse" x="0" y="509" width="1440" height="480">
<path d="M1440 509H0V989H1440V509Z" fill="white"/>
</mask>
<g mask="url(#mask0_2646_4773)">
<path d="M295.873 352.027L-201.164 527.432L80.4659 1192.85L577.503 1017.45L295.873 352.027Z" fill="#1F69A6"/>
<path d="M38.6693 544.916L63.3065 565.604L95.9346 558.801L82.0029 586.586L99.1724 612.822L65.9232 609.309L43.9056 632.326L37.2919 602.366L6.51562 590.356L35.673 575.356L38.6693 544.916Z" fill="white"/>
<path d="M185.953 605.906L210.591 626.594L243.219 619.791L229.287 647.579L246.457 673.812L213.207 670.299L191.19 693.316L184.576 663.357L153.797 651.349L182.957 636.346L185.953 605.906Z" fill="white"/>
<path d="M245.188 472.029L269.822 492.717L302.453 485.914L288.519 513.702L305.688 539.935L272.442 536.422L250.421 559.439L243.808 529.48L213.031 517.472L242.189 502.469L245.188 472.029Z" fill="white"/>
<path d="M328.399 668.594L353.033 689.282L385.664 682.476L371.729 710.264L388.899 736.5L355.653 732.984L333.632 756.004L327.018 726.044L296.242 714.034L325.402 699.034L328.399 668.594Z" fill="white"/>
<path d="M121.86 741.48L146.494 762.166L179.125 755.363L165.19 783.15L182.36 809.384L149.114 805.871L127.093 828.888L120.479 798.928L89.7031 786.921L118.861 771.918L121.86 741.48Z" fill="white"/>
<path d="M274.578 815.311L299.216 835.996L331.844 829.193L317.912 856.98L335.079 883.214L301.832 879.701L279.815 902.718L273.201 872.758L242.422 860.751L271.582 845.748L274.578 815.311Z" fill="white"/>
<path d="M417.024 877.992L441.658 898.68L474.289 891.877L460.354 919.665L477.524 945.898L444.278 942.385L422.257 965.402L415.644 935.443L384.867 923.433L414.025 908.432L417.024 877.992Z" fill="white"/>
<path d="M1316.93 132.601L347.758 474.621L373.31 534.995L1342.48 192.975L1316.93 132.601Z" fill="white"/>
<path d="M1342.47 192.982L373.297 535.002L398.849 595.376L1368.02 253.356L1342.47 192.982Z" fill="#CB1B22"/>
<path d="M1368.04 253.355L398.867 595.375L424.42 655.749L1393.59 313.729L1368.04 253.355Z" fill="white"/>
<path d="M1393.58 313.732L424.406 655.752L449.959 716.126L1419.13 374.106L1393.58 313.732Z" fill="#CB1B22"/>
<path d="M1419.03 373.826L449.859 715.846L475.412 776.22L1444.58 434.2L1419.03 373.826Z" fill="white"/>
<path d="M1444.57 434.195L475.398 776.215L500.951 836.589L1470.12 494.569L1444.57 434.195Z" fill="#CB1B22"/>
<path d="M1470.14 494.574L500.969 836.594L526.521 896.968L1495.69 554.948L1470.14 494.574Z" fill="white"/>
<path d="M1495.68 554.949L526.508 896.969L552.06 957.343L1521.23 615.323L1495.68 554.949Z" fill="#CB1B22"/>
<path d="M1521.11 615.04L551.938 957.061L577.49 1017.43L1546.66 675.415L1521.11 615.04Z" fill="white"/>
<path d="M1546.83 675.798L577.664 1017.82L603.217 1078.19L1572.39 736.172L1546.83 675.798Z" fill="#CB1B22"/>
<path d="M1597.33 795.728L628.164 1137.75L653.717 1198.12L1622.89 856.102L1597.33 795.728Z" fill="#CB1B22"/>
<path d="M1572.26 735.892L603.086 1077.91L628.638 1138.29L1597.81 796.266L1572.26 735.892Z" fill="white"/>
<path d="M1624.02 858.146L654.852 1200.17L680.404 1260.54L1649.57 918.52L1624.02 858.146Z" fill="white"/>
</g>
</g>
<defs>
<clipPath id="clip0_2646_4773">
<rect width="1440" height="878" fill="white"/>
</clipPath>
</defs>
</svg>
