<svg width="419" height="44" viewBox="0 0 419 44" fill="none" xmlns="http://www.w3.org/2000/svg">
<path d="M99.7492 43.0606C99.37 42.8555 98.8633 42.9126 98.2336 42.9844C98.0808 43.0018 97.9194 43.0186 97.7521 43.0342C97.1953 43.0267 96.6398 43.0203 96.0861 43.0117C95.6427 42.9455 95.1675 42.8187 94.6613 42.6006C93.6473 42.1636 92.7403 41.3867 91.8576 40.627C91.4858 40.3069 91.118 39.9888 90.7482 39.7012C90.8803 39.6528 90.9987 39.5987 91.0881 39.5293C91.7001 39.0535 91.8979 38.191 92.0793 37.3975C92.2 36.8698 92.3148 36.3723 92.5402 36.0401C92.9531 35.4314 92.8583 34.7616 92.7883 34.2666C92.752 34.0101 92.7233 33.7999 92.7746 33.67C92.8161 33.5659 92.9252 33.5097 93.0383 33.4522C93.1368 33.402 93.2397 33.3497 93.301 33.2637C94.046 32.219 93.7577 31.6652 93.339 30.8594C93.1082 30.415 92.839 29.8928 92.6799 29.17C92.5327 28.4033 92.5468 28.1745 92.9523 27.835C92.5906 27.4774 92.2289 27.1203 91.8683 26.7627C91.7398 26.7973 91.6587 27.0433 91.549 27.4502C91.3529 28.1771 90.5657 28.4957 89.9543 28.7442C89.6714 28.8591 89.4255 28.9592 89.2912 29.0782C88.5781 29.7118 88.8574 30.5013 89.1027 31.1953C89.2378 31.5772 89.3619 31.9309 89.3058 32.2139C89.2822 32.3348 89.3381 32.449 89.3937 32.5655C89.4369 32.6556 89.4808 32.7478 89.4894 32.8448C89.5511 33.5491 89.1432 34.1057 88.7658 34.6221C88.5496 34.9179 88.3432 35.2017 88.2394 35.4922C88.2079 35.5807 88.1843 35.6709 88.1623 35.7578C88.131 35.8846 88.0972 36.0063 88.0383 36.1123C87.9038 36.3539 87.6034 36.5321 87.2756 36.7266C87.1077 36.8262 86.9326 36.9305 86.7687 37.0498C86.5562 37.2046 86.4959 37.4896 86.4328 37.7871C86.3882 37.9974 86.3414 38.2143 86.2394 38.3975C86.0546 38.7287 85.6434 38.8742 85.2629 39.0088C85.097 39.0674 84.9363 39.1251 84.8029 39.1944C84.7488 39.2225 84.7259 39.2728 84.7248 39.3389C84.1047 39.6068 83.5158 39.8772 82.9455 40.1416C80.0582 41.4695 77.7593 42.6067 73.8566 42.2002C73.114 42.1238 72.3333 42.2086 71.5558 42.3731C69.0218 42.2861 66.5361 42.1881 64.1057 42.0791C63.5794 41.4802 62.9678 40.9901 62.1848 40.6289C60.7446 39.9486 59.3276 39.888 57.6848 39.8155C56.4706 39.7618 55.1321 39.7016 53.5822 39.378C51.105 38.8242 48.0653 38.4309 45.0871 38.3399C42.1487 38.2468 38.5985 38.2927 36.1281 38.4102C34.7933 38.473 33.383 38.018 32.0998 37.5928C30.2703 36.9966 28.3852 36.4848 27.4914 37.5342C27.1953 37.8705 26.9318 38.4332 26.6779 38.9795C26.497 39.3687 26.3188 39.7498 26.1389 40.0371C25.5906 40 25.0494 39.9627 24.5158 39.9239C23.5902 39.3556 21.8794 38.8099 20.4348 39.6631C19.8452 39.6266 19.267 39.5902 18.7189 39.5498C17.4832 39.4737 16.5373 39.3694 15.2014 39.3028C14.7781 39.2791 14.3586 39.2551 13.9465 39.2305C13.9426 39.2301 13.9386 39.2299 13.9348 39.2295C13.1054 39.18 12.3038 39.129 11.549 39.0733C11.2258 39.0497 10.9086 39.0253 10.5978 39.001C9.9185 38.9279 8.7663 38.9044 7.93475 38.8506C7.47159 38.8241 7.0227 38.7974 6.59296 38.7686C5.87551 38.7246 5.33353 38.6612 4.40155 38.6495C3.02207 38.6222 2.26331 38.4986 0.882995 38.5489C0.723295 38.5467 0.591613 38.4679 0.485534 38.3272C0.379907 38.1861 0.296799 37.9978 0.235534 37.7959C0.175699 37.5937 0.148407 37.3863 0.194519 37.2061C0.239959 37.0266 0.357971 36.8904 0.528503 36.8213C1.98314 36.3412 2.66701 36.0694 4.03924 35.6924C4.96179 35.4555 5.47974 35.2732 6.18182 35.0723C6.60124 34.9502 7.03924 34.8283 7.49237 34.7051C8.30507 34.4775 9.43894 34.2207 10.0978 34.0166C10.4007 33.9316 10.7102 33.8456 11.0256 33.7598C11.764 33.5589 12.5502 33.3561 13.3644 33.1524C13.3693 33.1512 13.3742 33.1497 13.3791 33.1485C13.7799 33.0482 14.1889 32.948 14.6008 32.8477C15.9082 32.5375 16.8282 32.2669 18.0383 31.9737C18.6425 31.8199 19.2872 31.665 19.9416 31.5088C20.3058 31.4219 20.6738 31.3345 21.0392 31.2481C21.2391 31.2016 21.4433 31.1553 21.6496 31.1084C25.8656 30.0589 30.641 29.0055 34.8625 28.0342C39.4568 27.0323 43.656 26.0978 48.2346 25.1621C52.7977 24.2281 56.9655 23.3554 61.6437 22.4698C89.697 16.9774 118.199 12.1899 146.722 8.46487C150.741 7.93573 154.911 7.42179 159.021 6.93557C163.189 6.4452 167.132 5.99352 171.29 5.55373C172.548 5.41917 173.841 5.28599 175.171 5.15139C185.843 4.05951 196.415 6.662 207.166 5.93361C220.523 5.02902 233.878 0.941884 247.311 0.628921C260.667 0.321216 274.07 0.274493 287.502 0.428722C300.863 0.587718 314.365 0.939757 327.751 1.43848C341.248 1.92995 354.586 2.5707 368.095 3.2793C377.131 3.76976 386.319 4.28743 395.49 4.82227C399.579 5.0522 403.322 5.30666 407.481 5.53711C410.52 5.71392 413.502 5.89497 416.422 6.08008C416.828 6.10653 417.226 6.29439 417.53 6.61328C417.835 6.93283 418.023 7.35487 418.051 7.80176C418.079 8.2487 417.947 8.69221 417.685 9.04688C417.423 9.4006 417.051 9.63562 416.652 9.71191C413.754 10.2594 410.794 10.8113 407.775 11.3672C404.315 11.991 401.273 12.5887 397.929 13.2031C397.286 11.4033 396.478 10.0586 395.08 9.53223C394.367 9.26379 393.342 9.19941 392.612 9.58887C391.963 9.93842 391.467 10.5188 391.047 11.0684C390.598 11.6439 390.171 12.1902 389.588 12.4111C388.599 12.7864 387.687 13.6278 386.724 14.5117C386.373 14.8334 386.015 15.1609 385.645 15.4736C382.527 16.0505 379.284 16.6333 376.159 17.2051C374.943 17.0882 373.819 17.0027 372.877 17.1397C372.032 17.2625 371.277 17.7008 370.529 18.2334C370.044 18.3215 369.556 18.4098 369.069 18.4981C365.94 19.0646 362.669 19.6351 359.612 20.1885C357.135 19.8592 354.525 19.553 351.123 19.5664C349.657 19.5722 348.192 19.4025 346.779 19.2402C344.747 18.9969 342.828 18.7693 341.175 19.1426C340.071 19.392 338.876 19.2103 337.682 19.0293C336.08 18.7866 334.474 18.5442 333.081 19.3447C332.207 19.8481 331.404 20.4433 330.672 20.9941C329.523 21.8694 328.517 22.6351 327.566 22.7461C325.778 22.9544 324.257 23.6376 322.913 24.2402C321.298 24.965 319.938 25.5737 318.675 25.0986C318.484 25.0266 318.263 24.928 318.015 24.8164C316.71 24.2279 314.597 23.2889 311.784 24.0684C310.777 24.3464 309.853 24.9569 308.946 25.5557C307.627 26.4274 306.342 27.2736 304.888 27.0313C304.671 26.9948 304.433 26.7978 304.217 26.6182C303.942 26.3899 303.702 26.1908 303.58 26.3858C303.224 26.9589 302.64 27.6055 302.005 28.3086C301.539 28.8251 301.045 29.373 300.593 29.9434C296.875 30.4957 293.245 31.0294 289.547 31.5527C287.857 31.7923 286.163 32.0289 284.467 32.2627C283.54 31.4973 282.598 30.8148 281.618 30.3164C280.344 29.6647 278.746 29.5459 276.68 29.3916C275.16 29.2781 273.387 29.1449 271.306 28.7686C267.454 28.0719 263.563 28.5472 261.113 29.2236C260.594 29.3668 260.073 29.5175 259.515 29.6807C257.398 30.2997 254.756 31.0742 249.702 32.0733C244.922 33.0183 240.832 33.4561 237.762 33.7852C236.195 33.9531 234.893 34.0906 233.9 34.2549C232.199 34.5361 230.111 34.8264 228.003 35.1172C224.708 35.572 221.399 36.0285 219.54 36.4639C218.878 36.6189 218.185 36.8018 217.438 36.9981C215.367 37.542 212.864 38.1989 209.365 38.7188C205.7 39.264 203.411 39.2201 201.02 38.9473C200.048 38.8364 199.155 38.1954 198.235 37.5332C196.934 36.5932 195.559 35.6136 193.82 36.0537C193.414 36.1565 192.987 36.3533 192.541 36.5596C191.722 36.9384 190.837 37.3483 189.897 37.2598C189.569 37.2289 189.27 37.0593 188.978 36.8926C188.656 36.7092 188.34 36.5297 187.998 36.542C186.72 36.5884 185.485 36.7216 184.389 36.8399C182.976 36.9924 181.793 37.1198 181.047 37.0049C179.729 36.7988 178.275 37.1651 176.827 37.5362C175.719 37.8198 174.601 38.1076 173.505 38.1446C170.358 38.251 166.174 39.0492 161.788 40.2002C160.124 40.6358 158.668 40.3005 156.811 39.8701C155.656 39.6025 154.345 39.2968 152.737 39.1182C151.825 39.0171 151.091 39.4566 150.413 39.8633C149.789 40.2379 149.211 40.5846 148.585 40.4561C148.031 40.3423 147.651 39.7151 147.271 39.1211C146.851 38.4599 146.455 37.8387 145.88 38.0059C145.574 38.095 145.22 38.4464 144.799 38.8643C144.633 39.0296 144.454 39.2047 144.266 39.3789C144.267 39.2464 144.261 39.1283 144.255 39.0391C144.211 38.4082 143.594 38.1175 142.989 37.833C142.748 37.7195 142.509 37.6076 142.309 37.4746C141.573 36.9849 140.247 36.99 139.245 37.086C138.821 37.1264 138.423 36.9583 137.959 36.7617C137.547 36.5872 137.083 36.3895 136.503 36.2969C136.173 36.2441 135.91 36.0795 135.693 35.9414C135.535 35.8415 135.402 35.7557 135.282 35.7393C135.179 35.7254 135.109 35.912 135.031 36.1221C134.975 36.2734 134.915 36.4379 134.833 36.5479C134.639 36.8104 134.372 36.9038 134.175 36.8379C134.084 36.8074 134.009 36.7419 133.935 36.6768C133.849 36.6011 133.763 36.5249 133.651 36.5039C133.135 36.4081 132.657 36.649 132.162 36.8994C131.629 37.174 131.024 37.4633 130.345 37.3282C130.13 37.2857 129.896 37.1691 129.669 37.0567C129.433 36.9391 129.203 36.8259 129.013 36.8047C128.241 36.7192 127.559 37.221 126.933 37.6826C126.516 37.9897 126.124 38.2786 125.747 38.3653C125.057 38.5239 124.723 39.0923 124.476 39.5117C124.348 39.729 124.243 39.9076 124.125 39.9678C124.012 39.9607 123.897 39.9511 123.785 39.9395C123.681 39.907 123.573 39.8735 123.476 39.8936C123.468 39.8951 123.461 39.8979 123.453 39.8994C122.824 39.8125 122.202 39.669 121.586 39.5264C120.202 39.2061 118.841 38.8895 117.458 39.2227C117.157 39.2948 116.88 39.5393 116.566 39.7901C116.188 40.0968 115.803 40.4106 115.389 40.4199C114.402 40.4418 113.386 40.1441 112.39 39.8506C110.892 39.4092 109.437 38.9779 108.185 39.6573C107.771 39.8815 107.378 40.2341 106.986 40.5889C106.767 40.7865 106.547 40.9857 106.323 41.1621C106.352 40.8624 106.359 40.5824 106.364 40.3213C106.377 39.7833 106.388 39.3228 106.585 38.918C107.052 37.9611 107.568 36.6524 107.434 35.7354C107.397 35.4866 107.392 35.2065 107.388 34.9248C107.378 34.2181 107.366 33.4961 106.846 33.2071C106.495 33.0122 105.6 32.5721 105.095 33.1494C104.985 33.2753 104.929 33.5132 104.867 33.7774C104.757 34.252 104.625 34.8143 104.12 34.9795C104.035 35.0073 103.943 35.0335 103.847 35.0586C103.465 35.1589 103.037 35.2704 102.903 35.6553C102.748 36.0985 102.823 36.5879 102.911 37.1582C103.026 37.9014 103.163 38.7846 102.84 39.8838C102.776 40.1009 102.63 40.1848 102.52 40.2481C102.442 40.2927 102.383 40.3285 102.381 40.3926C102.38 40.4663 102.416 40.6166 102.463 40.8067C102.622 41.478 102.935 42.6477 102.063 42.7617C101.827 42.7924 101.553 42.7561 101.307 42.7227C100.945 42.6734 100.645 42.6331 100.619 42.8301C100.61 42.9047 100.605 42.9852 100.603 43.0684C100.318 43.0657 100.033 43.0633 99.7492 43.0606Z" fill="#FFEDEB"/>
</svg>
