<svg width="24" height="24" viewBox="0 0 24 24" fill="none" xmlns="http://www.w3.org/2000/svg">
<path d="M17.3001 9.52306L20.4821 12.7051C20.9984 13.2145 21.4089 13.8211 21.6898 14.4898C21.9708 15.1586 22.1167 15.8763 22.1191 16.6017C22.1215 17.3271 21.9804 18.0457 21.704 18.7164C21.4275 19.387 21.0211 19.9963 20.5082 20.5092C19.9953 21.0221 19.386 21.4285 18.7154 21.705C18.0447 21.9814 17.3261 22.1225 16.6007 22.1201C15.8753 22.1177 15.1576 21.9718 14.4888 21.6908C13.8201 21.4099 13.2135 20.9994 12.7041 20.4831L11.6441 19.4231C11.5007 19.2848 11.3864 19.1193 11.3077 18.9363C11.229 18.7534 11.1875 18.5565 11.1857 18.3574C11.1839 18.1582 11.2217 17.9607 11.2971 17.7763C11.3724 17.5919 11.4837 17.4244 11.6245 17.2835C11.7652 17.1426 11.9327 17.0311 12.117 16.9556C12.3013 16.8801 12.4988 16.8421 12.6979 16.8437C12.8971 16.8453 13.094 16.8866 13.277 16.9651C13.46 17.0437 13.6256 17.1579 13.7641 17.3011L14.8261 18.3621C15.2957 18.8274 15.9305 19.0879 16.5916 19.0863C17.2528 19.0848 17.8864 18.8214 18.3538 18.3538C18.8213 17.8863 19.0845 17.2526 19.0858 16.5914C19.0872 15.9303 18.8266 15.2955 18.3611 14.8261L15.1791 11.6441C14.8351 11.3 14.3983 11.0637 13.9221 10.9643C13.4459 10.8648 12.951 10.9064 12.4981 11.0841C12.3367 11.1481 12.1854 11.2134 12.0441 11.2801L11.5801 11.4971C10.9601 11.7771 10.4831 11.8971 9.87606 11.2911C9.00406 10.4191 9.23006 9.61406 10.2931 8.88106C11.352 8.15242 12.6326 7.81767 13.9127 7.93495C15.1927 8.05223 16.3912 8.61412 17.3001 9.52306ZM11.2901 3.51306L12.3501 4.57306C12.6234 4.85583 12.7748 5.23466 12.7716 5.62796C12.7683 6.02126 12.6108 6.39756 12.3328 6.6758C12.0548 6.95405 11.6787 7.11198 11.2854 7.11558C10.8921 7.11918 10.5131 6.96816 10.2301 6.69506L9.16906 5.63506C8.93851 5.39622 8.6627 5.20569 8.35773 5.07458C8.05275 4.94347 7.72472 4.87441 7.39278 4.87143C7.06083 4.86845 6.73161 4.93162 6.42434 5.05723C6.11706 5.18285 5.83788 5.3684 5.60308 5.60307C5.36828 5.83773 5.18257 6.11681 5.05678 6.42401C4.931 6.73122 4.86765 7.0604 4.87044 7.39235C4.87323 7.72429 4.9421 8.05236 5.07304 8.35741C5.20397 8.66246 5.39435 8.93837 5.63306 9.16906L8.81506 12.3511C9.15898 12.6951 9.59583 12.9314 10.072 13.0309C10.5483 13.1303 11.0432 13.0887 11.4961 12.9111C11.6574 12.8471 11.8087 12.7817 11.9501 12.7151L12.4141 12.4981C13.0341 12.2181 13.5121 12.0981 14.1181 12.7041C14.9901 13.5761 14.7641 14.3811 13.7011 15.1141C12.6421 15.8427 11.3615 16.1774 10.0815 16.0602C8.80144 15.9429 7.60293 15.381 6.69406 14.4721L3.51206 11.2901C2.99572 10.7806 2.58525 10.174 2.3043 9.50527C2.02335 8.83651 1.87746 8.11879 1.87503 7.39343C1.8726 6.66806 2.01368 5.94938 2.29014 5.27876C2.56661 4.60814 2.973 3.99883 3.48591 3.48591C3.99883 2.973 4.60814 2.56661 5.27876 2.29014C5.94938 2.01368 6.66806 1.8726 7.39342 1.87503C8.11879 1.87746 8.83651 2.02335 9.50527 2.3043C10.174 2.58526 10.7806 2.99672 11.2901 3.51306Z" fill="#B36A66"/>
</svg>
