<svg width="195" height="78" viewBox="0 0 195 78" fill="none" xmlns="http://www.w3.org/2000/svg">
<line y1="56.976" x2="185.719" y2="56.976" stroke="#FFF6F5" stroke-width="0.571425"/>
<path d="M114.871 3.3478C118.196 1.77341 121.972 0.549668 125.849 1.24012C129.885 1.68585 132.721 6.25286 131.516 9.85561C131.008 11.9426 129.877 13.7388 128.518 15.2947C129.688 13.5923 130.575 11.7065 130.836 9.72946C131.473 6.22334 128.9 3.08412 125.588 2.93914C122.327 2.63234 118.998 3.93208 116.038 5.58917C107.07 11.3598 99.7867 21.22 97.1162 31.3566C95.5605 37.0782 98.543 41.895 104.57 42.5093C112.259 43.6192 118.25 38.3133 123.36 31.767C116.546 31.8851 110.852 31.9944 104.1 31.3566C111.429 30.4583 118.795 29.7574 126.139 28.9686L127.659 28.818L126.875 30.1964C122.071 37.778 115.073 46.6093 104.1 45.7865C100.834 45.377 97.1208 44.1427 94.9245 40.9093C92.7492 37.6747 92.8769 33.8035 93.5578 30.5952C96.7647 18.838 104.472 9.22941 114.871 3.3478Z" fill="white"/>
<path d="M147.791 1.46369C147.935 1.41879 148.665 0.875072 149.784 1.23671C150.309 1.40534 150.819 1.91274 151.002 2.31387C151.191 2.68609 151.251 3.02809 151.273 3.32751C151.303 3.74168 151.232 4.20435 151.179 4.44908C151.048 5.0612 150.887 5.51014 150.689 6.02373C150.34 6.91313 149.901 7.81115 149.484 8.61113C148.62 10.2627 147.684 11.8305 146.712 13.3826C144.783 16.4475 142.71 19.4276 140.566 22.3352C136.49 27.8262 132.182 33.1509 127.413 38.0484C127.384 38.1352 127.355 38.2221 127.327 38.3092C126.699 40.1994 126.354 42.6046 127.403 43.0966C130.52 44.0687 135.185 41.4169 138.863 39.5578C140.753 38.5273 142.143 37.7494 144.007 36.6208C142.28 37.9496 141.015 38.9222 139.223 40.1481C135.482 42.3487 132.205 45.8531 126.544 44.8814C125.801 44.5564 125.224 43.9405 124.907 43.2201C124.607 42.5667 124.505 41.8059 124.483 41.2186C124.48 41.11 124.479 41.0022 124.479 40.8952C123.75 41.5548 123.001 42.1877 122.227 42.7737C123.019 42.0002 123.769 41.1772 124.496 40.3311C124.551 39.3829 124.728 38.4946 124.931 37.6415C125.499 35.3574 126.312 33.2987 127.221 31.227C130.93 23.0576 135.723 15.5631 141.109 8.48632C142.125 7.17605 143.116 5.95016 144.242 4.6845C144.763 4.10044 145.405 3.41395 145.973 2.87577C146.332 2.53464 146.666 2.23853 147.03 1.96162C147.276 1.77464 147.517 1.60952 147.791 1.46369ZM146.819 7.23015C145.836 8.36437 144.926 9.50196 143.987 10.713C138.766 17.5669 133.829 24.8465 129.842 32.473C129.348 33.4457 128.876 34.4137 128.447 35.3913C135.345 26.2368 141.937 14.7727 146.819 7.23015Z" fill="white"/>
<path d="M154.113 25.7338C155.119 25.8254 156.147 26.0833 156.941 26.6594C156.032 26.302 155.055 26.3032 154.126 26.4249C147.102 27.7734 140.183 34.0939 141.412 40.2525C141.582 41.1541 141.923 41.7863 142.317 42.0777C142.997 42.7107 144.987 42.512 146.767 41.7583C148.565 41.033 150.353 39.9347 151.997 38.6903C155.085 36.189 158.891 32.9624 158.519 28.8955C158.339 28.03 157.754 27.2414 156.941 26.6594C157.863 27.026 158.715 27.6848 159.171 28.665C160.675 33.5723 156.944 37.7531 153.886 40.8939C152.216 42.4771 150.333 43.8896 148.153 44.9227C146.022 45.8372 143.107 47.0287 140.095 44.9596C138.663 43.8477 138.1 42.2402 137.877 40.8682C136.815 31.0244 146.59 25.4989 154.113 25.7338Z" fill="white"/>
<path d="M57.6345 0.160156C55.1775 0.657241 53.5978 2.91827 51.995 4.7242C41.6154 17.6436 35.6049 32.4679 23.3418 45.5465C23.0168 45.7262 22.7674 45.865 22.2379 45.9667C21.9479 46.0159 21.608 46.0211 21.2576 45.9329C20.8765 45.8421 20.4808 45.6121 20.216 45.3408C19.3177 44.281 19.4704 43.6691 19.3871 43.1612C19.3421 42.1145 19.4496 41.387 19.5702 40.5356C19.8144 38.951 20.1622 37.4535 20.5256 35.9733C21.266 32.9974 22.1057 30.0962 22.9495 27.2046C24.6947 21.0695 26.7538 14.8982 28.0666 8.81296C19.0266 21.4768 9.37092 33.5976 0 45.9667C8.99252 31.3373 19.0311 17.0311 28.5055 2.66449C28.8879 2.03556 29.8959 1.554 30.7695 1.83608C31.6754 2.03292 32.3413 3.19783 32.2095 3.94598C31.3254 12.5241 28.6771 20.3138 26.4418 28.2262C25.6008 31.1072 24.751 33.9841 24.0014 36.8546C23.6376 38.2606 23.2897 39.6834 23.0535 41.0473C32.6653 30.3956 40.7255 15.5782 51.4816 4.26135C53.257 2.58174 55.0928 0.420324 57.6345 0.160156ZM31.0889 4.56429C31.1134 4.53449 31.1355 4.5049 31.1528 4.47456C31.1316 4.50452 31.1101 4.53433 31.0889 4.56429Z" fill="white"/>
<path d="M47.8657 24.84C49.4565 24.3823 51.443 25.3868 52.1895 26.4675C53.3226 27.769 53.2525 29.7337 52.8056 30.8597C52.372 32.0694 51.7257 32.9832 51.051 33.8198C49.6795 35.4781 48.1273 36.7757 46.507 37.9578C45.0376 39.0043 43.5131 39.9598 41.9309 40.79C41.8723 42.1364 42.18 43.1439 43.1231 43.0855C46.1753 43.3513 49.2974 42.2254 51.9621 40.245C52.8231 39.6194 53.6485 38.9245 54.45 38.1968C53.8306 39.0845 53.1655 39.9479 52.424 40.7598C50.1719 43.2983 46.8375 45.2926 43.1231 45.4646C42.0952 45.5627 40.6738 45.0633 39.9712 44.0312C39.5099 43.3906 39.2714 42.7299 39.1365 42.0932C38.0729 42.527 36.9844 42.9006 35.8695 43.2033C34.807 43.4689 33.6866 43.6786 32.6172 43.5684C33.6773 43.434 34.6786 43.0106 35.6328 42.5538C36.784 41.9745 37.8931 41.3234 38.9646 40.6203C38.9055 38.9213 39.2106 37.3646 39.6185 35.8533C40.5747 32.5886 41.9736 29.5038 44.5334 26.8393C45.366 26.0435 46.3079 25.2167 47.8657 24.84ZM49.01 28.3576C48.9041 28.3263 48.8394 28.3196 48.656 28.3616C48.2865 28.4426 47.6508 28.8628 47.0942 29.425C45.2465 31.3134 43.7703 34.1034 42.7927 36.8385C42.6445 37.2404 42.5074 37.6703 42.3876 38.1093C43.2427 37.4166 44.0722 36.6984 44.8764 35.9634C46.2405 34.6918 47.5326 33.3404 48.5285 31.9071C49.0169 31.1997 49.4253 30.4541 49.5968 29.8234C49.6832 29.5123 49.7001 29.2421 49.67 29.0794C49.637 28.9112 49.596 28.8443 49.4875 28.7227C49.2831 28.4929 49.1146 28.392 49.01 28.3576Z" fill="white"/>
<path d="M90.8381 12.4336C89.6247 13.2902 88.6748 14.4232 87.7074 15.5425C80.5316 24.4538 74.2312 34.0987 67.6474 43.4509C67.1502 44.2752 65.7439 44.6555 64.9001 44.2122C64.0027 43.8912 63.3292 42.5917 63.6031 41.6634C63.897 40.2788 64.1965 38.8952 64.5012 37.5129C64.7438 36.4129 64.9901 35.3138 65.2395 34.2153C62.4022 37.5747 59.5243 40.9016 56.6036 44.1944C56.2238 44.7203 55.2969 44.9081 54.75 44.5795C54.1664 44.3194 53.7982 43.4721 54.0019 42.8859C55.0215 39.6387 56.0721 36.3993 57.1535 33.1679C57.6248 31.7594 58.102 30.3522 58.5851 28.9468C58.337 30.4122 58.0831 31.8765 57.8233 33.3389C57.3839 35.8125 56.9269 38.2816 56.4539 40.7466C59.5774 36.4194 62.7621 32.1411 66.0084 27.9118C66.5243 27.1614 67.8517 26.8475 68.6593 27.2926C69.5161 27.6328 70.121 28.8629 69.8675 29.7467C69.4196 31.9459 68.9575 34.1422 68.4825 36.3354C74.1871 28.8083 80.2363 21.5037 87.2139 15.0583C88.3485 14.0789 89.4919 13.0855 90.8381 12.4336ZM55.9426 43.3802C55.952 43.3544 55.9579 43.3208 55.9613 43.283C55.9549 43.3153 55.949 43.3479 55.9426 43.3802ZM68.6149 30.1807C68.6512 30.1442 68.6845 30.1069 68.7108 30.0661C68.6791 30.1045 68.6466 30.1423 68.6149 30.1807Z" fill="white"/>
<path d="M195.002 12.8906C193.789 13.7472 192.839 14.8802 191.872 15.9995C184.696 24.9109 178.395 34.5557 171.811 43.9079C171.314 44.7322 169.908 45.1126 169.064 44.6692C168.167 44.3482 167.493 43.0488 167.767 42.1205C168.061 40.7358 168.361 39.3522 168.665 37.97C168.908 36.87 169.154 35.7708 169.404 34.6723C166.566 38.0317 163.688 41.3587 160.768 44.6515C160.388 45.1773 159.461 45.3652 158.914 45.0366C158.33 44.7764 157.962 43.9291 158.166 43.3429C159.186 40.0957 160.236 36.8563 161.318 33.6249C161.789 32.2164 162.266 30.8093 162.749 29.4038C162.501 30.8692 162.247 32.3335 161.987 33.7959C161.548 36.2695 161.091 38.7387 160.618 41.2037C163.741 36.8765 166.926 32.5981 170.172 28.3688C170.688 27.6184 172.016 27.3046 172.823 27.7496C173.68 28.0899 174.285 29.32 174.032 30.2038C173.584 32.403 173.122 34.5992 172.647 36.7924C178.351 29.2654 184.4 21.9607 191.378 15.5153C192.513 14.536 193.656 13.5425 195.002 12.8906ZM160.107 43.8373C160.116 43.8114 160.122 43.7778 160.125 43.74C160.119 43.7724 160.113 43.8049 160.107 43.8373ZM172.779 30.6377C172.815 30.6012 172.849 30.5639 172.875 30.5231C172.843 30.5615 172.811 30.5994 172.779 30.6377Z" fill="white"/>
<path d="M94.5509 64.4157H96.9509L99.5909 72.4557C99.7242 72.8423 99.8509 73.2223 99.9709 73.5956C100.091 73.9556 100.204 74.3223 100.311 74.6956H100.351C100.458 74.3223 100.564 73.9623 100.671 73.6156C100.791 73.269 100.924 72.8823 101.071 72.4557L103.651 64.4157H106.051L107.151 77.0156H105.311L104.791 70.3357C104.738 69.6823 104.698 69.0357 104.671 68.3957C104.644 67.7424 104.618 67.0824 104.591 66.4157H104.551C104.364 67.069 104.171 67.7224 103.971 68.3757C103.784 69.029 103.584 69.6823 103.371 70.3357L101.151 77.0156H99.4709L97.2509 70.3157C97.0242 69.6357 96.8176 68.989 96.6309 68.3757C96.4442 67.749 96.2576 67.0957 96.0709 66.4157H96.0309C96.0042 67.069 95.9642 67.7224 95.9109 68.3757C95.8709 69.029 95.8242 69.6823 95.7709 70.3357L95.2909 77.0156H93.4909L94.5509 64.4157ZM112.022 64.4157H119.622V65.9357H113.862V69.7157H119.102V71.2157H113.862V75.4956H119.682V77.0156H112.022V64.4157ZM128.141 64.4157C129.035 64.4157 129.861 64.5424 130.621 64.7957C131.381 65.049 132.034 65.429 132.581 65.9357C133.141 66.429 133.574 67.0557 133.881 67.8157C134.201 68.5623 134.361 69.4357 134.361 70.4357C134.361 71.649 134.174 72.6757 133.801 73.5156C133.428 74.3556 132.921 75.0356 132.281 75.5556C131.654 76.0756 130.921 76.449 130.081 76.6756C129.254 76.9023 128.375 77.0156 127.441 77.0156H124.041V64.4157H128.141ZM125.881 75.4956H127.261C127.901 75.4956 128.528 75.429 129.141 75.2956C129.754 75.149 130.294 74.889 130.761 74.5156C131.241 74.129 131.628 73.609 131.921 72.9557C132.214 72.3023 132.361 71.4623 132.361 70.4357C132.361 69.7157 132.254 69.0757 132.041 68.5157C131.828 67.9557 131.521 67.489 131.121 67.1157C130.721 66.729 130.234 66.4357 129.661 66.2357C129.101 66.0357 128.475 65.9357 127.781 65.9357H125.881V75.4956ZM148.847 64.2357C149.46 64.2357 150.053 64.289 150.627 64.3957C151.2 64.489 151.767 64.669 152.327 64.9357L151.887 66.4557C151.313 66.189 150.793 66.0024 150.327 65.8957C149.873 65.7757 149.407 65.7157 148.927 65.7157C148.167 65.7157 147.567 65.8824 147.127 66.2157C146.687 66.549 146.467 67.0157 146.467 67.6157C146.467 68.1223 146.627 68.529 146.947 68.8357C147.28 69.1423 147.82 69.409 148.567 69.6357L149.827 70.0357C150.973 70.3957 151.78 70.889 152.247 71.5157C152.727 72.129 152.967 72.8223 152.967 73.5956C152.967 74.1423 152.853 74.6423 152.627 75.0956C152.413 75.5356 152.107 75.9156 151.707 76.2356C151.32 76.5423 150.86 76.7823 150.327 76.9556C149.793 77.1156 149.207 77.1956 148.567 77.1956C147.927 77.1956 147.273 77.1356 146.607 77.0156C145.953 76.909 145.3 76.7023 144.647 76.3956L145.087 74.8956C145.66 75.1756 146.22 75.3823 146.767 75.5156C147.313 75.649 147.887 75.7156 148.487 75.7156C149.207 75.7156 149.82 75.549 150.327 75.2156C150.833 74.8823 151.087 74.389 151.087 73.7356C151.087 73.4956 151.047 73.2756 150.967 73.0757C150.9 72.8623 150.773 72.6623 150.587 72.4757C150.413 72.289 150.173 72.1157 149.867 71.9557C149.56 71.7957 149.173 71.6423 148.707 71.4957L147.447 71.0957C146.527 70.8023 145.82 70.4023 145.327 69.8957C144.833 69.389 144.587 68.7023 144.587 67.8357C144.587 66.729 144.947 65.8557 145.667 65.2157C146.4 64.5624 147.46 64.2357 148.847 64.2357ZM157.404 64.4157H161.364C162.018 64.4157 162.611 64.5024 163.144 64.6757C163.678 64.8357 164.138 65.0824 164.524 65.4157C164.911 65.7357 165.211 66.1357 165.424 66.6157C165.638 67.0824 165.744 67.6224 165.744 68.2357C165.744 68.9023 165.631 69.4823 165.404 69.9757C165.178 70.4557 164.858 70.8557 164.444 71.1757C164.031 71.4957 163.544 71.7357 162.984 71.8957C162.424 72.0557 161.804 72.1357 161.124 72.1357H159.244V77.0156H157.404V64.4157ZM159.244 70.6357H160.384C160.878 70.6357 161.338 70.6023 161.764 70.5357C162.191 70.469 162.551 70.349 162.844 70.1757C163.151 70.0023 163.391 69.7623 163.564 69.4557C163.738 69.1357 163.824 68.7357 163.824 68.2557C163.824 67.8157 163.738 67.449 163.564 67.1557C163.404 66.849 163.191 66.6024 162.924 66.4157C162.658 66.229 162.351 66.0957 162.004 66.0157C161.658 65.9357 161.304 65.8957 160.944 65.8957H159.244V70.6357ZM172.397 64.4157H174.037L179.057 77.0156H177.137L175.757 73.5156H170.577L169.217 77.0156H167.317L172.397 64.4157ZM171.077 72.0557H175.217L174.377 69.8757C174.15 69.3023 173.943 68.749 173.757 68.2157C173.57 67.6824 173.383 67.1357 173.197 66.5757H173.157C172.97 67.1357 172.777 67.6757 172.577 68.1957C172.377 68.7157 172.163 69.2757 171.937 69.8757L171.077 72.0557Z" fill="#FFF6F5"/>
</svg>
