<svg width="105" height="27" viewBox="0 0 105 27" fill="none" xmlns="http://www.w3.org/2000/svg">
<path d="M76.8882 26.3666L73.8971 18.9156H74.8019L77.8356 26.3666H76.8882ZM70.8315 26.3666L73.8652 18.9156H74.7806L71.7895 26.3666H70.8315ZM72.2685 24.2484V23.4394H76.4092V24.2484H72.2685Z" fill="#3C3C3C"/>
<path d="M64.4966 26.3666V18.9156H66.9235C67.4061 18.9156 67.8318 19.0149 68.2008 19.2136C68.5769 19.4123 68.8679 19.6891 69.0737 20.0439C69.2866 20.3987 69.393 20.8103 69.393 21.2786C69.393 21.7328 69.2972 22.1373 69.1056 22.4921C68.914 22.8469 68.6515 23.1272 68.3179 23.333C67.9844 23.5317 67.5977 23.631 67.1577 23.631H65.4014V26.3666H64.4966ZM65.4014 22.8114H67.1577C67.548 22.8114 67.8673 22.6695 68.1157 22.3856C68.3711 22.0947 68.4989 21.7257 68.4989 21.2786C68.4989 20.8174 68.3499 20.4448 68.0518 20.161C67.7538 19.8771 67.3741 19.7352 66.9129 19.7352H65.4014V22.8114Z" fill="#3C3C3C"/>
<path d="M59.2782 26.4944C58.8666 26.4944 58.5011 26.4518 58.1818 26.3667C57.8625 26.2744 57.5857 26.1502 57.3516 25.9941C57.1174 25.8309 56.9258 25.6535 56.7768 25.4619C56.6277 25.2632 56.5177 25.0539 56.4468 24.8339L57.309 24.5358C57.4154 24.8481 57.6283 25.1213 57.9476 25.3554C58.2741 25.5825 58.6715 25.6961 59.1398 25.6961C59.7146 25.6961 60.1652 25.5825 60.4917 25.3554C60.8181 25.1284 60.9813 24.8268 60.9813 24.4507C60.9813 24.1029 60.8358 23.8226 60.5449 23.6098C60.2539 23.3898 59.8707 23.2195 59.3953 23.0988L58.5757 22.8859C58.2421 22.8008 57.9334 22.6766 57.6496 22.5134C57.3728 22.3431 57.1493 22.1302 56.979 21.8747C56.8158 21.6122 56.7342 21.2999 56.7342 20.938C56.7342 20.2639 56.9506 19.7387 57.3835 19.3626C57.8235 18.9794 58.455 18.7878 59.2782 18.7878C59.7678 18.7878 60.1901 18.8694 60.5449 19.0327C60.8997 19.1888 61.1871 19.391 61.4071 19.6394C61.6342 19.8807 61.7938 20.1432 61.8861 20.4271L61.0345 20.7251C60.8997 20.3703 60.6726 20.0936 60.3533 19.8949C60.0339 19.6891 59.6472 19.5862 59.193 19.5862C58.7176 19.5862 58.3379 19.7033 58.0541 19.9374C57.7773 20.1645 57.6389 20.4768 57.6389 20.8741C57.6389 21.2148 57.7489 21.4773 57.9689 21.6618C58.1889 21.8392 58.4763 21.9705 58.8311 22.0557L59.6507 22.2579C60.3746 22.4282 60.9281 22.7121 61.3113 23.1095C61.7016 23.4998 61.8967 23.922 61.8967 24.3762C61.8967 24.7665 61.7974 25.1248 61.5987 25.4512C61.4 25.7706 61.1055 26.026 60.7152 26.2176C60.332 26.4021 59.853 26.4944 59.2782 26.4944Z" fill="#3C3C3C"/>
<path d="M44.8066 26.3666V18.9156H47.0739C47.7764 18.9156 48.3938 19.0752 48.926 19.3946C49.4653 19.7068 49.8876 20.1432 50.1927 20.7038C50.4978 21.2644 50.6504 21.9102 50.6504 22.6411C50.6504 23.3649 50.4978 24.0071 50.1927 24.5677C49.8876 25.1283 49.4653 25.5683 48.926 25.8876C48.3938 26.207 47.7764 26.3666 47.0739 26.3666H44.8066ZM45.7114 25.5364H47.0739C47.45 25.5364 47.7977 25.4654 48.1171 25.3235C48.4364 25.1745 48.7167 24.9651 48.958 24.6955C49.2063 24.4258 49.3979 24.1171 49.5328 23.7694C49.6747 23.4146 49.7456 23.0385 49.7456 22.6411C49.7456 22.2437 49.6747 21.8712 49.5328 21.5234C49.3979 21.1686 49.2063 20.8564 48.958 20.5867C48.7167 20.3171 48.4364 20.1113 48.1171 19.9694C47.7977 19.8203 47.45 19.7458 47.0739 19.7458H45.7114V25.5364Z" fill="#3C3C3C"/>
<path d="M37.4429 26.3666V18.9156H41.8497V19.7352H38.3476V22.1408H41.541V22.9498H38.3476V25.547H41.8709V26.3666H37.4429Z" fill="#3C3C3C"/>
<path d="M27.3765 26.3666V18.9156H28.3132L30.8891 22.7263L33.4651 18.9156H34.3911V26.3666H33.497V20.3632L30.8891 24.2484L28.2812 20.3845V26.3666H27.3765Z" fill="#3C3C3C"/>
<path d="M88.9178 0.193237L91.2152 8.15928C91.2725 8.33106 91.3298 8.55293 91.387 8.82491C91.4586 9.08257 91.5302 9.3617 91.6017 9.66231C91.6733 9.9486 91.7377 10.242 91.795 10.5427C91.8522 10.8289 91.8952 11.1009 91.9238 11.3586H91.9668C92.0097 11.1009 92.0598 10.8289 92.1171 10.5427C92.1886 10.242 92.2602 9.9486 92.3318 9.66231C92.4034 9.3617 92.4678 9.08257 92.525 8.82491C92.5966 8.56725 92.661 8.34537 92.7183 8.15928L95.0802 0.193237H96.8409L99.2886 8.15928C99.3459 8.34537 99.4032 8.56725 99.4604 8.82491C99.532 9.08257 99.5964 9.35455 99.6537 9.64084C99.7252 9.92713 99.7897 10.2206 99.8469 10.5212C99.9185 10.8218 99.9757 11.1009 100.019 11.3586H100.062C100.105 11.0866 100.155 10.8003 100.212 10.4997C100.284 10.1991 100.355 9.90566 100.427 9.61937C100.498 9.31876 100.563 9.04679 100.62 8.80344C100.691 8.54578 100.749 8.33106 100.792 8.15928L103.003 0.193237H105L101.028 13.7205H99.031L96.9697 6.52743C96.8695 6.16956 96.7693 5.83317 96.6691 5.51825C96.5832 5.20333 96.4973 4.90272 96.4114 4.61643C96.3399 4.33014 96.2611 4.04385 96.1752 3.75756C96.1037 3.45695 96.0249 3.14203 95.939 2.8128H95.8961C95.753 3.45695 95.5955 4.10111 95.4237 4.74526C95.2519 5.38942 95.0873 5.98347 94.9299 6.52743L92.933 13.7205H90.9576L86.8994 0.193237H88.9178Z" fill="url(#paint0_linear_2268_2428)"/>
<path d="M78.9836 0C79.8997 0 80.7442 0.150303 81.5172 0.450909C82.2902 0.737199 82.9558 1.17379 83.5141 1.76069C84.0867 2.33327 84.5304 3.05616 84.8454 3.92934C85.1603 4.78822 85.3177 5.79739 85.3177 6.95687C85.3177 8.08772 85.1531 9.08974 84.8239 9.96292C84.4947 10.8218 84.0437 11.5447 83.4712 12.1316C82.8986 12.7185 82.2186 13.1622 81.4313 13.4628C80.6584 13.7634 79.8138 13.9137 78.8977 13.9137C77.9815 13.9137 77.137 13.7706 76.364 13.4843C75.591 13.1837 74.9182 12.7471 74.3456 12.1745C73.7874 11.5876 73.3508 10.8647 73.0359 10.0059C72.7209 9.13268 72.5635 8.11635 72.5635 6.95687C72.5635 5.82602 72.7281 4.83116 73.0573 3.97229C73.3866 3.0991 73.8375 2.36906 74.4101 1.78216C74.9826 1.19527 75.6554 0.751515 76.4284 0.450909C77.2157 0.150303 78.0674 0 78.9836 0ZM74.7107 6.95687C74.7107 7.873 74.818 8.66746 75.0327 9.34024C75.2618 10.013 75.5695 10.5713 75.956 11.015C76.3425 11.4588 76.7934 11.788 77.3088 12.0027C77.8384 12.2175 78.3967 12.3248 78.9836 12.3248C79.5704 12.3248 80.1144 12.2175 80.6154 12.0027C81.1307 11.788 81.5745 11.4588 81.9467 11.015C82.3332 10.5713 82.6338 10.013 82.8485 9.34024C83.0632 8.66746 83.1706 7.873 83.1706 6.95687C83.1706 6.01211 83.056 5.20334 82.827 4.53055C82.6123 3.85777 82.3117 3.30666 81.9252 2.87722C81.5387 2.43347 81.0806 2.1114 80.551 1.91099C80.0357 1.69627 79.4846 1.58892 78.8977 1.58892C78.3108 1.58892 77.7597 1.69627 77.2443 1.91099C76.729 2.12571 76.2853 2.45495 75.9131 2.8987C75.5409 3.34245 75.2475 3.90071 75.0327 4.5735C74.818 5.24628 74.7107 6.04074 74.7107 6.95687Z" fill="url(#paint1_linear_2268_2428)"/>
<path d="M64.3525 0.193237H66.328V12.0457H72.1039V13.7205H64.3525V0.193237Z" fill="url(#paint2_linear_2268_2428)"/>
<path d="M56.9839 0C57.7712 0 58.4798 0.0572583 59.1096 0.171775C59.7538 0.286291 60.3478 0.486695 60.8918 0.772986L60.4194 2.31896C59.8897 2.07561 59.3673 1.89668 58.8519 1.78216C58.3509 1.66765 57.807 1.61039 57.2201 1.61039C56.5902 1.61039 55.989 1.70343 55.4165 1.88952C54.8439 2.07561 54.3357 2.38337 53.892 2.81281C53.4625 3.22793 53.119 3.77904 52.8613 4.46614C52.6036 5.13892 52.4748 5.97632 52.4748 6.97834C52.4748 8.7104 52.8685 10.0273 53.6558 10.9292C54.4431 11.831 55.5524 12.2819 56.9839 12.2819C57.5278 12.2819 57.9931 12.2533 58.3796 12.196C58.7804 12.1387 59.1669 12.0385 59.539 11.8954V8.13782H56.9839V6.59185H61.3856V13.1193C60.813 13.3483 60.176 13.5416 59.4746 13.699C58.7732 13.8422 57.943 13.9137 56.9839 13.9137C56.0535 13.9137 55.1803 13.7634 54.3643 13.4628C53.5627 13.1622 52.8613 12.7185 52.2601 12.1316C51.6589 11.5447 51.1865 10.8218 50.843 9.96292C50.4994 9.10405 50.3276 8.10919 50.3276 6.97834C50.3276 5.84749 50.4923 4.84547 50.8215 3.97229C51.165 3.0991 51.6303 2.36906 52.2172 1.78216C52.8041 1.19527 53.5055 0.751515 54.3214 0.450909C55.1373 0.150303 56.0248 0 56.9839 0Z" fill="url(#paint3_linear_2268_2428)"/>
<path d="M25.1184 0.193237L27.4159 8.15928C27.4732 8.33106 27.5304 8.55293 27.5877 8.82491C27.6593 9.08257 27.7309 9.3617 27.8024 9.66231C27.874 9.9486 27.9384 10.242 27.9957 10.5427C28.0529 10.8289 28.0959 11.1009 28.1245 11.3586H28.1674C28.2104 11.1009 28.2605 10.8289 28.3177 10.5427C28.3893 10.242 28.4609 9.9486 28.5325 9.66231C28.604 9.3617 28.6685 9.08257 28.7257 8.82491C28.7973 8.56725 28.8617 8.34537 28.919 8.15928L31.2809 0.193237H33.0416L35.4893 8.15928C35.5466 8.34537 35.6039 8.56725 35.6611 8.82491C35.7327 9.08257 35.7971 9.35455 35.8544 9.64084C35.9259 9.92713 35.9903 10.2206 36.0476 10.5212C36.1192 10.8218 36.1764 11.1009 36.2194 11.3586H36.2623C36.3053 11.0866 36.3554 10.8003 36.4126 10.4997C36.4842 10.1991 36.5558 9.90566 36.6273 9.61937C36.6989 9.31876 36.7633 9.04679 36.8206 8.80344C36.8922 8.54578 36.9494 8.33106 36.9924 8.15928L39.204 0.193237H41.2008L37.2286 13.7205H35.2317L33.1704 6.52743C33.0702 6.16956 32.97 5.83317 32.8698 5.51825C32.7839 5.20333 32.698 4.90272 32.6121 4.61643C32.5405 4.33014 32.4618 4.04385 32.3759 3.75756C32.3043 3.45695 32.2256 3.14203 32.1397 2.8128H32.0968C31.9536 3.45695 31.7962 4.10111 31.6244 4.74526C31.4526 5.38942 31.288 5.98347 31.1306 6.52743L29.1337 13.7205H27.1583L23.1001 0.193237H25.1184Z" fill="url(#paint4_linear_2268_2428)"/>
<path d="M13.8896 0.193237H22.0489V1.8251H15.8651V5.88327H21.4907V7.49366H15.8651V12.0886H22.1134V13.7205H13.8896V0.193237Z" fill="url(#paint5_linear_2268_2428)"/>
<path d="M0 0.193237H1.71775L7.88016 8.76049C8.10919 9.07541 8.33107 9.39749 8.54578 9.72673C8.7605 10.056 8.95375 10.378 9.12552 10.693H9.16847C9.13984 10.1919 9.11836 9.69094 9.10405 9.18993C9.08974 8.68892 9.08258 8.18791 9.08258 7.6869V0.193237H11.015V13.7205H9.2973L3.1993 5.26059C2.98458 4.95998 2.76271 4.62359 2.53367 4.25141C2.30464 3.86492 2.08992 3.48558 1.88952 3.11341H1.84658C1.87521 3.71462 1.89668 4.31583 1.91099 4.91704C1.92531 5.51825 1.93246 6.11946 1.93246 6.72067V13.7205H0V0.193237Z" fill="url(#paint6_linear_2268_2428)"/>
<defs>
<linearGradient id="paint0_linear_2268_2428" x1="-14.064" y1="7.27894" x2="105.641" y2="7.27894" gradientUnits="userSpaceOnUse">
<stop stop-color="#C88677"/>
<stop offset="1" stop-color="#D99E9E"/>
</linearGradient>
<linearGradient id="paint1_linear_2268_2428" x1="-12.4536" y1="7.27894" x2="107.252" y2="7.27894" gradientUnits="userSpaceOnUse">
<stop stop-color="#C88677"/>
<stop offset="1" stop-color="#D99E9E"/>
</linearGradient>
<linearGradient id="paint2_linear_2268_2428" x1="-9.76979" y1="7.27894" x2="109.936" y2="7.27894" gradientUnits="userSpaceOnUse">
<stop stop-color="#C88677"/>
<stop offset="1" stop-color="#D99E9E"/>
</linearGradient>
<linearGradient id="paint3_linear_2268_2428" x1="-7.62268" y1="7.27894" x2="112.083" y2="7.27894" gradientUnits="userSpaceOnUse">
<stop stop-color="#C88677"/>
<stop offset="1" stop-color="#D99E9E"/>
</linearGradient>
<linearGradient id="paint4_linear_2268_2428" x1="-6.5492" y1="7.27894" x2="113.156" y2="7.27894" gradientUnits="userSpaceOnUse">
<stop stop-color="#C88677"/>
<stop offset="1" stop-color="#D99E9E"/>
</linearGradient>
<linearGradient id="paint5_linear_2268_2428" x1="-4.40176" y1="7.27894" x2="115.304" y2="7.27894" gradientUnits="userSpaceOnUse">
<stop stop-color="#C88677"/>
<stop offset="1" stop-color="#D99E9E"/>
</linearGradient>
<linearGradient id="paint6_linear_2268_2428" x1="-1.71785" y1="7.27894" x2="117.988" y2="7.27894" gradientUnits="userSpaceOnUse">
<stop stop-color="#C88677"/>
<stop offset="1" stop-color="#D99E9E"/>
</linearGradient>
</defs>
</svg>
