<svg width="187" height="32" viewBox="0 0 187 32" fill="none" xmlns="http://www.w3.org/2000/svg">
<g filter="url(#filter0_d_2244_578)">
<path d="M166.598 20.2832L170.438 10.4141L168.144 4.58984H171.432L177.447 19.9219L182.627 4.58984H186.163L177.354 27.9746L172.071 14.5615L166.189 28.0371L157.227 4.58984H161.072L166.598 20.2832Z" fill="url(#paint0_linear_2244_578)"/>
</g>
<g filter="url(#filter1_d_2244_578)">
<path d="M114.109 4.46484H117.428V23.7869H128.686V26.9814H114.109V4.46484Z" fill="url(#paint1_linear_2244_578)"/>
</g>
<g filter="url(#filter2_d_2244_578)">
<path d="M107.878 24.9907C107.568 25.2595 107.134 25.5283 106.575 25.7971C106.017 26.0659 105.386 26.3036 104.683 26.5104C104.001 26.7172 103.298 26.8826 102.574 27.0066C101.851 27.1514 101.168 27.2237 100.527 27.2237C98.708 27.2237 97.0745 26.9446 95.6272 26.3863C94.1798 25.8281 92.9393 25.0527 91.9054 24.0602C90.8716 23.0678 90.0756 21.9099 89.5173 20.5866C88.9797 19.2427 88.7109 17.785 88.7109 16.2136C88.7109 14.2907 89.0211 12.5849 89.6414 11.0962C90.2617 9.60747 91.0991 8.35655 92.1536 7.34341C93.2287 6.30959 94.459 5.53422 95.8443 5.01732C97.2503 4.47973 98.7183 4.21094 100.248 4.21094C101.592 4.21094 102.833 4.36601 103.97 4.67616C105.128 4.9863 106.12 5.38949 106.947 5.88572L105.862 8.92515C105.448 8.69771 104.932 8.48061 104.311 8.27384C103.712 8.0464 103.091 7.87065 102.45 7.7466C101.809 7.62254 101.22 7.56051 100.683 7.56051C99.3593 7.56051 98.1704 7.75693 97.1159 8.14978C96.0821 8.52196 95.193 9.06988 94.4486 9.79356C93.7043 10.5172 93.1253 11.396 92.7118 12.4298C92.319 13.4636 92.1225 14.6318 92.1225 15.9344C92.1225 17.113 92.3293 18.1985 92.7428 19.191C93.1564 20.1628 93.7353 21.0105 94.4796 21.7342C95.224 22.4372 96.1131 22.9851 97.1469 23.3779C98.1807 23.7501 99.3283 23.9362 100.59 23.9362C101.313 23.9362 102.027 23.8638 102.73 23.7191C103.433 23.5744 104.032 23.3676 104.528 23.0988V19.0049H100.186V15.8104H107.878V24.9907Z" fill="url(#paint2_linear_2244_578)"/>
</g>
<g filter="url(#filter3_d_2244_578)">
<path d="M55.043 20.2832L58.8828 10.4141L56.5889 4.58984H59.876L65.8926 19.9219L71.0723 4.58984H74.6084L65.7998 27.9746L60.5166 14.5615L54.6348 28.0371L45.6719 4.58984H49.5176L55.043 20.2832Z" fill="url(#paint3_linear_2244_578)"/>
</g>
<g filter="url(#filter4_d_2244_578)">
<path d="M26.7031 4.46484H41.4971V7.65934H30.0217V14.0794H40.2255V17.2739H30.0217V23.7869H41.9313V26.9814H26.7031V4.46484Z" fill="url(#paint4_linear_2244_578)"/>
</g>
<g filter="url(#filter5_d_2244_578)">
<path d="M16.4971 20.2109L16.4375 4.46387H19.7256V27.7559H19.6318L3.25977 11.5L3.34961 26.9805H0V3.75H0.155273L16.4971 20.2109Z" fill="url(#paint5_linear_2244_578)"/>
</g>
<g filter="url(#filter6_d_2244_578)">
<path d="M142.617 7.49121C141.903 7.58955 141.228 7.77882 140.593 8.0625C139.621 8.49669 138.763 9.09637 138.019 9.86133C137.274 10.6262 136.696 11.5154 136.282 12.5283C135.889 13.5414 135.692 14.6168 135.692 15.7539C135.692 16.9118 135.9 17.9976 136.313 19.0107C136.748 20.0031 137.337 20.8815 138.081 21.6465C138.825 22.3908 139.683 22.9808 140.655 23.415C141.28 23.6755 141.935 23.8528 142.617 23.9492V27.1777C141.449 27.0714 140.34 26.7998 139.291 26.3613C137.906 25.7824 136.685 24.9761 135.631 23.9424C134.576 22.8879 133.749 21.6675 133.149 20.2822C132.571 18.8763 132.281 17.3666 132.281 15.7539C132.281 14.2035 132.571 12.7357 133.149 11.3506C133.749 9.96527 134.576 8.73435 135.631 7.65918C136.685 6.58408 137.906 5.74705 139.291 5.14746C140.34 4.67762 141.449 4.38734 142.617 4.27344V7.49121ZM145.202 4.31152C146.242 4.44479 147.239 4.72107 148.191 5.14746C149.577 5.74708 150.808 6.58401 151.883 7.65918C152.958 8.73433 153.795 9.9653 154.395 11.3506C154.994 12.7357 155.294 14.2034 155.294 15.7539C155.294 17.346 154.994 18.8354 154.395 20.2207C153.795 21.6058 152.958 22.8255 151.883 23.8799C150.828 24.9344 149.597 25.7617 148.191 26.3613C147.239 26.7593 146.242 27.0163 145.202 27.1406V23.9258C145.82 23.8254 146.414 23.6569 146.982 23.415C147.954 22.9808 148.802 22.3908 149.525 21.6465C150.27 20.8816 150.848 20.003 151.262 19.0107C151.675 17.9976 151.883 16.9118 151.883 15.7539C151.883 14.5961 151.666 13.5207 151.231 12.5283C150.818 11.5153 150.238 10.6263 149.494 9.86133C148.77 9.09637 147.912 8.49668 146.92 8.0625C146.371 7.81706 145.798 7.64282 145.202 7.53613V4.31152Z" fill="url(#paint6_linear_2244_578)"/>
</g>
<defs>
<filter id="filter0_d_2244_578" x="157.227" y="4.58984" width="28.9375" height="26.0147" filterUnits="userSpaceOnUse" color-interpolation-filters="sRGB">
<feFlood flood-opacity="0" result="BackgroundImageFix"/>
<feColorMatrix in="SourceAlpha" type="matrix" values="0 0 0 0 0 0 0 0 0 0 0 0 0 0 0 0 0 0 127 0" result="hardAlpha"/>
<feOffset dy="2.56546"/>
<feComposite in2="hardAlpha" operator="out"/>
<feColorMatrix type="matrix" values="0 0 0 0 0 0 0 0 0 0 0 0 0 0 0 0 0 0 0.25 0"/>
<feBlend mode="normal" in2="BackgroundImageFix" result="effect1_dropShadow_2244_578"/>
<feBlend mode="normal" in="SourceGraphic" in2="effect1_dropShadow_2244_578" result="shape"/>
</filter>
<filter id="filter1_d_2244_578" x="114.109" y="4.46484" width="14.5781" height="25.0811" filterUnits="userSpaceOnUse" color-interpolation-filters="sRGB">
<feFlood flood-opacity="0" result="BackgroundImageFix"/>
<feColorMatrix in="SourceAlpha" type="matrix" values="0 0 0 0 0 0 0 0 0 0 0 0 0 0 0 0 0 0 127 0" result="hardAlpha"/>
<feOffset dy="2.56546"/>
<feComposite in2="hardAlpha" operator="out"/>
<feColorMatrix type="matrix" values="0 0 0 0 0 0 0 0 0 0 0 0 0 0 0 0 0 0 0.25 0"/>
<feBlend mode="normal" in2="BackgroundImageFix" result="effect1_dropShadow_2244_578"/>
<feBlend mode="normal" in="SourceGraphic" in2="effect1_dropShadow_2244_578" result="shape"/>
</filter>
<filter id="filter2_d_2244_578" x="88.7109" y="4.21094" width="19.1641" height="25.5772" filterUnits="userSpaceOnUse" color-interpolation-filters="sRGB">
<feFlood flood-opacity="0" result="BackgroundImageFix"/>
<feColorMatrix in="SourceAlpha" type="matrix" values="0 0 0 0 0 0 0 0 0 0 0 0 0 0 0 0 0 0 127 0" result="hardAlpha"/>
<feOffset dy="2.56546"/>
<feComposite in2="hardAlpha" operator="out"/>
<feColorMatrix type="matrix" values="0 0 0 0 0 0 0 0 0 0 0 0 0 0 0 0 0 0 0.25 0"/>
<feBlend mode="normal" in2="BackgroundImageFix" result="effect1_dropShadow_2244_578"/>
<feBlend mode="normal" in="SourceGraphic" in2="effect1_dropShadow_2244_578" result="shape"/>
</filter>
<filter id="filter3_d_2244_578" x="45.6719" y="4.58984" width="28.9375" height="26.0147" filterUnits="userSpaceOnUse" color-interpolation-filters="sRGB">
<feFlood flood-opacity="0" result="BackgroundImageFix"/>
<feColorMatrix in="SourceAlpha" type="matrix" values="0 0 0 0 0 0 0 0 0 0 0 0 0 0 0 0 0 0 127 0" result="hardAlpha"/>
<feOffset dy="2.56546"/>
<feComposite in2="hardAlpha" operator="out"/>
<feColorMatrix type="matrix" values="0 0 0 0 0 0 0 0 0 0 0 0 0 0 0 0 0 0 0.25 0"/>
<feBlend mode="normal" in2="BackgroundImageFix" result="effect1_dropShadow_2244_578"/>
<feBlend mode="normal" in="SourceGraphic" in2="effect1_dropShadow_2244_578" result="shape"/>
</filter>
<filter id="filter4_d_2244_578" x="26.7031" y="4.46484" width="15.2266" height="25.0811" filterUnits="userSpaceOnUse" color-interpolation-filters="sRGB">
<feFlood flood-opacity="0" result="BackgroundImageFix"/>
<feColorMatrix in="SourceAlpha" type="matrix" values="0 0 0 0 0 0 0 0 0 0 0 0 0 0 0 0 0 0 127 0" result="hardAlpha"/>
<feOffset dy="2.56546"/>
<feComposite in2="hardAlpha" operator="out"/>
<feColorMatrix type="matrix" values="0 0 0 0 0 0 0 0 0 0 0 0 0 0 0 0 0 0 0.25 0"/>
<feBlend mode="normal" in2="BackgroundImageFix" result="effect1_dropShadow_2244_578"/>
<feBlend mode="normal" in="SourceGraphic" in2="effect1_dropShadow_2244_578" result="shape"/>
</filter>
<filter id="filter5_d_2244_578" x="0" y="3.75" width="19.7266" height="26.5733" filterUnits="userSpaceOnUse" color-interpolation-filters="sRGB">
<feFlood flood-opacity="0" result="BackgroundImageFix"/>
<feColorMatrix in="SourceAlpha" type="matrix" values="0 0 0 0 0 0 0 0 0 0 0 0 0 0 0 0 0 0 127 0" result="hardAlpha"/>
<feOffset dy="2.56546"/>
<feComposite in2="hardAlpha" operator="out"/>
<feColorMatrix type="matrix" values="0 0 0 0 0 0 0 0 0 0 0 0 0 0 0 0 0 0 0.25 0"/>
<feBlend mode="normal" in2="BackgroundImageFix" result="effect1_dropShadow_2244_578"/>
<feBlend mode="normal" in="SourceGraphic" in2="effect1_dropShadow_2244_578" result="shape"/>
</filter>
<filter id="filter6_d_2244_578" x="132.281" y="4.27344" width="23.0156" height="25.4717" filterUnits="userSpaceOnUse" color-interpolation-filters="sRGB">
<feFlood flood-opacity="0" result="BackgroundImageFix"/>
<feColorMatrix in="SourceAlpha" type="matrix" values="0 0 0 0 0 0 0 0 0 0 0 0 0 0 0 0 0 0 127 0" result="hardAlpha"/>
<feOffset dy="2.56546"/>
<feComposite in2="hardAlpha" operator="out"/>
<feColorMatrix type="matrix" values="0 0 0 0 0 0 0 0 0 0 0 0 0 0 0 0 0 0 0.25 0"/>
<feBlend mode="normal" in2="BackgroundImageFix" result="effect1_dropShadow_2244_578"/>
<feBlend mode="normal" in="SourceGraphic" in2="effect1_dropShadow_2244_578" result="shape"/>
</filter>
<linearGradient id="paint0_linear_2244_578" x1="171.622" y1="-1.54602" x2="171.622" y2="28.0475" gradientUnits="userSpaceOnUse">
<stop stop-color="#F5D2C7"/>
<stop offset="1" stop-color="#E9BEB1"/>
</linearGradient>
<linearGradient id="paint1_linear_2244_578" x1="118.764" y1="28.0463" x2="119.151" y2="-1.02984" gradientUnits="userSpaceOnUse">
<stop stop-color="#E9BEB1"/>
<stop offset="0.793269" stop-color="#F6D3C8"/>
</linearGradient>
<linearGradient id="paint2_linear_2244_578" x1="85.5545" y1="10.1115" x2="85.6692" y2="27.2652" gradientUnits="userSpaceOnUse">
<stop stop-color="#F7D4C9"/>
<stop offset="1" stop-color="#E9BEB1"/>
</linearGradient>
<linearGradient id="paint3_linear_2244_578" x1="60.1401" y1="4.58984" x2="60.1401" y2="28.0371" gradientUnits="userSpaceOnUse">
<stop stop-color="#FBD9CF"/>
<stop offset="1" stop-color="#E9BEB1"/>
</linearGradient>
<linearGradient id="paint4_linear_2244_578" x1="36.1892" y1="28.5632" x2="37.6107" y2="2.07162" gradientUnits="userSpaceOnUse">
<stop stop-color="#E9BEB1"/>
<stop offset="1" stop-color="#FFDDD3"/>
</linearGradient>
<linearGradient id="paint5_linear_2244_578" x1="9.86279" y1="3.75" x2="9.86279" y2="27.7559" gradientUnits="userSpaceOnUse">
<stop stop-color="#FBD9CF"/>
<stop offset="1" stop-color="#E9BEB1"/>
</linearGradient>
<linearGradient id="paint6_linear_2244_578" x1="144.878" y1="28.4333" x2="141.519" y2="-1.9319" gradientUnits="userSpaceOnUse">
<stop stop-color="#E9BEB1"/>
<stop offset="0.870192" stop-color="#F5D1C6"/>
</linearGradient>
</defs>
</svg>
