<svg width="129" height="48" viewBox="0 0 129 48" fill="none" xmlns="http://www.w3.org/2000/svg">
<line y1="33.8286" x2="122" y2="33.8286" stroke="black" stroke-width="0.342855"/>
<path d="M75.9843 2.77079C78.1839 1.7293 80.682 0.919764 83.2465 1.37651C85.9165 1.67138 87.7923 4.69255 86.9954 7.07585C86.6593 8.45647 85.9115 9.64468 85.0119 10.6739C85.7864 9.54779 86.3732 8.30028 86.5458 6.9924C86.9668 4.67302 85.2646 2.59636 83.0741 2.50046C80.9166 2.2975 78.7144 3.15731 76.7565 4.25351C70.8238 8.07091 66.0058 14.5936 64.2392 21.2992C63.2101 25.0842 65.183 28.2706 69.1701 28.677C74.2564 29.4112 78.2196 25.9012 81.6001 21.5707C77.0924 21.6489 73.3256 21.7211 68.8589 21.2992C73.7076 20.705 78.5804 20.2413 83.4381 19.7195L84.4442 19.6199L83.9253 20.5317C80.7475 25.5471 76.1178 31.3892 68.8589 30.8449C66.6983 30.574 64.2423 29.7576 62.7893 27.6186C61.3503 25.4788 61.4348 22.9179 61.8852 20.7956C64.0067 13.0179 69.1055 6.66161 75.9843 2.77079Z" fill="#B98686"/>
<path d="M97.7708 1.52282C97.8658 1.49312 98.3488 1.13344 99.0896 1.37267C99.4364 1.48422 99.7738 1.81988 99.8953 2.08523C100.02 2.33146 100.06 2.5577 100.074 2.75577C100.094 3.02976 100.047 3.33583 100.012 3.49772C99.9255 3.90265 99.8186 4.19963 99.6881 4.53939C99.4569 5.12775 99.1668 5.7218 98.8909 6.25101C98.3193 7.34356 97.6999 8.38072 97.0568 9.40745C95.7813 11.4349 94.4094 13.4064 92.9915 15.3298C90.2952 18.9622 87.4452 22.4846 84.2906 25.7244C84.2713 25.7818 84.2522 25.8393 84.2335 25.8969C83.8182 27.1473 83.5899 28.7385 84.2835 29.0639C86.3454 29.707 89.4317 27.9528 91.8646 26.7229C93.1153 26.0412 94.0344 25.5266 95.2676 24.78C94.1249 25.6591 93.288 26.3025 92.1029 27.1134C89.6284 28.5692 87.4604 30.8874 83.7152 30.2446C83.2237 30.0296 82.8421 29.6222 82.6324 29.1456C82.4342 28.7134 82.3669 28.2101 82.3524 27.8216C82.3502 27.7498 82.3496 27.6784 82.3497 27.6077C81.8669 28.044 81.3716 28.4627 80.8594 28.8503C81.3834 28.3386 81.8799 27.7942 82.3609 27.2345C82.3969 26.6072 82.5142 26.0196 82.6483 25.4553C83.0243 23.9443 83.5617 22.5824 84.1633 21.2119C86.6172 15.8076 89.7873 10.8499 93.3508 6.16844C94.0228 5.30167 94.6783 4.49072 95.423 3.65346C95.7674 3.26709 96.1927 2.81296 96.5684 2.45694C96.8057 2.23127 97.0268 2.03539 97.2672 1.85221C97.4299 1.72852 97.5898 1.61929 97.7708 1.52282ZM97.1276 5.33746C96.4778 6.08777 95.8756 6.84031 95.2546 7.64147C91.8004 12.1755 88.5343 16.9911 85.8973 22.0361C85.5705 22.6796 85.2584 23.32 84.9746 23.9667C89.5377 17.9108 93.8981 10.327 97.1276 5.33746Z" fill="#B98686"/>
<path d="M101.95 17.5829C102.615 17.6435 103.295 17.8141 103.82 18.1952C103.219 17.9588 102.573 17.9596 101.958 18.0401C97.3115 18.9321 92.7346 23.1133 93.5479 27.1874C93.6602 27.7838 93.8859 28.202 94.1465 28.3948C94.5961 28.8135 95.9124 28.6821 97.0902 28.1835C98.2795 27.7037 99.4622 26.9771 100.55 26.1539C102.593 24.4993 105.111 22.3648 104.865 19.6744C104.745 19.1019 104.359 18.5802 103.82 18.1952C104.43 18.4377 104.994 18.8735 105.296 19.5219C106.291 22.7682 103.822 25.534 101.799 27.6117C100.695 28.659 99.4493 29.5934 98.007 30.2768C96.5977 30.8818 94.6693 31.6699 92.6767 30.3012C91.7292 29.5657 91.3566 28.5023 91.209 27.5946C90.5064 21.0828 96.9728 17.4275 101.95 17.5829Z" fill="#B98686"/>
<path d="M38.1265 0.658203C36.5012 0.987036 35.4562 2.48276 34.3959 3.67742C27.5295 12.2239 23.5534 22.0305 15.4411 30.6823C15.2262 30.8012 15.0612 30.893 14.7109 30.9603C14.519 30.9928 14.2942 30.9962 14.0624 30.9379C13.8103 30.8778 13.5485 30.7257 13.3733 30.5462C12.7791 29.8451 12.8801 29.4404 12.825 29.1044C12.7952 28.4119 12.8663 27.9307 12.9461 27.3675C13.1077 26.3192 13.3378 25.3286 13.5781 24.3494C14.0679 22.3808 14.6234 20.4616 15.1816 18.5487C16.3361 14.4902 17.6982 10.4077 18.5667 6.38222C12.5865 14.7596 6.19907 22.7778 0 30.9603C5.94875 21.2826 12.5895 11.8187 18.857 2.31488C19.11 1.89882 19.7768 1.58026 20.3547 1.76686C20.954 1.89708 21.3945 2.66769 21.3073 3.16261C20.7225 8.83725 18.9705 13.9903 17.4918 19.2245C16.9355 21.1304 16.3733 23.0335 15.8774 24.9324C15.6368 25.8625 15.4067 26.8037 15.2504 27.706C21.6089 20.6596 26.9408 10.8576 34.0562 3.37124C35.2307 2.26013 36.4451 0.83031 38.1265 0.658203ZM20.566 3.57164C20.5822 3.55192 20.5968 3.53235 20.6083 3.51228C20.5942 3.5321 20.58 3.55182 20.566 3.57164Z" fill="#B98686"/>
<path d="M31.6654 16.9872C32.7177 16.6844 34.0318 17.3489 34.5256 18.0638C35.2752 18.9248 35.2288 20.2244 34.9332 20.9693C34.6464 21.7695 34.2188 22.374 33.7725 22.9275C32.8652 24.0245 31.8384 24.8829 30.7665 25.6649C29.7945 26.3571 28.786 26.9892 27.7394 27.5384C27.7006 28.4291 27.9041 29.0956 28.528 29.057C30.5471 29.2328 32.6125 28.488 34.3752 27.1779C34.9448 26.7641 35.4908 26.3043 36.021 25.823C35.6113 26.4102 35.1713 26.9814 34.6808 27.5184C33.191 29.1977 30.9852 30.517 28.528 30.6308C27.8481 30.6957 26.9077 30.3653 26.443 29.6826C26.1378 29.2588 25.9801 28.8217 25.8908 28.4005C25.1872 28.6875 24.4671 28.9347 23.7296 29.1349C23.0268 29.3106 22.2855 29.4493 21.5781 29.3764C22.2794 29.2875 22.9418 29.0074 23.573 28.7053C24.3346 28.322 25.0683 27.8913 25.7771 27.4262C25.738 26.3023 25.9398 25.2724 26.2096 24.2727C26.8422 22.113 27.7676 20.0724 29.461 18.3098C30.0117 17.7833 30.6348 17.2363 31.6654 16.9872ZM32.4223 19.3141C32.3523 19.2934 32.3095 19.289 32.1881 19.3167C31.9437 19.3703 31.5232 19.6483 31.155 20.0202C29.9327 21.2694 28.9561 23.1151 28.3094 24.9244C28.2114 25.1903 28.1207 25.4747 28.0414 25.7651C28.6071 25.3069 29.1559 24.8317 29.6878 24.3455C30.5903 23.5043 31.445 22.6104 32.1038 21.6622C32.4269 21.1942 32.697 20.701 32.8105 20.2838C32.8677 20.078 32.8788 19.8993 32.859 19.7916C32.8371 19.6803 32.81 19.6361 32.7382 19.5556C32.603 19.4036 32.4915 19.3369 32.4223 19.3141Z" fill="#B98686"/>
<path d="M60.0929 8.7832C59.2902 9.34984 58.6618 10.0994 58.0219 10.8398C53.2749 16.7349 49.107 23.1151 44.7518 29.3018C44.4228 29.8471 43.4925 30.0987 42.9343 29.8055C42.3407 29.5931 41.8951 28.7335 42.0763 28.1194C42.2708 27.2034 42.4689 26.2881 42.6705 25.3738C42.8309 24.6461 42.9939 23.919 43.1588 23.1923C41.2819 25.4146 39.3781 27.6154 37.446 29.7937C37.1948 30.1416 36.5816 30.2658 36.2198 30.0485C35.8337 29.8764 35.5902 29.3158 35.725 28.928C36.3994 26.78 37.0944 24.637 37.8098 22.4994C38.1216 21.5677 38.4372 20.6368 38.7568 19.707C38.5927 20.6764 38.4247 21.6451 38.2529 22.6125C37.9622 24.2489 37.6599 25.8823 37.347 27.5129C39.4132 24.6504 41.52 21.8201 43.6675 19.0224C44.0088 18.526 44.8869 18.3183 45.4211 18.6128C45.9879 18.8378 46.3881 19.6516 46.2204 20.2362C45.9241 21.6911 45.6184 23.1439 45.3042 24.5948C49.0779 19.6155 53.0796 14.7833 57.6954 10.5195C58.446 9.87164 59.2023 9.21442 60.0929 8.7832ZM37.0088 29.2551C37.0149 29.238 37.0189 29.2157 37.0211 29.1907C37.0169 29.2122 37.013 29.2337 37.0088 29.2551ZM45.3917 20.5233C45.4158 20.4991 45.4378 20.4745 45.4552 20.4475C45.4342 20.4729 45.4128 20.4979 45.3917 20.5233Z" fill="#B98686"/>
<path d="M128.999 9.08203C128.196 9.64867 127.568 10.3982 126.928 11.1386C122.181 17.0337 118.013 23.414 113.658 29.6006C113.329 30.1459 112.399 30.3976 111.841 30.1043C111.247 29.8919 110.801 29.0323 110.983 28.4182C111.177 27.5023 111.375 26.587 111.577 25.6726C111.737 24.9449 111.9 24.2178 112.065 23.4911C110.188 25.7134 108.284 27.9143 106.352 30.0925C106.101 30.4404 105.488 30.5647 105.126 30.3473C104.74 30.1752 104.496 29.6147 104.631 29.2269C105.306 27.0788 106.001 24.9359 106.716 22.7982C107.028 21.8665 107.343 20.9356 107.663 20.0059C107.499 20.9753 107.331 21.9439 107.159 22.9114C106.868 24.5477 106.566 26.1811 106.253 27.8117C108.319 24.9492 110.426 22.119 112.574 19.3212C112.915 18.8248 113.793 18.6172 114.327 18.9116C114.894 19.1367 115.294 19.9504 115.127 20.5351C114.83 21.9899 114.525 23.4428 114.21 24.8936C117.984 19.9143 121.986 15.0821 126.602 10.8183C127.352 10.1705 128.109 9.51325 128.999 9.08203ZM105.915 29.5539C105.921 29.5368 105.925 29.5146 105.927 29.4896C105.923 29.511 105.919 29.5325 105.915 29.5539ZM114.298 20.8221C114.322 20.798 114.344 20.7733 114.361 20.7463C114.34 20.7717 114.319 20.7968 114.298 20.8221Z" fill="#B98686"/>
<path d="M69.0212 38.2272H70.4612L72.0452 43.0511C72.1252 43.2831 72.2012 43.5111 72.2732 43.7351C72.3452 43.9511 72.4132 44.1711 72.4772 44.3951H72.5012C72.5652 44.1711 72.6292 43.9551 72.6932 43.7471C72.7652 43.5391 72.8452 43.3071 72.9332 43.0511L74.4811 38.2272H75.9211L76.5811 45.7871H75.4771L75.1651 41.7791C75.1331 41.3871 75.1091 40.9991 75.0931 40.6151C75.0771 40.2231 75.0611 39.8271 75.0451 39.4271H75.0211C74.9091 39.8191 74.7931 40.2111 74.6731 40.6031C74.5611 40.9951 74.4411 41.3871 74.3131 41.7791L72.9812 45.7871H71.9732L70.6412 41.7671C70.5052 41.3591 70.3812 40.9711 70.2692 40.6031C70.1572 40.2271 70.0452 39.8351 69.9332 39.4271H69.9092C69.8932 39.8191 69.8692 40.2111 69.8372 40.6031C69.8132 40.9951 69.7852 41.3871 69.7532 41.7791L69.4652 45.7871H68.3852L69.0212 38.2272ZM79.5037 38.2272H84.0636V39.1392H80.6077V41.4071H83.7516V42.3071H80.6077V44.8751H84.0996V45.7871H79.5037V38.2272ZM89.1753 38.2272C89.7113 38.2272 90.2073 38.3032 90.6633 38.4552C91.1193 38.6072 91.5113 38.8352 91.8393 39.1392C92.1753 39.4352 92.4353 39.8111 92.6193 40.2671C92.8113 40.7151 92.9073 41.2391 92.9073 41.8391C92.9073 42.5671 92.7953 43.1831 92.5713 43.6871C92.3473 44.1911 92.0433 44.5991 91.6593 44.9111C91.2833 45.2231 90.8433 45.4471 90.3393 45.5831C89.8433 45.7191 89.3153 45.7871 88.7553 45.7871H86.7153V38.2272H89.1753ZM87.8193 44.8751H88.6473C89.0313 44.8751 89.4073 44.8351 89.7753 44.7551C90.1433 44.6671 90.4673 44.5111 90.7473 44.2871C91.0353 44.0551 91.2673 43.7431 91.4433 43.3511C91.6193 42.9591 91.7073 42.4551 91.7073 41.8391C91.7073 41.4071 91.6433 41.0231 91.5153 40.6871C91.3873 40.3511 91.2033 40.0711 90.9633 39.8471C90.7233 39.6151 90.4313 39.4391 90.0873 39.3192C89.7513 39.1992 89.3753 39.1392 88.9593 39.1392H87.8193V44.8751ZM101.599 38.1192C101.967 38.1192 102.323 38.1512 102.667 38.2152C103.011 38.2712 103.351 38.3792 103.687 38.5392L103.423 39.4512C103.079 39.2912 102.767 39.1792 102.487 39.1152C102.215 39.0432 101.935 39.0072 101.647 39.0072C101.191 39.0072 100.831 39.1072 100.567 39.3072C100.303 39.5071 100.171 39.7871 100.171 40.1471C100.171 40.4511 100.267 40.6951 100.459 40.8791C100.659 41.0631 100.983 41.2231 101.431 41.3591L102.187 41.5991C102.875 41.8151 103.359 42.1111 103.639 42.4871C103.927 42.8551 104.071 43.2711 104.071 43.7351C104.071 44.0631 104.003 44.3631 103.867 44.6351C103.739 44.8991 103.555 45.1271 103.315 45.3191C103.083 45.5031 102.807 45.6471 102.487 45.7511C102.167 45.8471 101.815 45.8951 101.431 45.8951C101.047 45.8951 100.655 45.8591 100.255 45.7871C99.8626 45.7231 99.4706 45.5991 99.0786 45.4151L99.3426 44.5151C99.6866 44.6831 100.023 44.8071 100.351 44.8871C100.679 44.9671 101.023 45.0071 101.383 45.0071C101.815 45.0071 102.183 44.9071 102.487 44.7071C102.791 44.5071 102.943 44.2111 102.943 43.8191C102.943 43.6751 102.919 43.5431 102.871 43.4231C102.831 43.2951 102.755 43.1751 102.643 43.0631C102.539 42.9511 102.395 42.8471 102.211 42.7511C102.027 42.6551 101.795 42.5631 101.515 42.4751L100.759 42.2351C100.207 42.0591 99.7826 41.8191 99.4866 41.5151C99.1906 41.2111 99.0426 40.7991 99.0426 40.2791C99.0426 39.6151 99.2586 39.0912 99.6906 38.7072C100.131 38.3152 100.767 38.1192 101.599 38.1192ZM106.733 38.2272H109.109C109.501 38.2272 109.857 38.2792 110.177 38.3832C110.497 38.4792 110.773 38.6272 111.005 38.8272C111.237 39.0192 111.417 39.2592 111.545 39.5471C111.673 39.8271 111.737 40.1511 111.737 40.5191C111.737 40.9191 111.669 41.2671 111.533 41.5631C111.397 41.8511 111.205 42.0911 110.957 42.2831C110.709 42.4751 110.417 42.6191 110.081 42.7151C109.745 42.8111 109.373 42.8591 108.965 42.8591H107.837V45.7871H106.733V38.2272ZM107.837 41.9591H108.521C108.817 41.9591 109.093 41.9391 109.349 41.8991C109.605 41.8591 109.821 41.7871 109.997 41.6831C110.181 41.5791 110.325 41.4351 110.429 41.2511C110.533 41.0591 110.585 40.8191 110.585 40.5311C110.585 40.2671 110.533 40.0471 110.429 39.8711C110.333 39.6871 110.205 39.5391 110.045 39.4271C109.885 39.3152 109.701 39.2352 109.493 39.1872C109.285 39.1392 109.073 39.1152 108.857 39.1152H107.837V41.9591ZM115.729 38.2272H116.713L119.725 45.7871H118.573L117.745 43.6871H114.637L113.821 45.7871H112.681L115.729 38.2272ZM114.937 42.8111H117.421L116.917 41.5031C116.781 41.1591 116.657 40.8271 116.545 40.5071C116.433 40.1871 116.321 39.8591 116.209 39.5231H116.185C116.073 39.8591 115.957 40.1831 115.837 40.4951C115.717 40.8071 115.589 41.1431 115.453 41.5031L114.937 42.8111Z" fill="#3C3C3C"/>
</svg>
