<svg width="680" height="429" viewBox="0 0 680 429" fill="none" xmlns="http://www.w3.org/2000/svg">
<path d="M0.52 109V107.4L3.88 106.28C6.01333 105.533 7.4 104.573 8.04 103.4C8.68 102.12 9 100.36 9 98.12V14.44C9 12.3067 8.68 10.6533 8.04 9.47999C7.50667 8.2 6.22667 7.18666 4.2 6.43999L0.52 4.99999V3.4H46.28C58.8667 3.4 68.52 5.8 75.24 10.6C81.96 15.2933 85.32 21.8533 85.32 30.28C85.32 34.9733 83.56 39.6667 80.04 44.36C76.52 49.0533 70.9733 52.68 63.4 55.24L85.64 99.4C86.6 101.213 87.6667 102.707 88.84 103.88C90.12 104.947 91.7733 105.907 93.8 106.76L95.88 107.56V109H67.24L43.56 58.6H32.68V98.12C32.68 100.147 33 101.8 33.64 103.08C34.28 104.36 35.6133 105.32 37.64 105.96L41.48 107.4V109H0.52ZM32.68 55.4H40.36C48.04 55.4 53.5867 53.3733 57 49.32C60.4133 45.16 62.12 39.0267 62.12 30.92C62.12 22.7067 60.52 16.6267 57.32 12.68C54.12 8.62666 48.7333 6.59999 41.16 6.59999H32.68V55.4ZM92.3113 109V107.4L96.3112 105.96C98.4446 105.107 100.098 104.093 101.271 102.92C102.445 101.64 103.405 99.88 104.151 97.64L137.111 3.07999H150.711L183.191 98.28C184.045 100.627 185.005 102.44 186.071 103.72C187.138 104.893 188.791 105.907 191.031 106.76L192.951 107.4V109H152.311V107.4L154.711 106.6C156.951 105.747 158.285 104.573 158.711 103.08C159.245 101.48 159.191 99.6133 158.551 97.48L151.031 74.44H115.511L107.831 97C107.085 99.3467 106.818 101.213 107.031 102.6C107.351 103.987 108.631 105.107 110.871 105.96L114.391 107.4V109H92.3113ZM116.631 71.24H150.071L133.911 21.48L116.631 71.24ZM189.989 109V107.4L193.349 106.12C196.762 104.733 198.469 102.013 198.469 97.96V14.44C198.469 10.1733 196.762 7.45333 193.349 6.28L189.989 4.99999V3.4H232.229C243.535 3.4 253.242 5.53333 261.349 9.8C269.562 13.96 275.855 19.9867 280.229 27.88C284.709 35.6667 286.949 45.0533 286.949 56.04C286.949 67.24 284.549 76.7867 279.749 84.68C274.949 92.5733 268.229 98.6 259.589 102.76C251.055 106.92 240.975 109 229.349 109H189.989ZM222.469 105.8H229.349C237.029 105.8 243.215 104.307 247.909 101.32C252.602 98.2267 256.015 93.1067 258.149 85.96C260.389 78.7067 261.509 68.7867 261.509 56.2C261.509 43.6133 260.389 33.7467 258.149 26.6C256.015 19.3467 252.655 14.2267 248.069 11.24C243.482 8.14666 237.455 6.59999 229.989 6.59999H222.469V105.8ZM281.833 109V107.4L285.033 106.12C287.166 105.373 288.553 104.36 289.193 103.08C289.939 101.8 290.313 100.093 290.313 97.96V14.44C290.313 12.3067 289.993 10.6 289.353 9.32C288.713 8.03999 287.273 7.02666 285.033 6.28L281.833 4.99999V3.4H322.953V4.99999L319.753 6.28C317.619 7.02666 316.179 8.03999 315.433 9.32C314.793 10.6 314.473 12.3067 314.473 14.44V97.96C314.473 100.093 314.793 101.8 315.433 103.08C316.179 104.253 317.619 105.267 319.753 106.12L322.953 107.4V109H281.833ZM319.718 109V107.4L323.717 105.96C325.851 105.107 327.504 104.093 328.678 102.92C329.851 101.64 330.811 99.88 331.558 97.64L364.518 3.07999H378.118L410.598 98.28C411.451 100.627 412.411 102.44 413.478 103.72C414.544 104.893 416.198 105.907 418.438 106.76L420.358 107.4V109H379.718V107.4L382.118 106.6C384.358 105.747 385.691 104.573 386.118 103.08C386.651 101.48 386.598 99.6133 385.958 97.48L378.438 74.44H342.918L335.238 97C334.491 99.3467 334.224 101.213 334.438 102.6C334.758 103.987 336.038 105.107 338.278 105.96L341.798 107.4V109H319.718ZM344.038 71.24H377.478L361.318 21.48L344.038 71.24ZM419.475 109V107.4L424.755 105.8C426.675 105.267 428.062 104.253 428.915 102.76C429.768 101.16 430.195 99.2933 430.195 97.16V20.2C429.022 17.64 428.062 15.72 427.315 14.44C426.675 13.16 425.928 12.0933 425.075 11.24C424.222 10.28 423.048 9.10667 421.555 7.72L418.835 4.99999V3.4H447.155L500.275 75.88V15.56C500.275 13.4267 499.902 11.5067 499.155 9.8C498.515 8.09333 497.128 6.97333 494.995 6.43999L489.715 4.99999V3.4H512.595V4.99999L508.275 6.43999C506.355 7.07999 505.182 8.19999 504.755 9.8C504.328 11.4 504.115 13.2667 504.115 15.4V109.48H495.155L434.035 25.48V97.16C434.035 99.2933 434.355 101.107 434.995 102.6C435.635 104.093 436.968 105.16 438.995 105.8L443.795 107.4V109H419.475ZM565.841 111.88C555.495 111.88 546.108 109.8 537.681 105.64C529.361 101.373 522.748 95.08 517.841 86.76C512.935 78.44 510.481 68.2533 510.481 56.2C510.481 47.0267 511.975 38.9733 514.961 32.04C517.948 25.1067 522.001 19.2933 527.121 14.6C532.348 9.90666 538.321 6.38667 545.041 4.04C551.868 1.69333 559.068 0.519995 566.641 0.519995C572.721 0.519995 578.321 1.21333 583.441 2.6C588.561 3.98666 593.361 5.90667 597.841 8.36L598.481 28.04H596.881L588.881 15.24C587.815 13.2133 586.641 11.4 585.361 9.8C584.081 8.09333 582.481 6.81333 580.561 5.95999C578.961 5.21333 577.361 4.68 575.761 4.35999C574.268 3.93333 572.348 3.71999 570.001 3.71999C563.815 3.71999 558.161 5.37333 553.041 8.67999C548.028 11.9867 543.975 17.48 540.881 25.16C537.895 32.7333 536.401 43.1333 536.401 56.36C536.401 69.48 537.841 79.88 540.721 87.56C543.601 95.1333 547.495 100.573 552.401 103.88C557.415 107.08 563.015 108.68 569.201 108.68C572.615 108.68 575.335 108.467 577.361 108.04C579.388 107.507 581.415 106.76 583.441 105.8C585.468 104.947 587.015 103.72 588.081 102.12C589.148 100.413 590.108 98.6 590.961 96.68L598.001 81H599.601L599.121 103.88C594.641 106.227 589.628 108.147 584.081 109.64C578.535 111.133 572.455 111.88 565.841 111.88ZM599.208 109V107.4L602.888 105.96C604.701 105.213 605.928 104.253 606.568 103.08C607.314 101.8 607.688 100.093 607.688 97.96V14.44C607.688 12.3067 607.368 10.6533 606.728 9.47999C606.194 8.2 604.914 7.18666 602.888 6.43999L599.208 4.99999V3.4H675.848L676.808 28.04H675.208L668.328 13C667.368 11.08 666.354 9.53333 665.288 8.36C664.221 7.18666 662.621 6.59999 660.488 6.59999H631.688V52.84H648.808C650.941 52.84 652.541 52.3067 653.608 51.24C654.781 50.0667 655.794 48.52 656.648 46.6L659.848 40.2H661.448V69H659.848L656.648 62.28C655.688 60.36 654.674 58.8667 653.608 57.8C652.541 56.6267 650.941 56.04 648.808 56.04H631.688V105.8H664.008C666.141 105.8 667.794 105.267 668.968 104.2C670.141 103.027 671.101 101.427 671.848 99.4L678.408 84.36H680.008L679.048 109H599.208ZM0.52 269V267.4L3.4 266.28C5.53333 265.427 6.97333 264.36 7.72 263.08C8.57333 261.8 9 260.093 9 257.96V174.44C9 172.2 8.57333 170.44 7.72 169.16C6.97333 167.88 5.53333 166.867 3.4 166.12L0.52 165V163.4H46.44C59.4533 163.4 68.84 165.8 74.6 170.6C80.36 175.293 83.24 181.267 83.24 188.52C83.24 193.96 81.1067 198.92 76.84 203.4C72.68 207.773 65.48 210.867 55.24 212.68C66.9733 213.96 75.56 217.053 81 221.96C86.44 226.76 89.16 232.627 89.16 239.56C89.16 242.973 88.4133 246.44 86.92 249.96C85.4267 253.373 82.8667 256.52 79.24 259.4C75.72 262.28 70.8667 264.627 64.68 266.44C58.4933 268.147 50.6533 269 41.16 269H0.52ZM32.68 212.52H39.56C46.7067 212.52 51.8267 210.867 54.92 207.56C58.12 204.253 59.72 198.493 59.72 190.28C59.72 181.747 58.28 175.667 55.4 172.04C52.52 168.413 47.8267 166.6 41.32 166.6H32.68V212.52ZM32.68 265.8H40.68C48.68 265.8 54.6 263.667 58.44 259.4C62.3867 255.133 64.36 248.467 64.36 239.4C64.36 230.867 62.4933 224.787 58.76 221.16C55.0267 217.533 48.8933 215.72 40.36 215.72H32.68V265.8ZM85.4888 269V267.4L89.1688 265.96C90.9821 265.213 92.2088 264.253 92.8488 263.08C93.5954 261.8 93.9688 260.093 93.9688 257.96V174.44C93.9688 172.307 93.6488 170.653 93.0088 169.48C92.4754 168.2 91.1954 167.187 89.1688 166.44L85.4888 165V163.4H162.129L163.089 188.04H161.489L154.609 173C153.649 171.08 152.635 169.533 151.569 168.36C150.502 167.187 148.902 166.6 146.769 166.6H117.969V212.84H135.089C137.222 212.84 138.822 212.307 139.889 211.24C141.062 210.067 142.075 208.52 142.929 206.6L146.129 200.2H147.729V229H146.129L142.929 222.28C141.969 220.36 140.955 218.867 139.889 217.8C138.822 216.627 137.222 216.04 135.089 216.04H117.969V265.8H150.289C152.422 265.8 154.075 265.267 155.249 264.2C156.422 263.027 157.382 261.427 158.129 259.4L164.689 244.36H166.289L165.329 269H85.4888ZM219.24 271.88C208.36 271.88 198.76 269.64 190.44 265.16C182.227 260.573 175.773 254.12 171.08 245.8C166.493 237.373 164.2 227.453 164.2 216.04C164.2 204.947 166.493 195.24 171.08 186.92C175.667 178.6 182.28 172.147 190.92 167.56C199.667 162.867 210.227 160.52 222.6 160.52C228.253 160.52 233.48 161.16 238.28 162.44C243.187 163.72 247.827 165.587 252.2 168.04L252.84 190.44H251.24L242.28 173.8C240.893 171.133 239.613 169.213 238.44 168.04C237.267 166.867 235.773 165.96 233.96 165.32C232.253 164.787 230.653 164.413 229.16 164.2C227.773 163.88 225.907 163.72 223.56 163.72C216.947 163.72 211.08 165.48 205.96 169C200.947 172.52 197.053 178.12 194.28 185.8C191.507 193.48 190.12 203.56 190.12 216.04C190.12 228.413 191.4 238.493 193.96 246.28C196.627 254.067 200.36 259.773 205.16 263.4C209.96 266.92 215.507 268.68 221.8 268.68C222.76 268.68 223.667 268.627 224.52 268.52C225.48 268.307 226.387 268.093 227.24 267.88C229.267 267.56 230.6 266.707 231.24 265.32C231.88 263.933 232.2 262.28 232.2 260.36V228.68C232.2 224.52 230.067 221.96 225.8 221L218.44 219.08V217.48H263.56V219.08L261.32 219.72C257.267 221 255.24 223.667 255.24 227.72V262.44C249.693 265.533 244.04 267.88 238.28 269.48C232.627 271.08 226.28 271.88 219.24 271.88ZM259.958 269V267.4L263.158 266.12C265.291 265.373 266.678 264.36 267.318 263.08C268.064 261.8 268.438 260.093 268.438 257.96V174.44C268.438 172.307 268.118 170.6 267.478 169.32C266.838 168.04 265.398 167.027 263.158 166.28L259.958 165V163.4H301.078V165L297.878 166.28C295.744 167.027 294.304 168.04 293.558 169.32C292.918 170.6 292.598 172.307 292.598 174.44V257.96C292.598 260.093 292.918 261.8 293.558 263.08C294.304 264.253 295.744 265.267 297.878 266.12L301.078 267.4V269H259.958ZM302.163 269V267.4L307.443 265.8C309.363 265.267 310.749 264.253 311.603 262.76C312.456 261.16 312.883 259.293 312.883 257.16V180.2C311.709 177.64 310.749 175.72 310.003 174.44C309.363 173.16 308.616 172.093 307.763 171.24C306.909 170.28 305.736 169.107 304.243 167.72L301.523 165V163.4H329.843L382.963 235.88V175.56C382.963 173.427 382.589 171.507 381.843 169.8C381.203 168.093 379.816 166.973 377.683 166.44L372.403 165V163.4H395.283V165L390.963 166.44C389.043 167.08 387.869 168.2 387.443 169.8C387.016 171.4 386.803 173.267 386.803 175.4V269.48H377.843L316.723 185.48V257.16C316.723 259.293 317.043 261.107 317.682 262.6C318.323 264.093 319.656 265.16 321.683 265.8L326.483 267.4V269H302.163ZM429.451 271.88C423.585 271.88 417.611 271.133 411.531 269.64C405.451 268.253 400.385 266.387 396.331 264.04L397.131 242.28H398.731L403.691 252.68C405.185 255.667 406.785 258.333 408.491 260.68C410.198 262.92 412.545 264.68 415.531 265.96C417.665 267.027 419.691 267.773 421.611 268.2C423.638 268.52 425.878 268.68 428.331 268.68C434.838 268.68 439.958 266.92 443.691 263.4C447.531 259.88 449.451 255.347 449.451 249.8C449.451 244.573 448.171 240.52 445.611 237.64C443.051 234.653 438.945 231.773 433.291 229L426.731 226.12C417.558 222.067 410.358 217.427 405.131 212.2C400.011 206.867 397.451 199.827 397.451 191.08C397.451 184.787 399.051 179.347 402.251 174.76C405.558 170.173 410.091 166.653 415.851 164.2C421.718 161.747 428.545 160.52 436.331 160.52C441.985 160.52 447.318 161.267 452.331 162.76C457.451 164.253 461.878 166.28 465.611 168.84L464.651 188.04H463.051L456.491 176.04C454.678 172.307 452.865 169.693 451.051 168.2C449.238 166.6 447.158 165.48 444.811 164.84C443.425 164.413 442.145 164.147 440.971 164.04C439.798 163.827 438.305 163.72 436.491 163.72C431.051 163.72 426.465 165.32 422.731 168.52C418.998 171.613 417.131 175.827 417.131 181.16C417.131 186.6 418.571 190.973 421.451 194.28C424.331 197.48 428.545 200.36 434.091 202.92L441.451 206.12C451.691 210.6 459.051 215.4 463.531 220.52C468.011 225.533 470.251 232.04 470.251 240.04C470.251 249.427 466.678 257.107 459.531 263.08C452.491 268.947 442.465 271.88 429.451 271.88ZM0.52 429V427.4L3.72 426.12C5.85333 425.373 7.24 424.36 7.88 423.08C8.62667 421.8 9 420.147 9 418.12V334.44C9 332.307 8.62667 330.6 7.88 329.32C7.24 328.04 5.85333 327.027 3.72 326.28L0.52 325V323.4H41.16V325L38.44 326.12C36.4133 326.867 35.0267 327.88 34.28 329.16C33.5333 330.333 33.16 331.987 33.16 334.12V373H71.4V334.12C71.4 331.987 71.0267 330.333 70.28 329.16C69.64 327.88 68.2533 326.867 66.12 326.12L63.24 325V323.4H104.04V325L100.84 326.28C98.8133 327.027 97.4267 328.04 96.68 329.32C95.9333 330.6 95.56 332.307 95.56 334.44V418.12C95.56 420.147 95.9333 421.8 96.68 423.08C97.4267 424.36 98.8133 425.373 100.84 426.12L104.04 427.4V429H63.24V427.4L66.12 426.44C68.2533 425.587 69.64 424.573 70.28 423.4C71.0267 422.12 71.4 420.413 71.4 418.28V376.2H33.16V418.28C33.16 422.227 34.92 424.947 38.44 426.44L41.16 427.4V429H0.52ZM103.145 429V427.4L106.825 425.96C108.638 425.213 109.865 424.253 110.505 423.08C111.252 421.8 111.625 420.093 111.625 417.96V334.44C111.625 332.307 111.305 330.653 110.665 329.48C110.132 328.2 108.852 327.187 106.825 326.44L103.145 325V323.4H179.785L180.745 348.04H179.145L172.265 333C171.305 331.08 170.292 329.533 169.225 328.36C168.158 327.187 166.558 326.6 164.425 326.6H135.625V372.84H152.745C154.878 372.84 156.478 372.307 157.545 371.24C158.718 370.067 159.732 368.52 160.585 366.6L163.785 360.2H165.385V389H163.785L160.585 382.28C159.625 380.36 158.612 378.867 157.545 377.8C156.478 376.627 154.878 376.04 152.745 376.04H135.625V425.8H167.945C170.078 425.8 171.732 425.267 172.905 424.2C174.078 423.027 175.038 421.427 175.785 419.4L182.345 404.36H183.945L182.985 429H103.145ZM183.895 429V427.4L187.255 426.28C189.388 425.533 190.775 424.573 191.415 423.4C192.055 422.12 192.375 420.36 192.375 418.12V334.44C192.375 332.307 192.055 330.653 191.415 329.48C190.882 328.2 189.602 327.187 187.575 326.44L183.895 325V323.4H229.655C242.242 323.4 251.895 325.8 258.615 330.6C265.335 335.293 268.695 341.853 268.695 350.28C268.695 354.973 266.935 359.667 263.415 364.36C259.895 369.053 254.348 372.68 246.775 375.24L269.015 419.4C269.975 421.213 271.042 422.707 272.215 423.88C273.495 424.947 275.148 425.907 277.175 426.76L279.255 427.56V429H250.615L226.935 378.6H216.055V418.12C216.055 420.147 216.375 421.8 217.015 423.08C217.655 424.36 218.988 425.32 221.015 425.96L224.855 427.4V429H183.895ZM216.055 375.4H223.735C231.415 375.4 236.962 373.373 240.375 369.32C243.788 365.16 245.495 359.027 245.495 350.92C245.495 342.707 243.895 336.627 240.695 332.68C237.495 328.627 232.108 326.6 224.535 326.6H216.055V375.4ZM276.364 429V427.4L280.044 425.96C281.857 425.213 283.084 424.253 283.724 423.08C284.47 421.8 284.844 420.093 284.844 417.96V334.44C284.844 332.307 284.524 330.653 283.884 329.48C283.35 328.2 282.07 327.187 280.044 326.44L276.364 325V323.4H353.004L353.964 348.04H352.364L345.484 333C344.524 331.08 343.51 329.533 342.444 328.36C341.377 327.187 339.777 326.6 337.644 326.6H308.844V372.84H325.964C328.097 372.84 329.697 372.307 330.764 371.24C331.937 370.067 332.95 368.52 333.804 366.6L337.004 360.2H338.604V389H337.004L333.804 382.28C332.844 380.36 331.83 378.867 330.764 377.8C329.697 376.627 328.097 376.04 325.964 376.04H308.844V425.8H341.164C343.297 425.8 344.95 425.267 346.124 424.2C347.297 423.027 348.257 421.427 349.004 419.4L355.564 404.36H357.164L356.204 429H276.364Z" fill="url(#paint0_linear_1445_852)"/>
<path d="M0.52 109V107.4L3.88 106.28C6.01333 105.533 7.4 104.573 8.04 103.4C8.68 102.12 9 100.36 9 98.12V14.44C9 12.3067 8.68 10.6533 8.04 9.47999C7.50667 8.2 6.22667 7.18666 4.2 6.43999L0.52 4.99999V3.4H46.28C58.8667 3.4 68.52 5.8 75.24 10.6C81.96 15.2933 85.32 21.8533 85.32 30.28C85.32 34.9733 83.56 39.6667 80.04 44.36C76.52 49.0533 70.9733 52.68 63.4 55.24L85.64 99.4C86.6 101.213 87.6667 102.707 88.84 103.88C90.12 104.947 91.7733 105.907 93.8 106.76L95.88 107.56V109H67.24L43.56 58.6H32.68V98.12C32.68 100.147 33 101.8 33.64 103.08C34.28 104.36 35.6133 105.32 37.64 105.96L41.48 107.4V109H0.52ZM32.68 55.4H40.36C48.04 55.4 53.5867 53.3733 57 49.32C60.4133 45.16 62.12 39.0267 62.12 30.92C62.12 22.7067 60.52 16.6267 57.32 12.68C54.12 8.62666 48.7333 6.59999 41.16 6.59999H32.68V55.4ZM92.3113 109V107.4L96.3112 105.96C98.4446 105.107 100.098 104.093 101.271 102.92C102.445 101.64 103.405 99.88 104.151 97.64L137.111 3.07999H150.711L183.191 98.28C184.045 100.627 185.005 102.44 186.071 103.72C187.138 104.893 188.791 105.907 191.031 106.76L192.951 107.4V109H152.311V107.4L154.711 106.6C156.951 105.747 158.285 104.573 158.711 103.08C159.245 101.48 159.191 99.6133 158.551 97.48L151.031 74.44H115.511L107.831 97C107.085 99.3467 106.818 101.213 107.031 102.6C107.351 103.987 108.631 105.107 110.871 105.96L114.391 107.4V109H92.3113ZM116.631 71.24H150.071L133.911 21.48L116.631 71.24ZM189.989 109V107.4L193.349 106.12C196.762 104.733 198.469 102.013 198.469 97.96V14.44C198.469 10.1733 196.762 7.45333 193.349 6.28L189.989 4.99999V3.4H232.229C243.535 3.4 253.242 5.53333 261.349 9.8C269.562 13.96 275.855 19.9867 280.229 27.88C284.709 35.6667 286.949 45.0533 286.949 56.04C286.949 67.24 284.549 76.7867 279.749 84.68C274.949 92.5733 268.229 98.6 259.589 102.76C251.055 106.92 240.975 109 229.349 109H189.989ZM222.469 105.8H229.349C237.029 105.8 243.215 104.307 247.909 101.32C252.602 98.2267 256.015 93.1067 258.149 85.96C260.389 78.7067 261.509 68.7867 261.509 56.2C261.509 43.6133 260.389 33.7467 258.149 26.6C256.015 19.3467 252.655 14.2267 248.069 11.24C243.482 8.14666 237.455 6.59999 229.989 6.59999H222.469V105.8ZM281.833 109V107.4L285.033 106.12C287.166 105.373 288.553 104.36 289.193 103.08C289.939 101.8 290.313 100.093 290.313 97.96V14.44C290.313 12.3067 289.993 10.6 289.353 9.32C288.713 8.03999 287.273 7.02666 285.033 6.28L281.833 4.99999V3.4H322.953V4.99999L319.753 6.28C317.619 7.02666 316.179 8.03999 315.433 9.32C314.793 10.6 314.473 12.3067 314.473 14.44V97.96C314.473 100.093 314.793 101.8 315.433 103.08C316.179 104.253 317.619 105.267 319.753 106.12L322.953 107.4V109H281.833ZM319.718 109V107.4L323.717 105.96C325.851 105.107 327.504 104.093 328.678 102.92C329.851 101.64 330.811 99.88 331.558 97.64L364.518 3.07999H378.118L410.598 98.28C411.451 100.627 412.411 102.44 413.478 103.72C414.544 104.893 416.198 105.907 418.438 106.76L420.358 107.4V109H379.718V107.4L382.118 106.6C384.358 105.747 385.691 104.573 386.118 103.08C386.651 101.48 386.598 99.6133 385.958 97.48L378.438 74.44H342.918L335.238 97C334.491 99.3467 334.224 101.213 334.438 102.6C334.758 103.987 336.038 105.107 338.278 105.96L341.798 107.4V109H319.718ZM344.038 71.24H377.478L361.318 21.48L344.038 71.24ZM419.475 109V107.4L424.755 105.8C426.675 105.267 428.062 104.253 428.915 102.76C429.768 101.16 430.195 99.2933 430.195 97.16V20.2C429.022 17.64 428.062 15.72 427.315 14.44C426.675 13.16 425.928 12.0933 425.075 11.24C424.222 10.28 423.048 9.10667 421.555 7.72L418.835 4.99999V3.4H447.155L500.275 75.88V15.56C500.275 13.4267 499.902 11.5067 499.155 9.8C498.515 8.09333 497.128 6.97333 494.995 6.43999L489.715 4.99999V3.4H512.595V4.99999L508.275 6.43999C506.355 7.07999 505.182 8.19999 504.755 9.8C504.328 11.4 504.115 13.2667 504.115 15.4V109.48H495.155L434.035 25.48V97.16C434.035 99.2933 434.355 101.107 434.995 102.6C435.635 104.093 436.968 105.16 438.995 105.8L443.795 107.4V109H419.475ZM565.841 111.88C555.495 111.88 546.108 109.8 537.681 105.64C529.361 101.373 522.748 95.08 517.841 86.76C512.935 78.44 510.481 68.2533 510.481 56.2C510.481 47.0267 511.975 38.9733 514.961 32.04C517.948 25.1067 522.001 19.2933 527.121 14.6C532.348 9.90666 538.321 6.38667 545.041 4.04C551.868 1.69333 559.068 0.519995 566.641 0.519995C572.721 0.519995 578.321 1.21333 583.441 2.6C588.561 3.98666 593.361 5.90667 597.841 8.36L598.481 28.04H596.881L588.881 15.24C587.815 13.2133 586.641 11.4 585.361 9.8C584.081 8.09333 582.481 6.81333 580.561 5.95999C578.961 5.21333 577.361 4.68 575.761 4.35999C574.268 3.93333 572.348 3.71999 570.001 3.71999C563.815 3.71999 558.161 5.37333 553.041 8.67999C548.028 11.9867 543.975 17.48 540.881 25.16C537.895 32.7333 536.401 43.1333 536.401 56.36C536.401 69.48 537.841 79.88 540.721 87.56C543.601 95.1333 547.495 100.573 552.401 103.88C557.415 107.08 563.015 108.68 569.201 108.68C572.615 108.68 575.335 108.467 577.361 108.04C579.388 107.507 581.415 106.76 583.441 105.8C585.468 104.947 587.015 103.72 588.081 102.12C589.148 100.413 590.108 98.6 590.961 96.68L598.001 81H599.601L599.121 103.88C594.641 106.227 589.628 108.147 584.081 109.64C578.535 111.133 572.455 111.88 565.841 111.88ZM599.208 109V107.4L602.888 105.96C604.701 105.213 605.928 104.253 606.568 103.08C607.314 101.8 607.688 100.093 607.688 97.96V14.44C607.688 12.3067 607.368 10.6533 606.728 9.47999C606.194 8.2 604.914 7.18666 602.888 6.43999L599.208 4.99999V3.4H675.848L676.808 28.04H675.208L668.328 13C667.368 11.08 666.354 9.53333 665.288 8.36C664.221 7.18666 662.621 6.59999 660.488 6.59999H631.688V52.84H648.808C650.941 52.84 652.541 52.3067 653.608 51.24C654.781 50.0667 655.794 48.52 656.648 46.6L659.848 40.2H661.448V69H659.848L656.648 62.28C655.688 60.36 654.674 58.8667 653.608 57.8C652.541 56.6267 650.941 56.04 648.808 56.04H631.688V105.8H664.008C666.141 105.8 667.794 105.267 668.968 104.2C670.141 103.027 671.101 101.427 671.848 99.4L678.408 84.36H680.008L679.048 109H599.208ZM0.52 269V267.4L3.4 266.28C5.53333 265.427 6.97333 264.36 7.72 263.08C8.57333 261.8 9 260.093 9 257.96V174.44C9 172.2 8.57333 170.44 7.72 169.16C6.97333 167.88 5.53333 166.867 3.4 166.12L0.52 165V163.4H46.44C59.4533 163.4 68.84 165.8 74.6 170.6C80.36 175.293 83.24 181.267 83.24 188.52C83.24 193.96 81.1067 198.92 76.84 203.4C72.68 207.773 65.48 210.867 55.24 212.68C66.9733 213.96 75.56 217.053 81 221.96C86.44 226.76 89.16 232.627 89.16 239.56C89.16 242.973 88.4133 246.44 86.92 249.96C85.4267 253.373 82.8667 256.52 79.24 259.4C75.72 262.28 70.8667 264.627 64.68 266.44C58.4933 268.147 50.6533 269 41.16 269H0.52ZM32.68 212.52H39.56C46.7067 212.52 51.8267 210.867 54.92 207.56C58.12 204.253 59.72 198.493 59.72 190.28C59.72 181.747 58.28 175.667 55.4 172.04C52.52 168.413 47.8267 166.6 41.32 166.6H32.68V212.52ZM32.68 265.8H40.68C48.68 265.8 54.6 263.667 58.44 259.4C62.3867 255.133 64.36 248.467 64.36 239.4C64.36 230.867 62.4933 224.787 58.76 221.16C55.0267 217.533 48.8933 215.72 40.36 215.72H32.68V265.8ZM85.4888 269V267.4L89.1688 265.96C90.9821 265.213 92.2088 264.253 92.8488 263.08C93.5954 261.8 93.9688 260.093 93.9688 257.96V174.44C93.9688 172.307 93.6488 170.653 93.0088 169.48C92.4754 168.2 91.1954 167.187 89.1688 166.44L85.4888 165V163.4H162.129L163.089 188.04H161.489L154.609 173C153.649 171.08 152.635 169.533 151.569 168.36C150.502 167.187 148.902 166.6 146.769 166.6H117.969V212.84H135.089C137.222 212.84 138.822 212.307 139.889 211.24C141.062 210.067 142.075 208.52 142.929 206.6L146.129 200.2H147.729V229H146.129L142.929 222.28C141.969 220.36 140.955 218.867 139.889 217.8C138.822 216.627 137.222 216.04 135.089 216.04H117.969V265.8H150.289C152.422 265.8 154.075 265.267 155.249 264.2C156.422 263.027 157.382 261.427 158.129 259.4L164.689 244.36H166.289L165.329 269H85.4888ZM219.24 271.88C208.36 271.88 198.76 269.64 190.44 265.16C182.227 260.573 175.773 254.12 171.08 245.8C166.493 237.373 164.2 227.453 164.2 216.04C164.2 204.947 166.493 195.24 171.08 186.92C175.667 178.6 182.28 172.147 190.92 167.56C199.667 162.867 210.227 160.52 222.6 160.52C228.253 160.52 233.48 161.16 238.28 162.44C243.187 163.72 247.827 165.587 252.2 168.04L252.84 190.44H251.24L242.28 173.8C240.893 171.133 239.613 169.213 238.44 168.04C237.267 166.867 235.773 165.96 233.96 165.32C232.253 164.787 230.653 164.413 229.16 164.2C227.773 163.88 225.907 163.72 223.56 163.72C216.947 163.72 211.08 165.48 205.96 169C200.947 172.52 197.053 178.12 194.28 185.8C191.507 193.48 190.12 203.56 190.12 216.04C190.12 228.413 191.4 238.493 193.96 246.28C196.627 254.067 200.36 259.773 205.16 263.4C209.96 266.92 215.507 268.68 221.8 268.68C222.76 268.68 223.667 268.627 224.52 268.52C225.48 268.307 226.387 268.093 227.24 267.88C229.267 267.56 230.6 266.707 231.24 265.32C231.88 263.933 232.2 262.28 232.2 260.36V228.68C232.2 224.52 230.067 221.96 225.8 221L218.44 219.08V217.48H263.56V219.08L261.32 219.72C257.267 221 255.24 223.667 255.24 227.72V262.44C249.693 265.533 244.04 267.88 238.28 269.48C232.627 271.08 226.28 271.88 219.24 271.88ZM259.958 269V267.4L263.158 266.12C265.291 265.373 266.678 264.36 267.318 263.08C268.064 261.8 268.438 260.093 268.438 257.96V174.44C268.438 172.307 268.118 170.6 267.478 169.32C266.838 168.04 265.398 167.027 263.158 166.28L259.958 165V163.4H301.078V165L297.878 166.28C295.744 167.027 294.304 168.04 293.558 169.32C292.918 170.6 292.598 172.307 292.598 174.44V257.96C292.598 260.093 292.918 261.8 293.558 263.08C294.304 264.253 295.744 265.267 297.878 266.12L301.078 267.4V269H259.958ZM302.163 269V267.4L307.443 265.8C309.363 265.267 310.749 264.253 311.603 262.76C312.456 261.16 312.883 259.293 312.883 257.16V180.2C311.709 177.64 310.749 175.72 310.003 174.44C309.363 173.16 308.616 172.093 307.763 171.24C306.909 170.28 305.736 169.107 304.243 167.72L301.523 165V163.4H329.843L382.963 235.88V175.56C382.963 173.427 382.589 171.507 381.843 169.8C381.203 168.093 379.816 166.973 377.683 166.44L372.403 165V163.4H395.283V165L390.963 166.44C389.043 167.08 387.869 168.2 387.443 169.8C387.016 171.4 386.803 173.267 386.803 175.4V269.48H377.843L316.723 185.48V257.16C316.723 259.293 317.043 261.107 317.682 262.6C318.323 264.093 319.656 265.16 321.683 265.8L326.483 267.4V269H302.163ZM429.451 271.88C423.585 271.88 417.611 271.133 411.531 269.64C405.451 268.253 400.385 266.387 396.331 264.04L397.131 242.28H398.731L403.691 252.68C405.185 255.667 406.785 258.333 408.491 260.68C410.198 262.92 412.545 264.68 415.531 265.96C417.665 267.027 419.691 267.773 421.611 268.2C423.638 268.52 425.878 268.68 428.331 268.68C434.838 268.68 439.958 266.92 443.691 263.4C447.531 259.88 449.451 255.347 449.451 249.8C449.451 244.573 448.171 240.52 445.611 237.64C443.051 234.653 438.945 231.773 433.291 229L426.731 226.12C417.558 222.067 410.358 217.427 405.131 212.2C400.011 206.867 397.451 199.827 397.451 191.08C397.451 184.787 399.051 179.347 402.251 174.76C405.558 170.173 410.091 166.653 415.851 164.2C421.718 161.747 428.545 160.52 436.331 160.52C441.985 160.52 447.318 161.267 452.331 162.76C457.451 164.253 461.878 166.28 465.611 168.84L464.651 188.04H463.051L456.491 176.04C454.678 172.307 452.865 169.693 451.051 168.2C449.238 166.6 447.158 165.48 444.811 164.84C443.425 164.413 442.145 164.147 440.971 164.04C439.798 163.827 438.305 163.72 436.491 163.72C431.051 163.72 426.465 165.32 422.731 168.52C418.998 171.613 417.131 175.827 417.131 181.16C417.131 186.6 418.571 190.973 421.451 194.28C424.331 197.48 428.545 200.36 434.091 202.92L441.451 206.12C451.691 210.6 459.051 215.4 463.531 220.52C468.011 225.533 470.251 232.04 470.251 240.04C470.251 249.427 466.678 257.107 459.531 263.08C452.491 268.947 442.465 271.88 429.451 271.88ZM0.52 429V427.4L3.72 426.12C5.85333 425.373 7.24 424.36 7.88 423.08C8.62667 421.8 9 420.147 9 418.12V334.44C9 332.307 8.62667 330.6 7.88 329.32C7.24 328.04 5.85333 327.027 3.72 326.28L0.52 325V323.4H41.16V325L38.44 326.12C36.4133 326.867 35.0267 327.88 34.28 329.16C33.5333 330.333 33.16 331.987 33.16 334.12V373H71.4V334.12C71.4 331.987 71.0267 330.333 70.28 329.16C69.64 327.88 68.2533 326.867 66.12 326.12L63.24 325V323.4H104.04V325L100.84 326.28C98.8133 327.027 97.4267 328.04 96.68 329.32C95.9333 330.6 95.56 332.307 95.56 334.44V418.12C95.56 420.147 95.9333 421.8 96.68 423.08C97.4267 424.36 98.8133 425.373 100.84 426.12L104.04 427.4V429H63.24V427.4L66.12 426.44C68.2533 425.587 69.64 424.573 70.28 423.4C71.0267 422.12 71.4 420.413 71.4 418.28V376.2H33.16V418.28C33.16 422.227 34.92 424.947 38.44 426.44L41.16 427.4V429H0.52ZM103.145 429V427.4L106.825 425.96C108.638 425.213 109.865 424.253 110.505 423.08C111.252 421.8 111.625 420.093 111.625 417.96V334.44C111.625 332.307 111.305 330.653 110.665 329.48C110.132 328.2 108.852 327.187 106.825 326.44L103.145 325V323.4H179.785L180.745 348.04H179.145L172.265 333C171.305 331.08 170.292 329.533 169.225 328.36C168.158 327.187 166.558 326.6 164.425 326.6H135.625V372.84H152.745C154.878 372.84 156.478 372.307 157.545 371.24C158.718 370.067 159.732 368.52 160.585 366.6L163.785 360.2H165.385V389H163.785L160.585 382.28C159.625 380.36 158.612 378.867 157.545 377.8C156.478 376.627 154.878 376.04 152.745 376.04H135.625V425.8H167.945C170.078 425.8 171.732 425.267 172.905 424.2C174.078 423.027 175.038 421.427 175.785 419.4L182.345 404.36H183.945L182.985 429H103.145ZM183.895 429V427.4L187.255 426.28C189.388 425.533 190.775 424.573 191.415 423.4C192.055 422.12 192.375 420.36 192.375 418.12V334.44C192.375 332.307 192.055 330.653 191.415 329.48C190.882 328.2 189.602 327.187 187.575 326.44L183.895 325V323.4H229.655C242.242 323.4 251.895 325.8 258.615 330.6C265.335 335.293 268.695 341.853 268.695 350.28C268.695 354.973 266.935 359.667 263.415 364.36C259.895 369.053 254.348 372.68 246.775 375.24L269.015 419.4C269.975 421.213 271.042 422.707 272.215 423.88C273.495 424.947 275.148 425.907 277.175 426.76L279.255 427.56V429H250.615L226.935 378.6H216.055V418.12C216.055 420.147 216.375 421.8 217.015 423.08C217.655 424.36 218.988 425.32 221.015 425.96L224.855 427.4V429H183.895ZM216.055 375.4H223.735C231.415 375.4 236.962 373.373 240.375 369.32C243.788 365.16 245.495 359.027 245.495 350.92C245.495 342.707 243.895 336.627 240.695 332.68C237.495 328.627 232.108 326.6 224.535 326.6H216.055V375.4ZM276.364 429V427.4L280.044 425.96C281.857 425.213 283.084 424.253 283.724 423.08C284.47 421.8 284.844 420.093 284.844 417.96V334.44C284.844 332.307 284.524 330.653 283.884 329.48C283.35 328.2 282.07 327.187 280.044 326.44L276.364 325V323.4H353.004L353.964 348.04H352.364L345.484 333C344.524 331.08 343.51 329.533 342.444 328.36C341.377 327.187 339.777 326.6 337.644 326.6H308.844V372.84H325.964C328.097 372.84 329.697 372.307 330.764 371.24C331.937 370.067 332.95 368.52 333.804 366.6L337.004 360.2H338.604V389H337.004L333.804 382.28C332.844 380.36 331.83 378.867 330.764 377.8C329.697 376.627 328.097 376.04 325.964 376.04H308.844V425.8H341.164C343.297 425.8 344.95 425.267 346.124 424.2C347.297 423.027 348.257 421.427 349.004 419.4L355.564 404.36H357.164L356.204 429H276.364Z" fill="#FFD9D9" fill-opacity="0.14"/>
<path d="M0.52 109V107.4L3.88 106.28C6.01333 105.533 7.4 104.573 8.04 103.4C8.68 102.12 9 100.36 9 98.12V14.44C9 12.3067 8.68 10.6533 8.04 9.47999C7.50667 8.2 6.22667 7.18666 4.2 6.43999L0.52 4.99999V3.4H46.28C58.8667 3.4 68.52 5.8 75.24 10.6C81.96 15.2933 85.32 21.8533 85.32 30.28C85.32 34.9733 83.56 39.6667 80.04 44.36C76.52 49.0533 70.9733 52.68 63.4 55.24L85.64 99.4C86.6 101.213 87.6667 102.707 88.84 103.88C90.12 104.947 91.7733 105.907 93.8 106.76L95.88 107.56V109H67.24L43.56 58.6H32.68V98.12C32.68 100.147 33 101.8 33.64 103.08C34.28 104.36 35.6133 105.32 37.64 105.96L41.48 107.4V109H0.52ZM32.68 55.4H40.36C48.04 55.4 53.5867 53.3733 57 49.32C60.4133 45.16 62.12 39.0267 62.12 30.92C62.12 22.7067 60.52 16.6267 57.32 12.68C54.12 8.62666 48.7333 6.59999 41.16 6.59999H32.68V55.4ZM92.3113 109V107.4L96.3112 105.96C98.4446 105.107 100.098 104.093 101.271 102.92C102.445 101.64 103.405 99.88 104.151 97.64L137.111 3.07999H150.711L183.191 98.28C184.045 100.627 185.005 102.44 186.071 103.72C187.138 104.893 188.791 105.907 191.031 106.76L192.951 107.4V109H152.311V107.4L154.711 106.6C156.951 105.747 158.285 104.573 158.711 103.08C159.245 101.48 159.191 99.6133 158.551 97.48L151.031 74.44H115.511L107.831 97C107.085 99.3467 106.818 101.213 107.031 102.6C107.351 103.987 108.631 105.107 110.871 105.96L114.391 107.4V109H92.3113ZM116.631 71.24H150.071L133.911 21.48L116.631 71.24ZM189.989 109V107.4L193.349 106.12C196.762 104.733 198.469 102.013 198.469 97.96V14.44C198.469 10.1733 196.762 7.45333 193.349 6.28L189.989 4.99999V3.4H232.229C243.535 3.4 253.242 5.53333 261.349 9.8C269.562 13.96 275.855 19.9867 280.229 27.88C284.709 35.6667 286.949 45.0533 286.949 56.04C286.949 67.24 284.549 76.7867 279.749 84.68C274.949 92.5733 268.229 98.6 259.589 102.76C251.055 106.92 240.975 109 229.349 109H189.989ZM222.469 105.8H229.349C237.029 105.8 243.215 104.307 247.909 101.32C252.602 98.2267 256.015 93.1067 258.149 85.96C260.389 78.7067 261.509 68.7867 261.509 56.2C261.509 43.6133 260.389 33.7467 258.149 26.6C256.015 19.3467 252.655 14.2267 248.069 11.24C243.482 8.14666 237.455 6.59999 229.989 6.59999H222.469V105.8ZM281.833 109V107.4L285.033 106.12C287.166 105.373 288.553 104.36 289.193 103.08C289.939 101.8 290.313 100.093 290.313 97.96V14.44C290.313 12.3067 289.993 10.6 289.353 9.32C288.713 8.03999 287.273 7.02666 285.033 6.28L281.833 4.99999V3.4H322.953V4.99999L319.753 6.28C317.619 7.02666 316.179 8.03999 315.433 9.32C314.793 10.6 314.473 12.3067 314.473 14.44V97.96C314.473 100.093 314.793 101.8 315.433 103.08C316.179 104.253 317.619 105.267 319.753 106.12L322.953 107.4V109H281.833ZM319.718 109V107.4L323.717 105.96C325.851 105.107 327.504 104.093 328.678 102.92C329.851 101.64 330.811 99.88 331.558 97.64L364.518 3.07999H378.118L410.598 98.28C411.451 100.627 412.411 102.44 413.478 103.72C414.544 104.893 416.198 105.907 418.438 106.76L420.358 107.4V109H379.718V107.4L382.118 106.6C384.358 105.747 385.691 104.573 386.118 103.08C386.651 101.48 386.598 99.6133 385.958 97.48L378.438 74.44H342.918L335.238 97C334.491 99.3467 334.224 101.213 334.438 102.6C334.758 103.987 336.038 105.107 338.278 105.96L341.798 107.4V109H319.718ZM344.038 71.24H377.478L361.318 21.48L344.038 71.24ZM419.475 109V107.4L424.755 105.8C426.675 105.267 428.062 104.253 428.915 102.76C429.768 101.16 430.195 99.2933 430.195 97.16V20.2C429.022 17.64 428.062 15.72 427.315 14.44C426.675 13.16 425.928 12.0933 425.075 11.24C424.222 10.28 423.048 9.10667 421.555 7.72L418.835 4.99999V3.4H447.155L500.275 75.88V15.56C500.275 13.4267 499.902 11.5067 499.155 9.8C498.515 8.09333 497.128 6.97333 494.995 6.43999L489.715 4.99999V3.4H512.595V4.99999L508.275 6.43999C506.355 7.07999 505.182 8.19999 504.755 9.8C504.328 11.4 504.115 13.2667 504.115 15.4V109.48H495.155L434.035 25.48V97.16C434.035 99.2933 434.355 101.107 434.995 102.6C435.635 104.093 436.968 105.16 438.995 105.8L443.795 107.4V109H419.475ZM565.841 111.88C555.495 111.88 546.108 109.8 537.681 105.64C529.361 101.373 522.748 95.08 517.841 86.76C512.935 78.44 510.481 68.2533 510.481 56.2C510.481 47.0267 511.975 38.9733 514.961 32.04C517.948 25.1067 522.001 19.2933 527.121 14.6C532.348 9.90666 538.321 6.38667 545.041 4.04C551.868 1.69333 559.068 0.519995 566.641 0.519995C572.721 0.519995 578.321 1.21333 583.441 2.6C588.561 3.98666 593.361 5.90667 597.841 8.36L598.481 28.04H596.881L588.881 15.24C587.815 13.2133 586.641 11.4 585.361 9.8C584.081 8.09333 582.481 6.81333 580.561 5.95999C578.961 5.21333 577.361 4.68 575.761 4.35999C574.268 3.93333 572.348 3.71999 570.001 3.71999C563.815 3.71999 558.161 5.37333 553.041 8.67999C548.028 11.9867 543.975 17.48 540.881 25.16C537.895 32.7333 536.401 43.1333 536.401 56.36C536.401 69.48 537.841 79.88 540.721 87.56C543.601 95.1333 547.495 100.573 552.401 103.88C557.415 107.08 563.015 108.68 569.201 108.68C572.615 108.68 575.335 108.467 577.361 108.04C579.388 107.507 581.415 106.76 583.441 105.8C585.468 104.947 587.015 103.72 588.081 102.12C589.148 100.413 590.108 98.6 590.961 96.68L598.001 81H599.601L599.121 103.88C594.641 106.227 589.628 108.147 584.081 109.64C578.535 111.133 572.455 111.88 565.841 111.88ZM599.208 109V107.4L602.888 105.96C604.701 105.213 605.928 104.253 606.568 103.08C607.314 101.8 607.688 100.093 607.688 97.96V14.44C607.688 12.3067 607.368 10.6533 606.728 9.47999C606.194 8.2 604.914 7.18666 602.888 6.43999L599.208 4.99999V3.4H675.848L676.808 28.04H675.208L668.328 13C667.368 11.08 666.354 9.53333 665.288 8.36C664.221 7.18666 662.621 6.59999 660.488 6.59999H631.688V52.84H648.808C650.941 52.84 652.541 52.3067 653.608 51.24C654.781 50.0667 655.794 48.52 656.648 46.6L659.848 40.2H661.448V69H659.848L656.648 62.28C655.688 60.36 654.674 58.8667 653.608 57.8C652.541 56.6267 650.941 56.04 648.808 56.04H631.688V105.8H664.008C666.141 105.8 667.794 105.267 668.968 104.2C670.141 103.027 671.101 101.427 671.848 99.4L678.408 84.36H680.008L679.048 109H599.208ZM0.52 269V267.4L3.4 266.28C5.53333 265.427 6.97333 264.36 7.72 263.08C8.57333 261.8 9 260.093 9 257.96V174.44C9 172.2 8.57333 170.44 7.72 169.16C6.97333 167.88 5.53333 166.867 3.4 166.12L0.52 165V163.4H46.44C59.4533 163.4 68.84 165.8 74.6 170.6C80.36 175.293 83.24 181.267 83.24 188.52C83.24 193.96 81.1067 198.92 76.84 203.4C72.68 207.773 65.48 210.867 55.24 212.68C66.9733 213.96 75.56 217.053 81 221.96C86.44 226.76 89.16 232.627 89.16 239.56C89.16 242.973 88.4133 246.44 86.92 249.96C85.4267 253.373 82.8667 256.52 79.24 259.4C75.72 262.28 70.8667 264.627 64.68 266.44C58.4933 268.147 50.6533 269 41.16 269H0.52ZM32.68 212.52H39.56C46.7067 212.52 51.8267 210.867 54.92 207.56C58.12 204.253 59.72 198.493 59.72 190.28C59.72 181.747 58.28 175.667 55.4 172.04C52.52 168.413 47.8267 166.6 41.32 166.6H32.68V212.52ZM32.68 265.8H40.68C48.68 265.8 54.6 263.667 58.44 259.4C62.3867 255.133 64.36 248.467 64.36 239.4C64.36 230.867 62.4933 224.787 58.76 221.16C55.0267 217.533 48.8933 215.72 40.36 215.72H32.68V265.8ZM85.4888 269V267.4L89.1688 265.96C90.9821 265.213 92.2088 264.253 92.8488 263.08C93.5954 261.8 93.9688 260.093 93.9688 257.96V174.44C93.9688 172.307 93.6488 170.653 93.0088 169.48C92.4754 168.2 91.1954 167.187 89.1688 166.44L85.4888 165V163.4H162.129L163.089 188.04H161.489L154.609 173C153.649 171.08 152.635 169.533 151.569 168.36C150.502 167.187 148.902 166.6 146.769 166.6H117.969V212.84H135.089C137.222 212.84 138.822 212.307 139.889 211.24C141.062 210.067 142.075 208.52 142.929 206.6L146.129 200.2H147.729V229H146.129L142.929 222.28C141.969 220.36 140.955 218.867 139.889 217.8C138.822 216.627 137.222 216.04 135.089 216.04H117.969V265.8H150.289C152.422 265.8 154.075 265.267 155.249 264.2C156.422 263.027 157.382 261.427 158.129 259.4L164.689 244.36H166.289L165.329 269H85.4888ZM219.24 271.88C208.36 271.88 198.76 269.64 190.44 265.16C182.227 260.573 175.773 254.12 171.08 245.8C166.493 237.373 164.2 227.453 164.2 216.04C164.2 204.947 166.493 195.24 171.08 186.92C175.667 178.6 182.28 172.147 190.92 167.56C199.667 162.867 210.227 160.52 222.6 160.52C228.253 160.52 233.48 161.16 238.28 162.44C243.187 163.72 247.827 165.587 252.2 168.04L252.84 190.44H251.24L242.28 173.8C240.893 171.133 239.613 169.213 238.44 168.04C237.267 166.867 235.773 165.96 233.96 165.32C232.253 164.787 230.653 164.413 229.16 164.2C227.773 163.88 225.907 163.72 223.56 163.72C216.947 163.72 211.08 165.48 205.96 169C200.947 172.52 197.053 178.12 194.28 185.8C191.507 193.48 190.12 203.56 190.12 216.04C190.12 228.413 191.4 238.493 193.96 246.28C196.627 254.067 200.36 259.773 205.16 263.4C209.96 266.92 215.507 268.68 221.8 268.68C222.76 268.68 223.667 268.627 224.52 268.52C225.48 268.307 226.387 268.093 227.24 267.88C229.267 267.56 230.6 266.707 231.24 265.32C231.88 263.933 232.2 262.28 232.2 260.36V228.68C232.2 224.52 230.067 221.96 225.8 221L218.44 219.08V217.48H263.56V219.08L261.32 219.72C257.267 221 255.24 223.667 255.24 227.72V262.44C249.693 265.533 244.04 267.88 238.28 269.48C232.627 271.08 226.28 271.88 219.24 271.88ZM259.958 269V267.4L263.158 266.12C265.291 265.373 266.678 264.36 267.318 263.08C268.064 261.8 268.438 260.093 268.438 257.96V174.44C268.438 172.307 268.118 170.6 267.478 169.32C266.838 168.04 265.398 167.027 263.158 166.28L259.958 165V163.4H301.078V165L297.878 166.28C295.744 167.027 294.304 168.04 293.558 169.32C292.918 170.6 292.598 172.307 292.598 174.44V257.96C292.598 260.093 292.918 261.8 293.558 263.08C294.304 264.253 295.744 265.267 297.878 266.12L301.078 267.4V269H259.958ZM302.163 269V267.4L307.443 265.8C309.363 265.267 310.749 264.253 311.603 262.76C312.456 261.16 312.883 259.293 312.883 257.16V180.2C311.709 177.64 310.749 175.72 310.003 174.44C309.363 173.16 308.616 172.093 307.763 171.24C306.909 170.28 305.736 169.107 304.243 167.72L301.523 165V163.4H329.843L382.963 235.88V175.56C382.963 173.427 382.589 171.507 381.843 169.8C381.203 168.093 379.816 166.973 377.683 166.44L372.403 165V163.4H395.283V165L390.963 166.44C389.043 167.08 387.869 168.2 387.443 169.8C387.016 171.4 386.803 173.267 386.803 175.4V269.48H377.843L316.723 185.48V257.16C316.723 259.293 317.043 261.107 317.682 262.6C318.323 264.093 319.656 265.16 321.683 265.8L326.483 267.4V269H302.163ZM429.451 271.88C423.585 271.88 417.611 271.133 411.531 269.64C405.451 268.253 400.385 266.387 396.331 264.04L397.131 242.28H398.731L403.691 252.68C405.185 255.667 406.785 258.333 408.491 260.68C410.198 262.92 412.545 264.68 415.531 265.96C417.665 267.027 419.691 267.773 421.611 268.2C423.638 268.52 425.878 268.68 428.331 268.68C434.838 268.68 439.958 266.92 443.691 263.4C447.531 259.88 449.451 255.347 449.451 249.8C449.451 244.573 448.171 240.52 445.611 237.64C443.051 234.653 438.945 231.773 433.291 229L426.731 226.12C417.558 222.067 410.358 217.427 405.131 212.2C400.011 206.867 397.451 199.827 397.451 191.08C397.451 184.787 399.051 179.347 402.251 174.76C405.558 170.173 410.091 166.653 415.851 164.2C421.718 161.747 428.545 160.52 436.331 160.52C441.985 160.52 447.318 161.267 452.331 162.76C457.451 164.253 461.878 166.28 465.611 168.84L464.651 188.04H463.051L456.491 176.04C454.678 172.307 452.865 169.693 451.051 168.2C449.238 166.6 447.158 165.48 444.811 164.84C443.425 164.413 442.145 164.147 440.971 164.04C439.798 163.827 438.305 163.72 436.491 163.72C431.051 163.72 426.465 165.32 422.731 168.52C418.998 171.613 417.131 175.827 417.131 181.16C417.131 186.6 418.571 190.973 421.451 194.28C424.331 197.48 428.545 200.36 434.091 202.92L441.451 206.12C451.691 210.6 459.051 215.4 463.531 220.52C468.011 225.533 470.251 232.04 470.251 240.04C470.251 249.427 466.678 257.107 459.531 263.08C452.491 268.947 442.465 271.88 429.451 271.88ZM0.52 429V427.4L3.72 426.12C5.85333 425.373 7.24 424.36 7.88 423.08C8.62667 421.8 9 420.147 9 418.12V334.44C9 332.307 8.62667 330.6 7.88 329.32C7.24 328.04 5.85333 327.027 3.72 326.28L0.52 325V323.4H41.16V325L38.44 326.12C36.4133 326.867 35.0267 327.88 34.28 329.16C33.5333 330.333 33.16 331.987 33.16 334.12V373H71.4V334.12C71.4 331.987 71.0267 330.333 70.28 329.16C69.64 327.88 68.2533 326.867 66.12 326.12L63.24 325V323.4H104.04V325L100.84 326.28C98.8133 327.027 97.4267 328.04 96.68 329.32C95.9333 330.6 95.56 332.307 95.56 334.44V418.12C95.56 420.147 95.9333 421.8 96.68 423.08C97.4267 424.36 98.8133 425.373 100.84 426.12L104.04 427.4V429H63.24V427.4L66.12 426.44C68.2533 425.587 69.64 424.573 70.28 423.4C71.0267 422.12 71.4 420.413 71.4 418.28V376.2H33.16V418.28C33.16 422.227 34.92 424.947 38.44 426.44L41.16 427.4V429H0.52ZM103.145 429V427.4L106.825 425.96C108.638 425.213 109.865 424.253 110.505 423.08C111.252 421.8 111.625 420.093 111.625 417.96V334.44C111.625 332.307 111.305 330.653 110.665 329.48C110.132 328.2 108.852 327.187 106.825 326.44L103.145 325V323.4H179.785L180.745 348.04H179.145L172.265 333C171.305 331.08 170.292 329.533 169.225 328.36C168.158 327.187 166.558 326.6 164.425 326.6H135.625V372.84H152.745C154.878 372.84 156.478 372.307 157.545 371.24C158.718 370.067 159.732 368.52 160.585 366.6L163.785 360.2H165.385V389H163.785L160.585 382.28C159.625 380.36 158.612 378.867 157.545 377.8C156.478 376.627 154.878 376.04 152.745 376.04H135.625V425.8H167.945C170.078 425.8 171.732 425.267 172.905 424.2C174.078 423.027 175.038 421.427 175.785 419.4L182.345 404.36H183.945L182.985 429H103.145ZM183.895 429V427.4L187.255 426.28C189.388 425.533 190.775 424.573 191.415 423.4C192.055 422.12 192.375 420.36 192.375 418.12V334.44C192.375 332.307 192.055 330.653 191.415 329.48C190.882 328.2 189.602 327.187 187.575 326.44L183.895 325V323.4H229.655C242.242 323.4 251.895 325.8 258.615 330.6C265.335 335.293 268.695 341.853 268.695 350.28C268.695 354.973 266.935 359.667 263.415 364.36C259.895 369.053 254.348 372.68 246.775 375.24L269.015 419.4C269.975 421.213 271.042 422.707 272.215 423.88C273.495 424.947 275.148 425.907 277.175 426.76L279.255 427.56V429H250.615L226.935 378.6H216.055V418.12C216.055 420.147 216.375 421.8 217.015 423.08C217.655 424.36 218.988 425.32 221.015 425.96L224.855 427.4V429H183.895ZM216.055 375.4H223.735C231.415 375.4 236.962 373.373 240.375 369.32C243.788 365.16 245.495 359.027 245.495 350.92C245.495 342.707 243.895 336.627 240.695 332.68C237.495 328.627 232.108 326.6 224.535 326.6H216.055V375.4ZM276.364 429V427.4L280.044 425.96C281.857 425.213 283.084 424.253 283.724 423.08C284.47 421.8 284.844 420.093 284.844 417.96V334.44C284.844 332.307 284.524 330.653 283.884 329.48C283.35 328.2 282.07 327.187 280.044 326.44L276.364 325V323.4H353.004L353.964 348.04H352.364L345.484 333C344.524 331.08 343.51 329.533 342.444 328.36C341.377 327.187 339.777 326.6 337.644 326.6H308.844V372.84H325.964C328.097 372.84 329.697 372.307 330.764 371.24C331.937 370.067 332.95 368.52 333.804 366.6L337.004 360.2H338.604V389H337.004L333.804 382.28C332.844 380.36 331.83 378.867 330.764 377.8C329.697 376.627 328.097 376.04 325.964 376.04H308.844V425.8H341.164C343.297 425.8 344.95 425.267 346.124 424.2C347.297 423.027 348.257 421.427 349.004 419.4L355.564 404.36H357.164L356.204 429H276.364Z" fill="#611C0C" fill-opacity="0.35"/>
<defs>
<linearGradient id="paint0_linear_1445_852" x1="-3" y1="213" x2="866.593" y2="214.448" gradientUnits="userSpaceOnUse">
<stop stop-color="#FFD5CC"/>
<stop offset="0.168269" stop-color="#D89681"/>
<stop offset="0.455767" stop-color="#FFEAE2"/>
<stop offset="0.653846" stop-color="#FFE1D5"/>
<stop offset="0.8125" stop-color="#FFDDD2"/>
<stop offset="1" stop-color="#F5C1AF"/>
</linearGradient>
</defs>
</svg>
