<svg width="24" height="24" viewBox="0 0 24 24" fill="none" xmlns="http://www.w3.org/2000/svg">
<g clip-path="url(#clip0_2025_4666)">
<path d="M-0.68185 -0.564312C-0.95084 -0.962806 -0.665327 -1.5 -0.184544 -1.5H7.03843C7.2398 -1.5 7.42773 -1.39899 7.53884 -1.23106L13.4042 7.63468C13.6272 7.97167 14.1127 7.99641 14.3688 7.68384L21.7118 -1.28021C21.8257 -1.41933 21.9961 -1.5 22.1759 -1.5H23.3544C23.8676 -1.5 24.1439 -0.897356 23.809 -0.508439L15.2079 9.47779C15.0312 9.68291 15.0138 9.98095 15.1654 10.2053L24.8676 24.5641C25.1368 24.9626 24.8514 25.5 24.3705 25.5H17.1525C16.9514 25.5 16.7637 25.3993 16.6525 25.2317L10.4362 15.8637C10.2153 15.5308 9.73671 15.5028 9.47844 15.8077L1.44847 25.2878C1.33447 25.4224 1.16702 25.5 0.990635 25.5H-0.168941C-0.685847 25.5 -0.960831 24.89 -0.618513 24.5027L8.63157 14.0368C8.81268 13.8319 8.83231 13.5304 8.6793 13.3037L-0.68185 -0.564312Z" fill="#B36A66"/>
</g>
<defs>
<clipPath id="clip0_2025_4666">
<rect width="24" height="24" fill="white"/>
</clipPath>
</defs>
</svg>
